G04 EAGLE Gerber RS-274X export*
G75*
%MOMM*%
%FSLAX34Y34*%
%LPD*%
%INSilkscreen Bottom*%
%IPPOS*%
%AMOC8*
5,1,8,0,0,1.08239X$1,22.5*%
G01*
%ADD10C,0.152400*%
%ADD11C,0.127000*%
%ADD12C,0.101600*%
%ADD13C,0.254000*%


D10*
X599878Y297744D02*
X599880Y297626D01*
X599886Y297508D01*
X599895Y297390D01*
X599909Y297273D01*
X599926Y297156D01*
X599947Y297039D01*
X599972Y296924D01*
X600001Y296809D01*
X600034Y296695D01*
X600070Y296583D01*
X600110Y296472D01*
X600153Y296362D01*
X600200Y296253D01*
X600250Y296146D01*
X600305Y296041D01*
X600362Y295938D01*
X600423Y295837D01*
X600487Y295737D01*
X600554Y295640D01*
X600624Y295545D01*
X600698Y295453D01*
X600774Y295362D01*
X600854Y295275D01*
X600936Y295190D01*
X601021Y295108D01*
X601108Y295028D01*
X601199Y294952D01*
X601291Y294878D01*
X601386Y294808D01*
X601483Y294741D01*
X601583Y294677D01*
X601684Y294616D01*
X601787Y294559D01*
X601892Y294504D01*
X601999Y294454D01*
X602108Y294407D01*
X602218Y294364D01*
X602329Y294324D01*
X602441Y294288D01*
X602555Y294255D01*
X602670Y294226D01*
X602785Y294201D01*
X602902Y294180D01*
X603019Y294163D01*
X603136Y294149D01*
X603254Y294140D01*
X603372Y294134D01*
X603490Y294132D01*
X603673Y294134D01*
X603855Y294141D01*
X604037Y294152D01*
X604219Y294167D01*
X604401Y294187D01*
X604582Y294211D01*
X604762Y294239D01*
X604942Y294271D01*
X605121Y294308D01*
X605298Y294349D01*
X605475Y294395D01*
X605651Y294444D01*
X605826Y294498D01*
X605999Y294556D01*
X606170Y294618D01*
X606341Y294684D01*
X606509Y294755D01*
X606676Y294829D01*
X606841Y294907D01*
X607004Y294989D01*
X607165Y295075D01*
X607324Y295165D01*
X607481Y295259D01*
X607635Y295356D01*
X607787Y295457D01*
X607937Y295562D01*
X608084Y295670D01*
X608228Y295781D01*
X608370Y295896D01*
X608509Y296015D01*
X608645Y296137D01*
X608778Y296262D01*
X608908Y296390D01*
X608456Y306776D02*
X608454Y306894D01*
X608448Y307012D01*
X608439Y307130D01*
X608425Y307247D01*
X608408Y307364D01*
X608387Y307481D01*
X608362Y307596D01*
X608333Y307711D01*
X608300Y307825D01*
X608264Y307937D01*
X608224Y308048D01*
X608181Y308158D01*
X608134Y308267D01*
X608084Y308374D01*
X608029Y308479D01*
X607972Y308582D01*
X607911Y308683D01*
X607847Y308783D01*
X607780Y308880D01*
X607710Y308975D01*
X607636Y309067D01*
X607560Y309158D01*
X607480Y309245D01*
X607398Y309330D01*
X607313Y309412D01*
X607226Y309492D01*
X607135Y309568D01*
X607043Y309642D01*
X606948Y309712D01*
X606851Y309779D01*
X606751Y309843D01*
X606650Y309904D01*
X606547Y309961D01*
X606442Y310016D01*
X606335Y310066D01*
X606226Y310113D01*
X606116Y310156D01*
X606005Y310196D01*
X605893Y310232D01*
X605779Y310265D01*
X605664Y310294D01*
X605549Y310319D01*
X605432Y310340D01*
X605315Y310357D01*
X605198Y310371D01*
X605080Y310380D01*
X604962Y310386D01*
X604844Y310388D01*
X604683Y310386D01*
X604521Y310380D01*
X604360Y310371D01*
X604199Y310357D01*
X604039Y310340D01*
X603879Y310319D01*
X603719Y310294D01*
X603560Y310265D01*
X603402Y310233D01*
X603245Y310197D01*
X603089Y310157D01*
X602933Y310113D01*
X602779Y310065D01*
X602626Y310014D01*
X602474Y309960D01*
X602323Y309901D01*
X602174Y309840D01*
X602027Y309774D01*
X601881Y309705D01*
X601736Y309633D01*
X601594Y309557D01*
X601453Y309478D01*
X601314Y309396D01*
X601178Y309310D01*
X601043Y309221D01*
X600910Y309129D01*
X600780Y309033D01*
X606651Y303615D02*
X606752Y303677D01*
X606852Y303742D01*
X606949Y303811D01*
X607044Y303883D01*
X607137Y303957D01*
X607227Y304035D01*
X607315Y304116D01*
X607400Y304199D01*
X607482Y304285D01*
X607561Y304374D01*
X607638Y304465D01*
X607711Y304559D01*
X607782Y304655D01*
X607849Y304753D01*
X607913Y304853D01*
X607974Y304956D01*
X608031Y305060D01*
X608085Y305166D01*
X608135Y305274D01*
X608182Y305383D01*
X608226Y305494D01*
X608266Y305606D01*
X608302Y305720D01*
X608334Y305834D01*
X608363Y305950D01*
X608388Y306066D01*
X608409Y306183D01*
X608426Y306301D01*
X608440Y306419D01*
X608449Y306538D01*
X608455Y306657D01*
X608457Y306776D01*
X601683Y300905D02*
X601582Y300843D01*
X601482Y300778D01*
X601385Y300709D01*
X601290Y300637D01*
X601197Y300563D01*
X601107Y300485D01*
X601019Y300404D01*
X600934Y300321D01*
X600852Y300235D01*
X600773Y300146D01*
X600696Y300055D01*
X600623Y299961D01*
X600552Y299865D01*
X600485Y299767D01*
X600421Y299667D01*
X600360Y299564D01*
X600303Y299460D01*
X600249Y299354D01*
X600199Y299246D01*
X600152Y299137D01*
X600108Y299026D01*
X600068Y298914D01*
X600032Y298800D01*
X600000Y298686D01*
X599971Y298570D01*
X599946Y298454D01*
X599925Y298337D01*
X599908Y298219D01*
X599894Y298101D01*
X599885Y297982D01*
X599879Y297863D01*
X599877Y297744D01*
X601683Y300905D02*
X606651Y303615D01*
X593247Y294132D02*
X586022Y294132D01*
X593247Y294132D02*
X593247Y310388D01*
X586022Y310388D01*
X587829Y303163D02*
X593247Y303163D01*
X576778Y310388D02*
X576778Y294132D01*
X581293Y310388D02*
X572262Y310388D01*
X785986Y310388D02*
X785986Y294132D01*
X790502Y310388D02*
X781471Y310388D01*
X775913Y305872D02*
X775913Y298648D01*
X775913Y305872D02*
X775911Y306005D01*
X775905Y306137D01*
X775895Y306269D01*
X775882Y306401D01*
X775864Y306533D01*
X775843Y306663D01*
X775818Y306794D01*
X775789Y306923D01*
X775756Y307051D01*
X775720Y307179D01*
X775680Y307305D01*
X775636Y307430D01*
X775588Y307554D01*
X775537Y307676D01*
X775482Y307797D01*
X775424Y307916D01*
X775362Y308034D01*
X775297Y308149D01*
X775228Y308263D01*
X775157Y308374D01*
X775081Y308483D01*
X775003Y308590D01*
X774922Y308695D01*
X774837Y308797D01*
X774750Y308897D01*
X774660Y308994D01*
X774567Y309089D01*
X774471Y309180D01*
X774373Y309269D01*
X774272Y309355D01*
X774168Y309438D01*
X774062Y309518D01*
X773954Y309594D01*
X773844Y309668D01*
X773731Y309738D01*
X773617Y309805D01*
X773500Y309868D01*
X773382Y309928D01*
X773262Y309985D01*
X773140Y310038D01*
X773017Y310087D01*
X772893Y310133D01*
X772767Y310175D01*
X772640Y310213D01*
X772512Y310248D01*
X772383Y310279D01*
X772254Y310306D01*
X772123Y310329D01*
X771992Y310349D01*
X771860Y310364D01*
X771728Y310376D01*
X771596Y310384D01*
X771463Y310388D01*
X771331Y310388D01*
X771198Y310384D01*
X771066Y310376D01*
X770934Y310364D01*
X770802Y310349D01*
X770671Y310329D01*
X770540Y310306D01*
X770411Y310279D01*
X770282Y310248D01*
X770154Y310213D01*
X770027Y310175D01*
X769901Y310133D01*
X769777Y310087D01*
X769654Y310038D01*
X769532Y309985D01*
X769412Y309928D01*
X769294Y309868D01*
X769177Y309805D01*
X769063Y309738D01*
X768950Y309668D01*
X768840Y309594D01*
X768732Y309518D01*
X768626Y309438D01*
X768522Y309355D01*
X768421Y309269D01*
X768323Y309180D01*
X768227Y309089D01*
X768134Y308994D01*
X768044Y308897D01*
X767957Y308797D01*
X767872Y308695D01*
X767791Y308590D01*
X767713Y308483D01*
X767637Y308374D01*
X767566Y308263D01*
X767497Y308149D01*
X767432Y308034D01*
X767370Y307916D01*
X767312Y307797D01*
X767257Y307676D01*
X767206Y307554D01*
X767158Y307430D01*
X767114Y307305D01*
X767074Y307179D01*
X767038Y307051D01*
X767005Y306923D01*
X766976Y306794D01*
X766951Y306663D01*
X766930Y306533D01*
X766912Y306401D01*
X766899Y306269D01*
X766889Y306137D01*
X766883Y306005D01*
X766881Y305872D01*
X766882Y305872D02*
X766882Y298648D01*
X766881Y298648D02*
X766883Y298515D01*
X766889Y298383D01*
X766899Y298251D01*
X766912Y298119D01*
X766930Y297987D01*
X766951Y297857D01*
X766976Y297726D01*
X767005Y297597D01*
X767038Y297469D01*
X767074Y297341D01*
X767114Y297215D01*
X767158Y297090D01*
X767206Y296966D01*
X767257Y296844D01*
X767312Y296723D01*
X767370Y296604D01*
X767432Y296486D01*
X767497Y296371D01*
X767566Y296257D01*
X767637Y296146D01*
X767713Y296037D01*
X767791Y295930D01*
X767872Y295825D01*
X767957Y295723D01*
X768044Y295623D01*
X768134Y295526D01*
X768227Y295431D01*
X768323Y295340D01*
X768421Y295251D01*
X768522Y295165D01*
X768626Y295082D01*
X768732Y295002D01*
X768840Y294926D01*
X768950Y294852D01*
X769063Y294782D01*
X769177Y294715D01*
X769294Y294652D01*
X769412Y294592D01*
X769532Y294535D01*
X769654Y294482D01*
X769777Y294433D01*
X769901Y294387D01*
X770027Y294345D01*
X770154Y294307D01*
X770282Y294272D01*
X770411Y294241D01*
X770540Y294214D01*
X770671Y294191D01*
X770802Y294171D01*
X770934Y294156D01*
X771066Y294144D01*
X771198Y294136D01*
X771331Y294132D01*
X771463Y294132D01*
X771596Y294136D01*
X771728Y294144D01*
X771860Y294156D01*
X771992Y294171D01*
X772123Y294191D01*
X772254Y294214D01*
X772383Y294241D01*
X772512Y294272D01*
X772640Y294307D01*
X772767Y294345D01*
X772893Y294387D01*
X773017Y294433D01*
X773140Y294482D01*
X773262Y294535D01*
X773382Y294592D01*
X773500Y294652D01*
X773617Y294715D01*
X773731Y294782D01*
X773844Y294852D01*
X773954Y294926D01*
X774062Y295002D01*
X774168Y295082D01*
X774272Y295165D01*
X774373Y295251D01*
X774471Y295340D01*
X774567Y295431D01*
X774660Y295526D01*
X774750Y295623D01*
X774837Y295723D01*
X774922Y295825D01*
X775003Y295930D01*
X775081Y296037D01*
X775157Y296146D01*
X775228Y296257D01*
X775297Y296371D01*
X775362Y296486D01*
X775424Y296604D01*
X775482Y296723D01*
X775537Y296844D01*
X775588Y296966D01*
X775636Y297090D01*
X775680Y297215D01*
X775720Y297341D01*
X775756Y297469D01*
X775789Y297597D01*
X775818Y297726D01*
X775843Y297857D01*
X775864Y297987D01*
X775882Y298119D01*
X775895Y298251D01*
X775905Y298383D01*
X775911Y298515D01*
X775913Y298648D01*
X753439Y303163D02*
X750729Y303163D01*
X750729Y294132D01*
X756148Y294132D01*
X756266Y294134D01*
X756384Y294140D01*
X756502Y294149D01*
X756619Y294163D01*
X756736Y294180D01*
X756853Y294201D01*
X756968Y294226D01*
X757083Y294255D01*
X757197Y294288D01*
X757309Y294324D01*
X757420Y294364D01*
X757530Y294407D01*
X757639Y294454D01*
X757746Y294504D01*
X757851Y294559D01*
X757954Y294616D01*
X758055Y294677D01*
X758155Y294741D01*
X758252Y294808D01*
X758347Y294878D01*
X758439Y294952D01*
X758530Y295028D01*
X758617Y295108D01*
X758702Y295190D01*
X758784Y295275D01*
X758864Y295362D01*
X758940Y295453D01*
X759014Y295545D01*
X759084Y295640D01*
X759151Y295737D01*
X759215Y295837D01*
X759276Y295938D01*
X759333Y296041D01*
X759388Y296146D01*
X759438Y296253D01*
X759485Y296362D01*
X759528Y296472D01*
X759568Y296583D01*
X759604Y296695D01*
X759637Y296809D01*
X759666Y296924D01*
X759691Y297039D01*
X759712Y297156D01*
X759729Y297273D01*
X759743Y297390D01*
X759752Y297508D01*
X759758Y297626D01*
X759760Y297744D01*
X759760Y306776D01*
X759758Y306894D01*
X759752Y307012D01*
X759743Y307130D01*
X759729Y307247D01*
X759712Y307364D01*
X759691Y307481D01*
X759666Y307596D01*
X759637Y307711D01*
X759604Y307825D01*
X759568Y307937D01*
X759528Y308048D01*
X759485Y308158D01*
X759438Y308267D01*
X759388Y308374D01*
X759333Y308479D01*
X759276Y308582D01*
X759215Y308683D01*
X759151Y308783D01*
X759084Y308880D01*
X759014Y308975D01*
X758940Y309067D01*
X758864Y309158D01*
X758784Y309245D01*
X758702Y309330D01*
X758617Y309412D01*
X758530Y309492D01*
X758439Y309568D01*
X758347Y309642D01*
X758252Y309712D01*
X758155Y309779D01*
X758055Y309843D01*
X757954Y309904D01*
X757851Y309961D01*
X757746Y310016D01*
X757639Y310066D01*
X757530Y310113D01*
X757420Y310156D01*
X757309Y310196D01*
X757197Y310232D01*
X757083Y310265D01*
X756968Y310294D01*
X756853Y310319D01*
X756736Y310340D01*
X756619Y310357D01*
X756502Y310371D01*
X756384Y310380D01*
X756266Y310386D01*
X756148Y310388D01*
X750729Y310388D01*
X736765Y303163D02*
X734056Y303163D01*
X734056Y294132D01*
X739475Y294132D01*
X739593Y294134D01*
X739711Y294140D01*
X739829Y294149D01*
X739946Y294163D01*
X740063Y294180D01*
X740180Y294201D01*
X740295Y294226D01*
X740410Y294255D01*
X740524Y294288D01*
X740636Y294324D01*
X740747Y294364D01*
X740857Y294407D01*
X740966Y294454D01*
X741073Y294504D01*
X741178Y294559D01*
X741281Y294616D01*
X741382Y294677D01*
X741482Y294741D01*
X741579Y294808D01*
X741674Y294878D01*
X741766Y294952D01*
X741857Y295028D01*
X741944Y295108D01*
X742029Y295190D01*
X742111Y295275D01*
X742191Y295362D01*
X742267Y295453D01*
X742341Y295545D01*
X742411Y295640D01*
X742478Y295737D01*
X742542Y295837D01*
X742603Y295938D01*
X742660Y296041D01*
X742715Y296146D01*
X742765Y296253D01*
X742812Y296362D01*
X742855Y296472D01*
X742895Y296583D01*
X742931Y296695D01*
X742964Y296809D01*
X742993Y296924D01*
X743018Y297039D01*
X743039Y297156D01*
X743056Y297273D01*
X743070Y297390D01*
X743079Y297508D01*
X743085Y297626D01*
X743087Y297744D01*
X743087Y306776D01*
X743085Y306894D01*
X743079Y307012D01*
X743070Y307130D01*
X743056Y307247D01*
X743039Y307364D01*
X743018Y307481D01*
X742993Y307596D01*
X742964Y307711D01*
X742931Y307825D01*
X742895Y307937D01*
X742855Y308048D01*
X742812Y308158D01*
X742765Y308267D01*
X742715Y308374D01*
X742660Y308479D01*
X742603Y308582D01*
X742542Y308683D01*
X742478Y308783D01*
X742411Y308880D01*
X742341Y308975D01*
X742267Y309067D01*
X742191Y309158D01*
X742111Y309245D01*
X742029Y309330D01*
X741944Y309412D01*
X741857Y309492D01*
X741766Y309568D01*
X741674Y309642D01*
X741579Y309712D01*
X741482Y309779D01*
X741382Y309843D01*
X741281Y309904D01*
X741178Y309961D01*
X741073Y310016D01*
X740966Y310066D01*
X740857Y310113D01*
X740747Y310156D01*
X740636Y310196D01*
X740524Y310232D01*
X740410Y310265D01*
X740295Y310294D01*
X740180Y310319D01*
X740063Y310340D01*
X739946Y310357D01*
X739829Y310371D01*
X739711Y310380D01*
X739593Y310386D01*
X739475Y310388D01*
X734056Y310388D01*
X726384Y310388D02*
X726384Y294132D01*
X719159Y294132D01*
X712837Y294132D02*
X705612Y294132D01*
X712837Y294132D02*
X712837Y310388D01*
X705612Y310388D01*
X707418Y303163D02*
X712837Y303163D01*
X446290Y310388D02*
X446290Y294132D01*
X440871Y301357D02*
X446290Y310388D01*
X440871Y301357D02*
X435452Y310388D01*
X435452Y294132D01*
X428192Y298648D02*
X428192Y305872D01*
X428193Y305872D02*
X428191Y306005D01*
X428185Y306137D01*
X428175Y306269D01*
X428162Y306401D01*
X428144Y306533D01*
X428123Y306663D01*
X428098Y306794D01*
X428069Y306923D01*
X428036Y307051D01*
X428000Y307179D01*
X427960Y307305D01*
X427916Y307430D01*
X427868Y307554D01*
X427817Y307676D01*
X427762Y307797D01*
X427704Y307916D01*
X427642Y308034D01*
X427577Y308149D01*
X427508Y308263D01*
X427437Y308374D01*
X427361Y308483D01*
X427283Y308590D01*
X427202Y308695D01*
X427117Y308797D01*
X427030Y308897D01*
X426940Y308994D01*
X426847Y309089D01*
X426751Y309180D01*
X426653Y309269D01*
X426552Y309355D01*
X426448Y309438D01*
X426342Y309518D01*
X426234Y309594D01*
X426124Y309668D01*
X426011Y309738D01*
X425897Y309805D01*
X425780Y309868D01*
X425662Y309928D01*
X425542Y309985D01*
X425420Y310038D01*
X425297Y310087D01*
X425173Y310133D01*
X425047Y310175D01*
X424920Y310213D01*
X424792Y310248D01*
X424663Y310279D01*
X424534Y310306D01*
X424403Y310329D01*
X424272Y310349D01*
X424140Y310364D01*
X424008Y310376D01*
X423876Y310384D01*
X423743Y310388D01*
X423611Y310388D01*
X423478Y310384D01*
X423346Y310376D01*
X423214Y310364D01*
X423082Y310349D01*
X422951Y310329D01*
X422820Y310306D01*
X422691Y310279D01*
X422562Y310248D01*
X422434Y310213D01*
X422307Y310175D01*
X422181Y310133D01*
X422057Y310087D01*
X421934Y310038D01*
X421812Y309985D01*
X421692Y309928D01*
X421574Y309868D01*
X421457Y309805D01*
X421343Y309738D01*
X421230Y309668D01*
X421120Y309594D01*
X421012Y309518D01*
X420906Y309438D01*
X420802Y309355D01*
X420701Y309269D01*
X420603Y309180D01*
X420507Y309089D01*
X420414Y308994D01*
X420324Y308897D01*
X420237Y308797D01*
X420152Y308695D01*
X420071Y308590D01*
X419993Y308483D01*
X419917Y308374D01*
X419846Y308263D01*
X419777Y308149D01*
X419712Y308034D01*
X419650Y307916D01*
X419592Y307797D01*
X419537Y307676D01*
X419486Y307554D01*
X419438Y307430D01*
X419394Y307305D01*
X419354Y307179D01*
X419318Y307051D01*
X419285Y306923D01*
X419256Y306794D01*
X419231Y306663D01*
X419210Y306533D01*
X419192Y306401D01*
X419179Y306269D01*
X419169Y306137D01*
X419163Y306005D01*
X419161Y305872D01*
X419161Y298648D01*
X419163Y298515D01*
X419169Y298383D01*
X419179Y298251D01*
X419192Y298119D01*
X419210Y297987D01*
X419231Y297857D01*
X419256Y297726D01*
X419285Y297597D01*
X419318Y297469D01*
X419354Y297341D01*
X419394Y297215D01*
X419438Y297090D01*
X419486Y296966D01*
X419537Y296844D01*
X419592Y296723D01*
X419650Y296604D01*
X419712Y296486D01*
X419777Y296371D01*
X419846Y296257D01*
X419917Y296146D01*
X419993Y296037D01*
X420071Y295930D01*
X420152Y295825D01*
X420237Y295723D01*
X420324Y295623D01*
X420414Y295526D01*
X420507Y295431D01*
X420603Y295340D01*
X420701Y295251D01*
X420802Y295165D01*
X420906Y295082D01*
X421012Y295002D01*
X421120Y294926D01*
X421230Y294852D01*
X421343Y294782D01*
X421457Y294715D01*
X421574Y294652D01*
X421692Y294592D01*
X421812Y294535D01*
X421934Y294482D01*
X422057Y294433D01*
X422181Y294387D01*
X422307Y294345D01*
X422434Y294307D01*
X422562Y294272D01*
X422691Y294241D01*
X422820Y294214D01*
X422951Y294191D01*
X423082Y294171D01*
X423214Y294156D01*
X423346Y294144D01*
X423478Y294136D01*
X423611Y294132D01*
X423743Y294132D01*
X423876Y294136D01*
X424008Y294144D01*
X424140Y294156D01*
X424272Y294171D01*
X424403Y294191D01*
X424534Y294214D01*
X424663Y294241D01*
X424792Y294272D01*
X424920Y294307D01*
X425047Y294345D01*
X425173Y294387D01*
X425297Y294433D01*
X425420Y294482D01*
X425542Y294535D01*
X425662Y294592D01*
X425780Y294652D01*
X425897Y294715D01*
X426011Y294782D01*
X426124Y294852D01*
X426234Y294926D01*
X426342Y295002D01*
X426448Y295082D01*
X426552Y295165D01*
X426653Y295251D01*
X426751Y295340D01*
X426847Y295431D01*
X426940Y295526D01*
X427030Y295623D01*
X427117Y295723D01*
X427202Y295825D01*
X427283Y295930D01*
X427361Y296037D01*
X427437Y296146D01*
X427508Y296257D01*
X427577Y296371D01*
X427642Y296486D01*
X427704Y296604D01*
X427762Y296723D01*
X427817Y296844D01*
X427868Y296966D01*
X427916Y297090D01*
X427960Y297215D01*
X428000Y297341D01*
X428036Y297469D01*
X428069Y297597D01*
X428098Y297726D01*
X428123Y297857D01*
X428144Y297987D01*
X428162Y298119D01*
X428175Y298251D01*
X428185Y298383D01*
X428191Y298515D01*
X428193Y298648D01*
X412040Y294132D02*
X412040Y310388D01*
X407524Y310388D01*
X407393Y310386D01*
X407261Y310380D01*
X407130Y310371D01*
X407000Y310357D01*
X406869Y310340D01*
X406740Y310319D01*
X406611Y310295D01*
X406483Y310266D01*
X406355Y310234D01*
X406229Y310198D01*
X406104Y310159D01*
X405979Y310116D01*
X405857Y310069D01*
X405735Y310019D01*
X405615Y309965D01*
X405497Y309908D01*
X405381Y309847D01*
X405266Y309783D01*
X405153Y309716D01*
X405042Y309645D01*
X404934Y309571D01*
X404827Y309494D01*
X404723Y309414D01*
X404621Y309331D01*
X404522Y309246D01*
X404425Y309157D01*
X404331Y309065D01*
X404239Y308971D01*
X404150Y308874D01*
X404065Y308775D01*
X403982Y308673D01*
X403902Y308569D01*
X403825Y308462D01*
X403751Y308354D01*
X403680Y308243D01*
X403613Y308130D01*
X403549Y308015D01*
X403488Y307899D01*
X403431Y307781D01*
X403377Y307661D01*
X403327Y307539D01*
X403280Y307417D01*
X403237Y307292D01*
X403198Y307167D01*
X403162Y307041D01*
X403130Y306913D01*
X403101Y306785D01*
X403077Y306656D01*
X403056Y306527D01*
X403039Y306396D01*
X403025Y306266D01*
X403016Y306135D01*
X403010Y306003D01*
X403008Y305872D01*
X403009Y305872D02*
X403009Y298648D01*
X403008Y298648D02*
X403010Y298517D01*
X403016Y298385D01*
X403025Y298254D01*
X403039Y298124D01*
X403056Y297993D01*
X403077Y297864D01*
X403101Y297735D01*
X403130Y297607D01*
X403162Y297479D01*
X403198Y297353D01*
X403237Y297228D01*
X403280Y297103D01*
X403327Y296981D01*
X403377Y296859D01*
X403431Y296739D01*
X403488Y296621D01*
X403549Y296505D01*
X403613Y296390D01*
X403680Y296277D01*
X403751Y296166D01*
X403825Y296058D01*
X403902Y295951D01*
X403982Y295847D01*
X404065Y295745D01*
X404150Y295646D01*
X404239Y295549D01*
X404331Y295455D01*
X404425Y295363D01*
X404522Y295274D01*
X404621Y295189D01*
X404723Y295106D01*
X404827Y295026D01*
X404934Y294949D01*
X405042Y294875D01*
X405153Y294804D01*
X405266Y294737D01*
X405381Y294673D01*
X405497Y294612D01*
X405615Y294555D01*
X405735Y294501D01*
X405857Y294451D01*
X405979Y294404D01*
X406104Y294361D01*
X406229Y294322D01*
X406355Y294286D01*
X406483Y294254D01*
X406611Y294225D01*
X406740Y294201D01*
X406869Y294180D01*
X407000Y294163D01*
X407130Y294149D01*
X407261Y294140D01*
X407393Y294134D01*
X407524Y294132D01*
X412040Y294132D01*
X395337Y294132D02*
X388112Y294132D01*
X395337Y294132D02*
X395337Y310388D01*
X388112Y310388D01*
X389918Y303163D02*
X395337Y303163D01*
D11*
X655320Y298450D02*
X665480Y298450D01*
D12*
X647192Y311658D02*
X647192Y323342D01*
X643946Y323342D01*
X643833Y323340D01*
X643720Y323334D01*
X643607Y323324D01*
X643494Y323310D01*
X643382Y323293D01*
X643271Y323271D01*
X643161Y323246D01*
X643051Y323216D01*
X642943Y323183D01*
X642836Y323146D01*
X642730Y323106D01*
X642626Y323061D01*
X642523Y323013D01*
X642422Y322962D01*
X642323Y322907D01*
X642226Y322849D01*
X642131Y322787D01*
X642038Y322722D01*
X641948Y322654D01*
X641860Y322583D01*
X641774Y322508D01*
X641691Y322431D01*
X641611Y322351D01*
X641534Y322268D01*
X641459Y322182D01*
X641388Y322094D01*
X641320Y322004D01*
X641255Y321911D01*
X641193Y321816D01*
X641135Y321719D01*
X641080Y321620D01*
X641029Y321519D01*
X640981Y321416D01*
X640936Y321312D01*
X640896Y321206D01*
X640859Y321099D01*
X640826Y320991D01*
X640796Y320881D01*
X640771Y320771D01*
X640749Y320660D01*
X640732Y320548D01*
X640718Y320435D01*
X640708Y320322D01*
X640702Y320209D01*
X640700Y320096D01*
X640702Y319983D01*
X640708Y319870D01*
X640718Y319757D01*
X640732Y319644D01*
X640749Y319532D01*
X640771Y319421D01*
X640796Y319311D01*
X640826Y319201D01*
X640859Y319093D01*
X640896Y318986D01*
X640936Y318880D01*
X640981Y318776D01*
X641029Y318673D01*
X641080Y318572D01*
X641135Y318473D01*
X641193Y318376D01*
X641255Y318281D01*
X641320Y318188D01*
X641388Y318098D01*
X641459Y318010D01*
X641534Y317924D01*
X641611Y317841D01*
X641691Y317761D01*
X641774Y317684D01*
X641860Y317609D01*
X641948Y317538D01*
X642038Y317470D01*
X642131Y317405D01*
X642226Y317343D01*
X642323Y317285D01*
X642422Y317230D01*
X642523Y317179D01*
X642626Y317131D01*
X642730Y317086D01*
X642836Y317046D01*
X642943Y317009D01*
X643051Y316976D01*
X643161Y316946D01*
X643271Y316921D01*
X643382Y316899D01*
X643494Y316882D01*
X643607Y316868D01*
X643720Y316858D01*
X643833Y316852D01*
X643946Y316850D01*
X643946Y316851D02*
X647192Y316851D01*
X643297Y316851D02*
X640701Y311658D01*
X635836Y311658D02*
X632590Y311658D01*
X632477Y311660D01*
X632364Y311666D01*
X632251Y311676D01*
X632138Y311690D01*
X632026Y311707D01*
X631915Y311729D01*
X631805Y311754D01*
X631695Y311784D01*
X631587Y311817D01*
X631480Y311854D01*
X631374Y311894D01*
X631270Y311939D01*
X631167Y311987D01*
X631066Y312038D01*
X630967Y312093D01*
X630870Y312151D01*
X630775Y312213D01*
X630682Y312278D01*
X630592Y312346D01*
X630504Y312417D01*
X630418Y312492D01*
X630335Y312569D01*
X630255Y312649D01*
X630178Y312732D01*
X630103Y312818D01*
X630032Y312906D01*
X629964Y312996D01*
X629899Y313089D01*
X629837Y313184D01*
X629779Y313281D01*
X629724Y313380D01*
X629673Y313481D01*
X629625Y313584D01*
X629580Y313688D01*
X629540Y313794D01*
X629503Y313901D01*
X629470Y314009D01*
X629440Y314119D01*
X629415Y314229D01*
X629393Y314340D01*
X629376Y314452D01*
X629362Y314565D01*
X629352Y314678D01*
X629346Y314791D01*
X629344Y314904D01*
X629346Y315017D01*
X629352Y315130D01*
X629362Y315243D01*
X629376Y315356D01*
X629393Y315468D01*
X629415Y315579D01*
X629440Y315689D01*
X629470Y315799D01*
X629503Y315907D01*
X629540Y316014D01*
X629580Y316120D01*
X629625Y316224D01*
X629673Y316327D01*
X629724Y316428D01*
X629779Y316527D01*
X629837Y316624D01*
X629899Y316719D01*
X629964Y316812D01*
X630032Y316902D01*
X630103Y316990D01*
X630178Y317076D01*
X630255Y317159D01*
X630335Y317239D01*
X630418Y317316D01*
X630504Y317391D01*
X630592Y317462D01*
X630682Y317530D01*
X630775Y317595D01*
X630870Y317657D01*
X630967Y317715D01*
X631066Y317770D01*
X631167Y317821D01*
X631270Y317869D01*
X631374Y317914D01*
X631480Y317954D01*
X631587Y317991D01*
X631695Y318024D01*
X631805Y318054D01*
X631915Y318079D01*
X632026Y318101D01*
X632138Y318118D01*
X632251Y318132D01*
X632364Y318142D01*
X632477Y318148D01*
X632590Y318150D01*
X631941Y323342D02*
X635836Y323342D01*
X631941Y323342D02*
X631840Y323340D01*
X631740Y323334D01*
X631640Y323324D01*
X631540Y323311D01*
X631441Y323293D01*
X631342Y323272D01*
X631245Y323247D01*
X631148Y323218D01*
X631053Y323185D01*
X630959Y323149D01*
X630867Y323109D01*
X630776Y323066D01*
X630687Y323019D01*
X630600Y322969D01*
X630514Y322915D01*
X630431Y322858D01*
X630351Y322798D01*
X630272Y322735D01*
X630196Y322668D01*
X630123Y322599D01*
X630053Y322527D01*
X629985Y322453D01*
X629920Y322376D01*
X629859Y322296D01*
X629800Y322214D01*
X629745Y322130D01*
X629693Y322044D01*
X629644Y321956D01*
X629599Y321866D01*
X629557Y321774D01*
X629519Y321681D01*
X629485Y321586D01*
X629454Y321491D01*
X629427Y321394D01*
X629404Y321296D01*
X629384Y321197D01*
X629369Y321097D01*
X629357Y320997D01*
X629349Y320897D01*
X629345Y320796D01*
X629345Y320696D01*
X629349Y320595D01*
X629357Y320495D01*
X629369Y320395D01*
X629384Y320295D01*
X629404Y320196D01*
X629427Y320098D01*
X629454Y320001D01*
X629485Y319906D01*
X629519Y319811D01*
X629557Y319718D01*
X629599Y319626D01*
X629644Y319536D01*
X629693Y319448D01*
X629745Y319362D01*
X629800Y319278D01*
X629859Y319196D01*
X629920Y319116D01*
X629985Y319039D01*
X630053Y318965D01*
X630123Y318893D01*
X630196Y318824D01*
X630272Y318757D01*
X630351Y318694D01*
X630431Y318634D01*
X630514Y318577D01*
X630600Y318523D01*
X630687Y318473D01*
X630776Y318426D01*
X630867Y318383D01*
X630959Y318343D01*
X631053Y318307D01*
X631148Y318274D01*
X631245Y318245D01*
X631342Y318220D01*
X631441Y318199D01*
X631540Y318181D01*
X631640Y318168D01*
X631740Y318158D01*
X631840Y318152D01*
X631941Y318150D01*
X631941Y318149D02*
X634537Y318149D01*
D11*
X474980Y298450D02*
X464820Y298450D01*
D12*
X456692Y311658D02*
X456692Y323342D01*
X453446Y323342D01*
X453333Y323340D01*
X453220Y323334D01*
X453107Y323324D01*
X452994Y323310D01*
X452882Y323293D01*
X452771Y323271D01*
X452661Y323246D01*
X452551Y323216D01*
X452443Y323183D01*
X452336Y323146D01*
X452230Y323106D01*
X452126Y323061D01*
X452023Y323013D01*
X451922Y322962D01*
X451823Y322907D01*
X451726Y322849D01*
X451631Y322787D01*
X451538Y322722D01*
X451448Y322654D01*
X451360Y322583D01*
X451274Y322508D01*
X451191Y322431D01*
X451111Y322351D01*
X451034Y322268D01*
X450959Y322182D01*
X450888Y322094D01*
X450820Y322004D01*
X450755Y321911D01*
X450693Y321816D01*
X450635Y321719D01*
X450580Y321620D01*
X450529Y321519D01*
X450481Y321416D01*
X450436Y321312D01*
X450396Y321206D01*
X450359Y321099D01*
X450326Y320991D01*
X450296Y320881D01*
X450271Y320771D01*
X450249Y320660D01*
X450232Y320548D01*
X450218Y320435D01*
X450208Y320322D01*
X450202Y320209D01*
X450200Y320096D01*
X450202Y319983D01*
X450208Y319870D01*
X450218Y319757D01*
X450232Y319644D01*
X450249Y319532D01*
X450271Y319421D01*
X450296Y319311D01*
X450326Y319201D01*
X450359Y319093D01*
X450396Y318986D01*
X450436Y318880D01*
X450481Y318776D01*
X450529Y318673D01*
X450580Y318572D01*
X450635Y318473D01*
X450693Y318376D01*
X450755Y318281D01*
X450820Y318188D01*
X450888Y318098D01*
X450959Y318010D01*
X451034Y317924D01*
X451111Y317841D01*
X451191Y317761D01*
X451274Y317684D01*
X451360Y317609D01*
X451448Y317538D01*
X451538Y317470D01*
X451631Y317405D01*
X451726Y317343D01*
X451823Y317285D01*
X451922Y317230D01*
X452023Y317179D01*
X452126Y317131D01*
X452230Y317086D01*
X452336Y317046D01*
X452443Y317009D01*
X452551Y316976D01*
X452661Y316946D01*
X452771Y316921D01*
X452882Y316899D01*
X452994Y316882D01*
X453107Y316868D01*
X453220Y316858D01*
X453333Y316852D01*
X453446Y316850D01*
X453446Y316851D02*
X456692Y316851D01*
X452797Y316851D02*
X450201Y311658D01*
X445336Y314254D02*
X442739Y323342D01*
X445336Y314254D02*
X438845Y314254D01*
X440792Y316851D02*
X440792Y311658D01*
D11*
X322580Y298450D02*
X312420Y298450D01*
D12*
X304292Y305308D02*
X304292Y316992D01*
X301046Y316992D01*
X300933Y316990D01*
X300820Y316984D01*
X300707Y316974D01*
X300594Y316960D01*
X300482Y316943D01*
X300371Y316921D01*
X300261Y316896D01*
X300151Y316866D01*
X300043Y316833D01*
X299936Y316796D01*
X299830Y316756D01*
X299726Y316711D01*
X299623Y316663D01*
X299522Y316612D01*
X299423Y316557D01*
X299326Y316499D01*
X299231Y316437D01*
X299138Y316372D01*
X299048Y316304D01*
X298960Y316233D01*
X298874Y316158D01*
X298791Y316081D01*
X298711Y316001D01*
X298634Y315918D01*
X298559Y315832D01*
X298488Y315744D01*
X298420Y315654D01*
X298355Y315561D01*
X298293Y315466D01*
X298235Y315369D01*
X298180Y315270D01*
X298129Y315169D01*
X298081Y315066D01*
X298036Y314962D01*
X297996Y314856D01*
X297959Y314749D01*
X297926Y314641D01*
X297896Y314531D01*
X297871Y314421D01*
X297849Y314310D01*
X297832Y314198D01*
X297818Y314085D01*
X297808Y313972D01*
X297802Y313859D01*
X297800Y313746D01*
X297802Y313633D01*
X297808Y313520D01*
X297818Y313407D01*
X297832Y313294D01*
X297849Y313182D01*
X297871Y313071D01*
X297896Y312961D01*
X297926Y312851D01*
X297959Y312743D01*
X297996Y312636D01*
X298036Y312530D01*
X298081Y312426D01*
X298129Y312323D01*
X298180Y312222D01*
X298235Y312123D01*
X298293Y312026D01*
X298355Y311931D01*
X298420Y311838D01*
X298488Y311748D01*
X298559Y311660D01*
X298634Y311574D01*
X298711Y311491D01*
X298791Y311411D01*
X298874Y311334D01*
X298960Y311259D01*
X299048Y311188D01*
X299138Y311120D01*
X299231Y311055D01*
X299326Y310993D01*
X299423Y310935D01*
X299522Y310880D01*
X299623Y310829D01*
X299726Y310781D01*
X299830Y310736D01*
X299936Y310696D01*
X300043Y310659D01*
X300151Y310626D01*
X300261Y310596D01*
X300371Y310571D01*
X300482Y310549D01*
X300594Y310532D01*
X300707Y310518D01*
X300820Y310508D01*
X300933Y310502D01*
X301046Y310500D01*
X301046Y310501D02*
X304292Y310501D01*
X300397Y310501D02*
X297801Y305308D01*
X292936Y305308D02*
X289041Y305308D01*
X288942Y305310D01*
X288842Y305316D01*
X288743Y305325D01*
X288645Y305338D01*
X288547Y305355D01*
X288449Y305376D01*
X288353Y305401D01*
X288258Y305429D01*
X288164Y305461D01*
X288071Y305496D01*
X287979Y305535D01*
X287889Y305578D01*
X287801Y305623D01*
X287714Y305673D01*
X287630Y305725D01*
X287547Y305781D01*
X287467Y305839D01*
X287389Y305901D01*
X287314Y305966D01*
X287241Y306034D01*
X287171Y306104D01*
X287103Y306177D01*
X287038Y306252D01*
X286976Y306330D01*
X286918Y306410D01*
X286862Y306493D01*
X286810Y306577D01*
X286760Y306664D01*
X286715Y306752D01*
X286672Y306842D01*
X286633Y306934D01*
X286598Y307027D01*
X286566Y307121D01*
X286538Y307216D01*
X286513Y307312D01*
X286492Y307410D01*
X286475Y307508D01*
X286462Y307606D01*
X286453Y307705D01*
X286447Y307805D01*
X286445Y307904D01*
X286445Y309203D01*
X286447Y309302D01*
X286453Y309402D01*
X286462Y309501D01*
X286475Y309599D01*
X286492Y309697D01*
X286513Y309795D01*
X286538Y309891D01*
X286566Y309986D01*
X286598Y310080D01*
X286633Y310173D01*
X286672Y310265D01*
X286715Y310355D01*
X286760Y310443D01*
X286810Y310530D01*
X286862Y310614D01*
X286918Y310697D01*
X286976Y310777D01*
X287038Y310855D01*
X287103Y310930D01*
X287171Y311003D01*
X287241Y311073D01*
X287314Y311141D01*
X287389Y311206D01*
X287467Y311268D01*
X287547Y311326D01*
X287630Y311382D01*
X287714Y311434D01*
X287801Y311484D01*
X287889Y311529D01*
X287979Y311572D01*
X288071Y311611D01*
X288164Y311646D01*
X288258Y311678D01*
X288353Y311706D01*
X288449Y311731D01*
X288547Y311752D01*
X288645Y311769D01*
X288743Y311782D01*
X288842Y311791D01*
X288942Y311797D01*
X289041Y311799D01*
X292936Y311799D01*
X292936Y316992D01*
X286445Y316992D01*
D13*
X786600Y282250D02*
X786842Y282247D01*
X787083Y282238D01*
X787324Y282224D01*
X787565Y282203D01*
X787805Y282177D01*
X788045Y282145D01*
X788284Y282107D01*
X788521Y282064D01*
X788758Y282014D01*
X788993Y281959D01*
X789227Y281899D01*
X789459Y281832D01*
X789690Y281761D01*
X789919Y281683D01*
X790146Y281600D01*
X790371Y281512D01*
X790594Y281418D01*
X790814Y281319D01*
X791032Y281214D01*
X791247Y281105D01*
X791460Y280990D01*
X791670Y280870D01*
X791876Y280745D01*
X792080Y280615D01*
X792281Y280480D01*
X792478Y280340D01*
X792672Y280196D01*
X792862Y280047D01*
X793048Y279893D01*
X793231Y279735D01*
X793410Y279573D01*
X793585Y279406D01*
X793756Y279235D01*
X793923Y279060D01*
X794085Y278881D01*
X794243Y278698D01*
X794397Y278512D01*
X794546Y278322D01*
X794690Y278128D01*
X794830Y277931D01*
X794965Y277730D01*
X795095Y277526D01*
X795220Y277320D01*
X795340Y277110D01*
X795455Y276897D01*
X795564Y276682D01*
X795669Y276464D01*
X795768Y276244D01*
X795862Y276021D01*
X795950Y275796D01*
X796033Y275569D01*
X796111Y275340D01*
X796182Y275109D01*
X796249Y274877D01*
X796309Y274643D01*
X796364Y274408D01*
X796414Y274171D01*
X796457Y273934D01*
X796495Y273695D01*
X796527Y273455D01*
X796553Y273215D01*
X796574Y272974D01*
X796588Y272733D01*
X796597Y272492D01*
X796600Y272250D01*
X786600Y282250D02*
X686600Y282250D01*
X686358Y282247D01*
X686117Y282238D01*
X685876Y282224D01*
X685635Y282203D01*
X685395Y282177D01*
X685155Y282145D01*
X684916Y282107D01*
X684679Y282064D01*
X684442Y282014D01*
X684207Y281959D01*
X683973Y281899D01*
X683741Y281832D01*
X683510Y281761D01*
X683281Y281683D01*
X683054Y281600D01*
X682829Y281512D01*
X682606Y281418D01*
X682386Y281319D01*
X682168Y281214D01*
X681953Y281105D01*
X681740Y280990D01*
X681530Y280870D01*
X681324Y280745D01*
X681120Y280615D01*
X680919Y280480D01*
X680722Y280340D01*
X680528Y280196D01*
X680338Y280047D01*
X680152Y279893D01*
X679969Y279735D01*
X679790Y279573D01*
X679615Y279406D01*
X679444Y279235D01*
X679277Y279060D01*
X679115Y278881D01*
X678957Y278698D01*
X678803Y278512D01*
X678654Y278322D01*
X678510Y278128D01*
X678370Y277931D01*
X678235Y277730D01*
X678105Y277526D01*
X677980Y277320D01*
X677860Y277110D01*
X677745Y276897D01*
X677636Y276682D01*
X677531Y276464D01*
X677432Y276244D01*
X677338Y276021D01*
X677250Y275796D01*
X677167Y275569D01*
X677089Y275340D01*
X677018Y275109D01*
X676951Y274877D01*
X676891Y274643D01*
X676836Y274408D01*
X676786Y274171D01*
X676743Y273934D01*
X676705Y273695D01*
X676673Y273455D01*
X676647Y273215D01*
X676626Y272974D01*
X676612Y272733D01*
X676603Y272492D01*
X676600Y272250D01*
X676600Y172250D02*
X676603Y172008D01*
X676612Y171767D01*
X676626Y171526D01*
X676647Y171285D01*
X676673Y171045D01*
X676705Y170805D01*
X676743Y170566D01*
X676786Y170329D01*
X676836Y170092D01*
X676891Y169857D01*
X676951Y169623D01*
X677018Y169391D01*
X677089Y169160D01*
X677167Y168931D01*
X677250Y168704D01*
X677338Y168479D01*
X677432Y168256D01*
X677531Y168036D01*
X677636Y167818D01*
X677745Y167603D01*
X677860Y167390D01*
X677980Y167180D01*
X678105Y166974D01*
X678235Y166770D01*
X678370Y166569D01*
X678510Y166372D01*
X678654Y166178D01*
X678803Y165988D01*
X678957Y165802D01*
X679115Y165619D01*
X679277Y165440D01*
X679444Y165265D01*
X679615Y165094D01*
X679790Y164927D01*
X679969Y164765D01*
X680152Y164607D01*
X680338Y164453D01*
X680528Y164304D01*
X680722Y164160D01*
X680919Y164020D01*
X681120Y163885D01*
X681324Y163755D01*
X681530Y163630D01*
X681740Y163510D01*
X681953Y163395D01*
X682168Y163286D01*
X682386Y163181D01*
X682606Y163082D01*
X682829Y162988D01*
X683054Y162900D01*
X683281Y162817D01*
X683510Y162739D01*
X683741Y162668D01*
X683973Y162601D01*
X684207Y162541D01*
X684442Y162486D01*
X684679Y162436D01*
X684916Y162393D01*
X685155Y162355D01*
X685395Y162323D01*
X685635Y162297D01*
X685876Y162276D01*
X686117Y162262D01*
X686358Y162253D01*
X686600Y162250D01*
X786600Y162250D01*
X786842Y162253D01*
X787083Y162262D01*
X787324Y162276D01*
X787565Y162297D01*
X787805Y162323D01*
X788045Y162355D01*
X788284Y162393D01*
X788521Y162436D01*
X788758Y162486D01*
X788993Y162541D01*
X789227Y162601D01*
X789459Y162668D01*
X789690Y162739D01*
X789919Y162817D01*
X790146Y162900D01*
X790371Y162988D01*
X790594Y163082D01*
X790814Y163181D01*
X791032Y163286D01*
X791247Y163395D01*
X791460Y163510D01*
X791670Y163630D01*
X791876Y163755D01*
X792080Y163885D01*
X792281Y164020D01*
X792478Y164160D01*
X792672Y164304D01*
X792862Y164453D01*
X793048Y164607D01*
X793231Y164765D01*
X793410Y164927D01*
X793585Y165094D01*
X793756Y165265D01*
X793923Y165440D01*
X794085Y165619D01*
X794243Y165802D01*
X794397Y165988D01*
X794546Y166178D01*
X794690Y166372D01*
X794830Y166569D01*
X794965Y166770D01*
X795095Y166974D01*
X795220Y167180D01*
X795340Y167390D01*
X795455Y167603D01*
X795564Y167818D01*
X795669Y168036D01*
X795768Y168256D01*
X795862Y168479D01*
X795950Y168704D01*
X796033Y168931D01*
X796111Y169160D01*
X796182Y169391D01*
X796249Y169623D01*
X796309Y169857D01*
X796364Y170092D01*
X796414Y170329D01*
X796457Y170566D01*
X796495Y170805D01*
X796527Y171045D01*
X796553Y171285D01*
X796574Y171526D01*
X796588Y171767D01*
X796597Y172008D01*
X796600Y172250D01*
X701245Y222250D02*
X701256Y223118D01*
X701288Y223985D01*
X701341Y224851D01*
X701415Y225715D01*
X701511Y226578D01*
X701628Y227438D01*
X701766Y228294D01*
X701924Y229147D01*
X702104Y229996D01*
X702305Y230841D01*
X702526Y231680D01*
X702767Y232513D01*
X703029Y233340D01*
X703312Y234161D01*
X703614Y234974D01*
X703936Y235780D01*
X704278Y236577D01*
X704639Y237366D01*
X705020Y238146D01*
X705420Y238916D01*
X705838Y239676D01*
X706275Y240426D01*
X706730Y241165D01*
X707203Y241892D01*
X707694Y242608D01*
X708203Y243311D01*
X708728Y244002D01*
X709270Y244679D01*
X709829Y245343D01*
X710404Y245993D01*
X710994Y246629D01*
X711600Y247250D01*
X712221Y247856D01*
X712857Y248446D01*
X713507Y249021D01*
X714171Y249580D01*
X714848Y250122D01*
X715539Y250647D01*
X716242Y251156D01*
X716958Y251647D01*
X717685Y252120D01*
X718424Y252575D01*
X719174Y253012D01*
X719934Y253430D01*
X720704Y253830D01*
X721484Y254211D01*
X722273Y254572D01*
X723070Y254914D01*
X723876Y255236D01*
X724689Y255538D01*
X725510Y255821D01*
X726337Y256083D01*
X727170Y256324D01*
X728009Y256545D01*
X728854Y256746D01*
X729703Y256926D01*
X730556Y257084D01*
X731412Y257222D01*
X732272Y257339D01*
X733135Y257435D01*
X733999Y257509D01*
X734865Y257562D01*
X735732Y257594D01*
X736600Y257605D01*
X737468Y257594D01*
X738335Y257562D01*
X739201Y257509D01*
X740065Y257435D01*
X740928Y257339D01*
X741788Y257222D01*
X742644Y257084D01*
X743497Y256926D01*
X744346Y256746D01*
X745191Y256545D01*
X746030Y256324D01*
X746863Y256083D01*
X747690Y255821D01*
X748511Y255538D01*
X749324Y255236D01*
X750130Y254914D01*
X750927Y254572D01*
X751716Y254211D01*
X752496Y253830D01*
X753266Y253430D01*
X754026Y253012D01*
X754776Y252575D01*
X755515Y252120D01*
X756242Y251647D01*
X756958Y251156D01*
X757661Y250647D01*
X758352Y250122D01*
X759029Y249580D01*
X759693Y249021D01*
X760343Y248446D01*
X760979Y247856D01*
X761600Y247250D01*
X762206Y246629D01*
X762796Y245993D01*
X763371Y245343D01*
X763930Y244679D01*
X764472Y244002D01*
X764997Y243311D01*
X765506Y242608D01*
X765997Y241892D01*
X766470Y241165D01*
X766925Y240426D01*
X767362Y239676D01*
X767780Y238916D01*
X768180Y238146D01*
X768561Y237366D01*
X768922Y236577D01*
X769264Y235780D01*
X769586Y234974D01*
X769888Y234161D01*
X770171Y233340D01*
X770433Y232513D01*
X770674Y231680D01*
X770895Y230841D01*
X771096Y229996D01*
X771276Y229147D01*
X771434Y228294D01*
X771572Y227438D01*
X771689Y226578D01*
X771785Y225715D01*
X771859Y224851D01*
X771912Y223985D01*
X771944Y223118D01*
X771955Y222250D01*
X771944Y221382D01*
X771912Y220515D01*
X771859Y219649D01*
X771785Y218785D01*
X771689Y217922D01*
X771572Y217062D01*
X771434Y216206D01*
X771276Y215353D01*
X771096Y214504D01*
X770895Y213659D01*
X770674Y212820D01*
X770433Y211987D01*
X770171Y211160D01*
X769888Y210339D01*
X769586Y209526D01*
X769264Y208720D01*
X768922Y207923D01*
X768561Y207134D01*
X768180Y206354D01*
X767780Y205584D01*
X767362Y204824D01*
X766925Y204074D01*
X766470Y203335D01*
X765997Y202608D01*
X765506Y201892D01*
X764997Y201189D01*
X764472Y200498D01*
X763930Y199821D01*
X763371Y199157D01*
X762796Y198507D01*
X762206Y197871D01*
X761600Y197250D01*
X760979Y196644D01*
X760343Y196054D01*
X759693Y195479D01*
X759029Y194920D01*
X758352Y194378D01*
X757661Y193853D01*
X756958Y193344D01*
X756242Y192853D01*
X755515Y192380D01*
X754776Y191925D01*
X754026Y191488D01*
X753266Y191070D01*
X752496Y190670D01*
X751716Y190289D01*
X750927Y189928D01*
X750130Y189586D01*
X749324Y189264D01*
X748511Y188962D01*
X747690Y188679D01*
X746863Y188417D01*
X746030Y188176D01*
X745191Y187955D01*
X744346Y187754D01*
X743497Y187574D01*
X742644Y187416D01*
X741788Y187278D01*
X740928Y187161D01*
X740065Y187065D01*
X739201Y186991D01*
X738335Y186938D01*
X737468Y186906D01*
X736600Y186895D01*
X735732Y186906D01*
X734865Y186938D01*
X733999Y186991D01*
X733135Y187065D01*
X732272Y187161D01*
X731412Y187278D01*
X730556Y187416D01*
X729703Y187574D01*
X728854Y187754D01*
X728009Y187955D01*
X727170Y188176D01*
X726337Y188417D01*
X725510Y188679D01*
X724689Y188962D01*
X723876Y189264D01*
X723070Y189586D01*
X722273Y189928D01*
X721484Y190289D01*
X720704Y190670D01*
X719934Y191070D01*
X719174Y191488D01*
X718424Y191925D01*
X717685Y192380D01*
X716958Y192853D01*
X716242Y193344D01*
X715539Y193853D01*
X714848Y194378D01*
X714171Y194920D01*
X713507Y195479D01*
X712857Y196054D01*
X712221Y196644D01*
X711600Y197250D01*
X710994Y197871D01*
X710404Y198507D01*
X709829Y199157D01*
X709270Y199821D01*
X708728Y200498D01*
X708203Y201189D01*
X707694Y201892D01*
X707203Y202608D01*
X706730Y203335D01*
X706275Y204074D01*
X705838Y204824D01*
X705420Y205584D01*
X705020Y206354D01*
X704639Y207134D01*
X704278Y207923D01*
X703936Y208720D01*
X703614Y209526D01*
X703312Y210339D01*
X703029Y211160D01*
X702767Y211987D01*
X702526Y212820D01*
X702305Y213659D01*
X702104Y214504D01*
X701924Y215353D01*
X701766Y216206D01*
X701628Y217062D01*
X701511Y217922D01*
X701415Y218785D01*
X701341Y219649D01*
X701288Y220515D01*
X701256Y221382D01*
X701245Y222250D01*
X716600Y202250D02*
X756600Y202250D01*
X756600Y242250D01*
X716600Y242250D01*
X716600Y202250D01*
X676600Y184750D02*
X676600Y172250D01*
X676600Y209750D02*
X676600Y234750D01*
X676600Y259750D02*
X676600Y272250D01*
X796600Y184750D02*
X796600Y172250D01*
X796600Y209750D02*
X796600Y234750D01*
X796600Y259750D02*
X796600Y272250D01*
D12*
X711835Y149154D02*
X711837Y149055D01*
X711843Y148955D01*
X711852Y148856D01*
X711865Y148758D01*
X711882Y148660D01*
X711903Y148562D01*
X711928Y148466D01*
X711956Y148371D01*
X711988Y148277D01*
X712023Y148184D01*
X712062Y148092D01*
X712105Y148002D01*
X712150Y147914D01*
X712200Y147827D01*
X712252Y147743D01*
X712308Y147660D01*
X712366Y147580D01*
X712428Y147502D01*
X712493Y147427D01*
X712561Y147354D01*
X712631Y147284D01*
X712704Y147216D01*
X712779Y147151D01*
X712857Y147089D01*
X712937Y147031D01*
X713020Y146975D01*
X713104Y146923D01*
X713191Y146873D01*
X713279Y146828D01*
X713369Y146785D01*
X713461Y146746D01*
X713554Y146711D01*
X713648Y146679D01*
X713743Y146651D01*
X713839Y146626D01*
X713937Y146605D01*
X714035Y146588D01*
X714133Y146575D01*
X714232Y146566D01*
X714332Y146560D01*
X714431Y146558D01*
X714575Y146560D01*
X714720Y146566D01*
X714864Y146575D01*
X715007Y146588D01*
X715151Y146605D01*
X715294Y146626D01*
X715436Y146651D01*
X715577Y146679D01*
X715718Y146711D01*
X715858Y146747D01*
X715997Y146786D01*
X716135Y146829D01*
X716271Y146876D01*
X716407Y146926D01*
X716541Y146980D01*
X716673Y147037D01*
X716804Y147098D01*
X716933Y147162D01*
X717061Y147230D01*
X717187Y147301D01*
X717311Y147375D01*
X717432Y147452D01*
X717552Y147533D01*
X717670Y147616D01*
X717785Y147703D01*
X717898Y147793D01*
X718009Y147886D01*
X718117Y147981D01*
X718223Y148080D01*
X718326Y148181D01*
X718001Y155646D02*
X717999Y155745D01*
X717993Y155845D01*
X717984Y155944D01*
X717971Y156042D01*
X717954Y156140D01*
X717933Y156238D01*
X717908Y156334D01*
X717880Y156429D01*
X717848Y156523D01*
X717813Y156616D01*
X717774Y156708D01*
X717731Y156798D01*
X717686Y156886D01*
X717636Y156973D01*
X717584Y157057D01*
X717528Y157140D01*
X717470Y157220D01*
X717408Y157298D01*
X717343Y157373D01*
X717275Y157446D01*
X717205Y157516D01*
X717132Y157584D01*
X717057Y157649D01*
X716979Y157711D01*
X716899Y157769D01*
X716816Y157825D01*
X716732Y157877D01*
X716645Y157927D01*
X716557Y157972D01*
X716467Y158015D01*
X716375Y158054D01*
X716282Y158089D01*
X716188Y158121D01*
X716093Y158149D01*
X715997Y158174D01*
X715899Y158195D01*
X715801Y158212D01*
X715703Y158225D01*
X715604Y158234D01*
X715504Y158240D01*
X715405Y158242D01*
X715269Y158240D01*
X715133Y158234D01*
X714997Y158225D01*
X714861Y158212D01*
X714726Y158194D01*
X714592Y158174D01*
X714458Y158149D01*
X714324Y158121D01*
X714192Y158088D01*
X714061Y158053D01*
X713930Y158013D01*
X713801Y157970D01*
X713673Y157924D01*
X713547Y157873D01*
X713421Y157820D01*
X713298Y157762D01*
X713176Y157702D01*
X713056Y157638D01*
X712937Y157570D01*
X712821Y157500D01*
X712707Y157426D01*
X712594Y157349D01*
X712484Y157268D01*
X716704Y153374D02*
X716790Y153427D01*
X716874Y153484D01*
X716956Y153543D01*
X717036Y153606D01*
X717113Y153672D01*
X717188Y153740D01*
X717260Y153812D01*
X717329Y153886D01*
X717395Y153963D01*
X717458Y154042D01*
X717518Y154124D01*
X717575Y154208D01*
X717629Y154294D01*
X717679Y154382D01*
X717726Y154472D01*
X717770Y154563D01*
X717809Y154657D01*
X717846Y154751D01*
X717878Y154847D01*
X717907Y154945D01*
X717932Y155043D01*
X717953Y155142D01*
X717971Y155242D01*
X717984Y155342D01*
X717994Y155443D01*
X718000Y155545D01*
X718002Y155646D01*
X713133Y151426D02*
X713047Y151373D01*
X712963Y151316D01*
X712881Y151257D01*
X712801Y151194D01*
X712724Y151128D01*
X712649Y151060D01*
X712577Y150988D01*
X712508Y150914D01*
X712442Y150837D01*
X712379Y150758D01*
X712319Y150676D01*
X712262Y150592D01*
X712208Y150506D01*
X712158Y150418D01*
X712111Y150328D01*
X712067Y150237D01*
X712028Y150143D01*
X711991Y150049D01*
X711959Y149953D01*
X711930Y149855D01*
X711905Y149757D01*
X711884Y149658D01*
X711866Y149558D01*
X711853Y149458D01*
X711843Y149357D01*
X711837Y149255D01*
X711835Y149154D01*
X713133Y151426D02*
X716703Y153374D01*
X707700Y158242D02*
X705104Y146558D01*
X702508Y154347D01*
X699911Y146558D01*
X697315Y158242D01*
X692799Y155646D02*
X689554Y158242D01*
X689554Y146558D01*
X692799Y146558D02*
X686308Y146558D01*
D13*
X631500Y272250D02*
X631497Y272492D01*
X631488Y272733D01*
X631474Y272974D01*
X631453Y273215D01*
X631427Y273455D01*
X631395Y273695D01*
X631357Y273934D01*
X631314Y274171D01*
X631264Y274408D01*
X631209Y274643D01*
X631149Y274877D01*
X631082Y275109D01*
X631011Y275340D01*
X630933Y275569D01*
X630850Y275796D01*
X630762Y276021D01*
X630668Y276244D01*
X630569Y276464D01*
X630464Y276682D01*
X630355Y276897D01*
X630240Y277110D01*
X630120Y277320D01*
X629995Y277526D01*
X629865Y277730D01*
X629730Y277931D01*
X629590Y278128D01*
X629446Y278322D01*
X629297Y278512D01*
X629143Y278698D01*
X628985Y278881D01*
X628823Y279060D01*
X628656Y279235D01*
X628485Y279406D01*
X628310Y279573D01*
X628131Y279735D01*
X627948Y279893D01*
X627762Y280047D01*
X627572Y280196D01*
X627378Y280340D01*
X627181Y280480D01*
X626980Y280615D01*
X626776Y280745D01*
X626570Y280870D01*
X626360Y280990D01*
X626147Y281105D01*
X625932Y281214D01*
X625714Y281319D01*
X625494Y281418D01*
X625271Y281512D01*
X625046Y281600D01*
X624819Y281683D01*
X624590Y281761D01*
X624359Y281832D01*
X624127Y281899D01*
X623893Y281959D01*
X623658Y282014D01*
X623421Y282064D01*
X623184Y282107D01*
X622945Y282145D01*
X622705Y282177D01*
X622465Y282203D01*
X622224Y282224D01*
X621983Y282238D01*
X621742Y282247D01*
X621500Y282250D01*
X521500Y282250D01*
X521258Y282247D01*
X521017Y282238D01*
X520776Y282224D01*
X520535Y282203D01*
X520295Y282177D01*
X520055Y282145D01*
X519816Y282107D01*
X519579Y282064D01*
X519342Y282014D01*
X519107Y281959D01*
X518873Y281899D01*
X518641Y281832D01*
X518410Y281761D01*
X518181Y281683D01*
X517954Y281600D01*
X517729Y281512D01*
X517506Y281418D01*
X517286Y281319D01*
X517068Y281214D01*
X516853Y281105D01*
X516640Y280990D01*
X516430Y280870D01*
X516224Y280745D01*
X516020Y280615D01*
X515819Y280480D01*
X515622Y280340D01*
X515428Y280196D01*
X515238Y280047D01*
X515052Y279893D01*
X514869Y279735D01*
X514690Y279573D01*
X514515Y279406D01*
X514344Y279235D01*
X514177Y279060D01*
X514015Y278881D01*
X513857Y278698D01*
X513703Y278512D01*
X513554Y278322D01*
X513410Y278128D01*
X513270Y277931D01*
X513135Y277730D01*
X513005Y277526D01*
X512880Y277320D01*
X512760Y277110D01*
X512645Y276897D01*
X512536Y276682D01*
X512431Y276464D01*
X512332Y276244D01*
X512238Y276021D01*
X512150Y275796D01*
X512067Y275569D01*
X511989Y275340D01*
X511918Y275109D01*
X511851Y274877D01*
X511791Y274643D01*
X511736Y274408D01*
X511686Y274171D01*
X511643Y273934D01*
X511605Y273695D01*
X511573Y273455D01*
X511547Y273215D01*
X511526Y272974D01*
X511512Y272733D01*
X511503Y272492D01*
X511500Y272250D01*
X511500Y172250D02*
X511503Y172008D01*
X511512Y171767D01*
X511526Y171526D01*
X511547Y171285D01*
X511573Y171045D01*
X511605Y170805D01*
X511643Y170566D01*
X511686Y170329D01*
X511736Y170092D01*
X511791Y169857D01*
X511851Y169623D01*
X511918Y169391D01*
X511989Y169160D01*
X512067Y168931D01*
X512150Y168704D01*
X512238Y168479D01*
X512332Y168256D01*
X512431Y168036D01*
X512536Y167818D01*
X512645Y167603D01*
X512760Y167390D01*
X512880Y167180D01*
X513005Y166974D01*
X513135Y166770D01*
X513270Y166569D01*
X513410Y166372D01*
X513554Y166178D01*
X513703Y165988D01*
X513857Y165802D01*
X514015Y165619D01*
X514177Y165440D01*
X514344Y165265D01*
X514515Y165094D01*
X514690Y164927D01*
X514869Y164765D01*
X515052Y164607D01*
X515238Y164453D01*
X515428Y164304D01*
X515622Y164160D01*
X515819Y164020D01*
X516020Y163885D01*
X516224Y163755D01*
X516430Y163630D01*
X516640Y163510D01*
X516853Y163395D01*
X517068Y163286D01*
X517286Y163181D01*
X517506Y163082D01*
X517729Y162988D01*
X517954Y162900D01*
X518181Y162817D01*
X518410Y162739D01*
X518641Y162668D01*
X518873Y162601D01*
X519107Y162541D01*
X519342Y162486D01*
X519579Y162436D01*
X519816Y162393D01*
X520055Y162355D01*
X520295Y162323D01*
X520535Y162297D01*
X520776Y162276D01*
X521017Y162262D01*
X521258Y162253D01*
X521500Y162250D01*
X621500Y162250D01*
X621742Y162253D01*
X621983Y162262D01*
X622224Y162276D01*
X622465Y162297D01*
X622705Y162323D01*
X622945Y162355D01*
X623184Y162393D01*
X623421Y162436D01*
X623658Y162486D01*
X623893Y162541D01*
X624127Y162601D01*
X624359Y162668D01*
X624590Y162739D01*
X624819Y162817D01*
X625046Y162900D01*
X625271Y162988D01*
X625494Y163082D01*
X625714Y163181D01*
X625932Y163286D01*
X626147Y163395D01*
X626360Y163510D01*
X626570Y163630D01*
X626776Y163755D01*
X626980Y163885D01*
X627181Y164020D01*
X627378Y164160D01*
X627572Y164304D01*
X627762Y164453D01*
X627948Y164607D01*
X628131Y164765D01*
X628310Y164927D01*
X628485Y165094D01*
X628656Y165265D01*
X628823Y165440D01*
X628985Y165619D01*
X629143Y165802D01*
X629297Y165988D01*
X629446Y166178D01*
X629590Y166372D01*
X629730Y166569D01*
X629865Y166770D01*
X629995Y166974D01*
X630120Y167180D01*
X630240Y167390D01*
X630355Y167603D01*
X630464Y167818D01*
X630569Y168036D01*
X630668Y168256D01*
X630762Y168479D01*
X630850Y168704D01*
X630933Y168931D01*
X631011Y169160D01*
X631082Y169391D01*
X631149Y169623D01*
X631209Y169857D01*
X631264Y170092D01*
X631314Y170329D01*
X631357Y170566D01*
X631395Y170805D01*
X631427Y171045D01*
X631453Y171285D01*
X631474Y171526D01*
X631488Y171767D01*
X631497Y172008D01*
X631500Y172250D01*
X536145Y222250D02*
X536156Y223118D01*
X536188Y223985D01*
X536241Y224851D01*
X536315Y225715D01*
X536411Y226578D01*
X536528Y227438D01*
X536666Y228294D01*
X536824Y229147D01*
X537004Y229996D01*
X537205Y230841D01*
X537426Y231680D01*
X537667Y232513D01*
X537929Y233340D01*
X538212Y234161D01*
X538514Y234974D01*
X538836Y235780D01*
X539178Y236577D01*
X539539Y237366D01*
X539920Y238146D01*
X540320Y238916D01*
X540738Y239676D01*
X541175Y240426D01*
X541630Y241165D01*
X542103Y241892D01*
X542594Y242608D01*
X543103Y243311D01*
X543628Y244002D01*
X544170Y244679D01*
X544729Y245343D01*
X545304Y245993D01*
X545894Y246629D01*
X546500Y247250D01*
X547121Y247856D01*
X547757Y248446D01*
X548407Y249021D01*
X549071Y249580D01*
X549748Y250122D01*
X550439Y250647D01*
X551142Y251156D01*
X551858Y251647D01*
X552585Y252120D01*
X553324Y252575D01*
X554074Y253012D01*
X554834Y253430D01*
X555604Y253830D01*
X556384Y254211D01*
X557173Y254572D01*
X557970Y254914D01*
X558776Y255236D01*
X559589Y255538D01*
X560410Y255821D01*
X561237Y256083D01*
X562070Y256324D01*
X562909Y256545D01*
X563754Y256746D01*
X564603Y256926D01*
X565456Y257084D01*
X566312Y257222D01*
X567172Y257339D01*
X568035Y257435D01*
X568899Y257509D01*
X569765Y257562D01*
X570632Y257594D01*
X571500Y257605D01*
X572368Y257594D01*
X573235Y257562D01*
X574101Y257509D01*
X574965Y257435D01*
X575828Y257339D01*
X576688Y257222D01*
X577544Y257084D01*
X578397Y256926D01*
X579246Y256746D01*
X580091Y256545D01*
X580930Y256324D01*
X581763Y256083D01*
X582590Y255821D01*
X583411Y255538D01*
X584224Y255236D01*
X585030Y254914D01*
X585827Y254572D01*
X586616Y254211D01*
X587396Y253830D01*
X588166Y253430D01*
X588926Y253012D01*
X589676Y252575D01*
X590415Y252120D01*
X591142Y251647D01*
X591858Y251156D01*
X592561Y250647D01*
X593252Y250122D01*
X593929Y249580D01*
X594593Y249021D01*
X595243Y248446D01*
X595879Y247856D01*
X596500Y247250D01*
X597106Y246629D01*
X597696Y245993D01*
X598271Y245343D01*
X598830Y244679D01*
X599372Y244002D01*
X599897Y243311D01*
X600406Y242608D01*
X600897Y241892D01*
X601370Y241165D01*
X601825Y240426D01*
X602262Y239676D01*
X602680Y238916D01*
X603080Y238146D01*
X603461Y237366D01*
X603822Y236577D01*
X604164Y235780D01*
X604486Y234974D01*
X604788Y234161D01*
X605071Y233340D01*
X605333Y232513D01*
X605574Y231680D01*
X605795Y230841D01*
X605996Y229996D01*
X606176Y229147D01*
X606334Y228294D01*
X606472Y227438D01*
X606589Y226578D01*
X606685Y225715D01*
X606759Y224851D01*
X606812Y223985D01*
X606844Y223118D01*
X606855Y222250D01*
X606844Y221382D01*
X606812Y220515D01*
X606759Y219649D01*
X606685Y218785D01*
X606589Y217922D01*
X606472Y217062D01*
X606334Y216206D01*
X606176Y215353D01*
X605996Y214504D01*
X605795Y213659D01*
X605574Y212820D01*
X605333Y211987D01*
X605071Y211160D01*
X604788Y210339D01*
X604486Y209526D01*
X604164Y208720D01*
X603822Y207923D01*
X603461Y207134D01*
X603080Y206354D01*
X602680Y205584D01*
X602262Y204824D01*
X601825Y204074D01*
X601370Y203335D01*
X600897Y202608D01*
X600406Y201892D01*
X599897Y201189D01*
X599372Y200498D01*
X598830Y199821D01*
X598271Y199157D01*
X597696Y198507D01*
X597106Y197871D01*
X596500Y197250D01*
X595879Y196644D01*
X595243Y196054D01*
X594593Y195479D01*
X593929Y194920D01*
X593252Y194378D01*
X592561Y193853D01*
X591858Y193344D01*
X591142Y192853D01*
X590415Y192380D01*
X589676Y191925D01*
X588926Y191488D01*
X588166Y191070D01*
X587396Y190670D01*
X586616Y190289D01*
X585827Y189928D01*
X585030Y189586D01*
X584224Y189264D01*
X583411Y188962D01*
X582590Y188679D01*
X581763Y188417D01*
X580930Y188176D01*
X580091Y187955D01*
X579246Y187754D01*
X578397Y187574D01*
X577544Y187416D01*
X576688Y187278D01*
X575828Y187161D01*
X574965Y187065D01*
X574101Y186991D01*
X573235Y186938D01*
X572368Y186906D01*
X571500Y186895D01*
X570632Y186906D01*
X569765Y186938D01*
X568899Y186991D01*
X568035Y187065D01*
X567172Y187161D01*
X566312Y187278D01*
X565456Y187416D01*
X564603Y187574D01*
X563754Y187754D01*
X562909Y187955D01*
X562070Y188176D01*
X561237Y188417D01*
X560410Y188679D01*
X559589Y188962D01*
X558776Y189264D01*
X557970Y189586D01*
X557173Y189928D01*
X556384Y190289D01*
X555604Y190670D01*
X554834Y191070D01*
X554074Y191488D01*
X553324Y191925D01*
X552585Y192380D01*
X551858Y192853D01*
X551142Y193344D01*
X550439Y193853D01*
X549748Y194378D01*
X549071Y194920D01*
X548407Y195479D01*
X547757Y196054D01*
X547121Y196644D01*
X546500Y197250D01*
X545894Y197871D01*
X545304Y198507D01*
X544729Y199157D01*
X544170Y199821D01*
X543628Y200498D01*
X543103Y201189D01*
X542594Y201892D01*
X542103Y202608D01*
X541630Y203335D01*
X541175Y204074D01*
X540738Y204824D01*
X540320Y205584D01*
X539920Y206354D01*
X539539Y207134D01*
X539178Y207923D01*
X538836Y208720D01*
X538514Y209526D01*
X538212Y210339D01*
X537929Y211160D01*
X537667Y211987D01*
X537426Y212820D01*
X537205Y213659D01*
X537004Y214504D01*
X536824Y215353D01*
X536666Y216206D01*
X536528Y217062D01*
X536411Y217922D01*
X536315Y218785D01*
X536241Y219649D01*
X536188Y220515D01*
X536156Y221382D01*
X536145Y222250D01*
X551500Y202250D02*
X591500Y202250D01*
X591500Y242250D01*
X551500Y242250D01*
X551500Y202250D01*
X511500Y184750D02*
X511500Y172250D01*
X511500Y209750D02*
X511500Y234750D01*
X511500Y259750D02*
X511500Y272250D01*
X631500Y184750D02*
X631500Y172250D01*
X631500Y209750D02*
X631500Y234750D01*
X631500Y259750D02*
X631500Y272250D01*
D12*
X546735Y149154D02*
X546737Y149055D01*
X546743Y148955D01*
X546752Y148856D01*
X546765Y148758D01*
X546782Y148660D01*
X546803Y148562D01*
X546828Y148466D01*
X546856Y148371D01*
X546888Y148277D01*
X546923Y148184D01*
X546962Y148092D01*
X547005Y148002D01*
X547050Y147914D01*
X547100Y147827D01*
X547152Y147743D01*
X547208Y147660D01*
X547266Y147580D01*
X547328Y147502D01*
X547393Y147427D01*
X547461Y147354D01*
X547531Y147284D01*
X547604Y147216D01*
X547679Y147151D01*
X547757Y147089D01*
X547837Y147031D01*
X547920Y146975D01*
X548004Y146923D01*
X548091Y146873D01*
X548179Y146828D01*
X548269Y146785D01*
X548361Y146746D01*
X548454Y146711D01*
X548548Y146679D01*
X548643Y146651D01*
X548739Y146626D01*
X548837Y146605D01*
X548935Y146588D01*
X549033Y146575D01*
X549132Y146566D01*
X549232Y146560D01*
X549331Y146558D01*
X549475Y146560D01*
X549620Y146566D01*
X549764Y146575D01*
X549907Y146588D01*
X550051Y146605D01*
X550194Y146626D01*
X550336Y146651D01*
X550477Y146679D01*
X550618Y146711D01*
X550758Y146747D01*
X550897Y146786D01*
X551035Y146829D01*
X551171Y146876D01*
X551307Y146926D01*
X551441Y146980D01*
X551573Y147037D01*
X551704Y147098D01*
X551833Y147162D01*
X551961Y147230D01*
X552087Y147301D01*
X552211Y147375D01*
X552332Y147452D01*
X552452Y147533D01*
X552570Y147616D01*
X552685Y147703D01*
X552798Y147793D01*
X552909Y147886D01*
X553017Y147981D01*
X553123Y148080D01*
X553226Y148181D01*
X552901Y155646D02*
X552899Y155745D01*
X552893Y155845D01*
X552884Y155944D01*
X552871Y156042D01*
X552854Y156140D01*
X552833Y156238D01*
X552808Y156334D01*
X552780Y156429D01*
X552748Y156523D01*
X552713Y156616D01*
X552674Y156708D01*
X552631Y156798D01*
X552586Y156886D01*
X552536Y156973D01*
X552484Y157057D01*
X552428Y157140D01*
X552370Y157220D01*
X552308Y157298D01*
X552243Y157373D01*
X552175Y157446D01*
X552105Y157516D01*
X552032Y157584D01*
X551957Y157649D01*
X551879Y157711D01*
X551799Y157769D01*
X551716Y157825D01*
X551632Y157877D01*
X551545Y157927D01*
X551457Y157972D01*
X551367Y158015D01*
X551275Y158054D01*
X551182Y158089D01*
X551088Y158121D01*
X550993Y158149D01*
X550897Y158174D01*
X550799Y158195D01*
X550701Y158212D01*
X550603Y158225D01*
X550504Y158234D01*
X550404Y158240D01*
X550305Y158242D01*
X550169Y158240D01*
X550033Y158234D01*
X549897Y158225D01*
X549761Y158212D01*
X549626Y158194D01*
X549492Y158174D01*
X549358Y158149D01*
X549224Y158121D01*
X549092Y158088D01*
X548961Y158053D01*
X548830Y158013D01*
X548701Y157970D01*
X548573Y157924D01*
X548447Y157873D01*
X548321Y157820D01*
X548198Y157762D01*
X548076Y157702D01*
X547956Y157638D01*
X547837Y157570D01*
X547721Y157500D01*
X547607Y157426D01*
X547494Y157349D01*
X547384Y157268D01*
X551604Y153374D02*
X551690Y153427D01*
X551774Y153484D01*
X551856Y153543D01*
X551936Y153606D01*
X552013Y153672D01*
X552088Y153740D01*
X552160Y153812D01*
X552229Y153886D01*
X552295Y153963D01*
X552358Y154042D01*
X552418Y154124D01*
X552475Y154208D01*
X552529Y154294D01*
X552579Y154382D01*
X552626Y154472D01*
X552670Y154563D01*
X552709Y154657D01*
X552746Y154751D01*
X552778Y154847D01*
X552807Y154945D01*
X552832Y155043D01*
X552853Y155142D01*
X552871Y155242D01*
X552884Y155342D01*
X552894Y155443D01*
X552900Y155545D01*
X552902Y155646D01*
X548033Y151426D02*
X547947Y151373D01*
X547863Y151316D01*
X547781Y151257D01*
X547701Y151194D01*
X547624Y151128D01*
X547549Y151060D01*
X547477Y150988D01*
X547408Y150914D01*
X547342Y150837D01*
X547279Y150758D01*
X547219Y150676D01*
X547162Y150592D01*
X547108Y150506D01*
X547058Y150418D01*
X547011Y150328D01*
X546967Y150237D01*
X546928Y150143D01*
X546891Y150049D01*
X546859Y149953D01*
X546830Y149855D01*
X546805Y149757D01*
X546784Y149658D01*
X546766Y149558D01*
X546753Y149458D01*
X546743Y149357D01*
X546737Y149255D01*
X546735Y149154D01*
X548033Y151426D02*
X551603Y153374D01*
X542600Y158242D02*
X540004Y146558D01*
X537408Y154347D01*
X534811Y146558D01*
X532215Y158242D01*
X524129Y158242D02*
X524022Y158240D01*
X523916Y158234D01*
X523810Y158224D01*
X523704Y158211D01*
X523598Y158193D01*
X523494Y158172D01*
X523390Y158147D01*
X523287Y158118D01*
X523186Y158086D01*
X523086Y158049D01*
X522987Y158009D01*
X522889Y157966D01*
X522793Y157919D01*
X522699Y157868D01*
X522607Y157814D01*
X522517Y157757D01*
X522429Y157697D01*
X522344Y157633D01*
X522261Y157566D01*
X522180Y157496D01*
X522102Y157424D01*
X522026Y157348D01*
X521954Y157270D01*
X521884Y157189D01*
X521817Y157106D01*
X521753Y157021D01*
X521693Y156933D01*
X521636Y156843D01*
X521582Y156751D01*
X521531Y156657D01*
X521484Y156561D01*
X521441Y156463D01*
X521401Y156364D01*
X521364Y156264D01*
X521332Y156163D01*
X521303Y156060D01*
X521278Y155956D01*
X521257Y155852D01*
X521239Y155746D01*
X521226Y155640D01*
X521216Y155534D01*
X521210Y155428D01*
X521208Y155321D01*
X524129Y158242D02*
X524250Y158240D01*
X524371Y158234D01*
X524491Y158224D01*
X524612Y158211D01*
X524731Y158193D01*
X524851Y158172D01*
X524969Y158147D01*
X525086Y158118D01*
X525203Y158085D01*
X525318Y158049D01*
X525432Y158008D01*
X525545Y157965D01*
X525657Y157917D01*
X525766Y157866D01*
X525874Y157811D01*
X525981Y157753D01*
X526085Y157692D01*
X526187Y157627D01*
X526287Y157559D01*
X526385Y157488D01*
X526481Y157414D01*
X526574Y157337D01*
X526664Y157256D01*
X526752Y157173D01*
X526837Y157087D01*
X526920Y156998D01*
X526999Y156907D01*
X527076Y156813D01*
X527149Y156717D01*
X527219Y156619D01*
X527286Y156518D01*
X527350Y156415D01*
X527411Y156310D01*
X527468Y156203D01*
X527521Y156095D01*
X527571Y155985D01*
X527617Y155873D01*
X527660Y155760D01*
X527699Y155645D01*
X522182Y153049D02*
X522103Y153127D01*
X522027Y153207D01*
X521954Y153290D01*
X521884Y153376D01*
X521817Y153463D01*
X521753Y153554D01*
X521693Y153646D01*
X521635Y153740D01*
X521581Y153837D01*
X521531Y153935D01*
X521484Y154035D01*
X521440Y154136D01*
X521400Y154239D01*
X521364Y154344D01*
X521332Y154449D01*
X521303Y154556D01*
X521278Y154663D01*
X521256Y154772D01*
X521239Y154881D01*
X521225Y154990D01*
X521216Y155100D01*
X521210Y155211D01*
X521208Y155321D01*
X522182Y153049D02*
X527699Y146558D01*
X521208Y146558D01*
D13*
X466400Y272250D02*
X466397Y272492D01*
X466388Y272733D01*
X466374Y272974D01*
X466353Y273215D01*
X466327Y273455D01*
X466295Y273695D01*
X466257Y273934D01*
X466214Y274171D01*
X466164Y274408D01*
X466109Y274643D01*
X466049Y274877D01*
X465982Y275109D01*
X465911Y275340D01*
X465833Y275569D01*
X465750Y275796D01*
X465662Y276021D01*
X465568Y276244D01*
X465469Y276464D01*
X465364Y276682D01*
X465255Y276897D01*
X465140Y277110D01*
X465020Y277320D01*
X464895Y277526D01*
X464765Y277730D01*
X464630Y277931D01*
X464490Y278128D01*
X464346Y278322D01*
X464197Y278512D01*
X464043Y278698D01*
X463885Y278881D01*
X463723Y279060D01*
X463556Y279235D01*
X463385Y279406D01*
X463210Y279573D01*
X463031Y279735D01*
X462848Y279893D01*
X462662Y280047D01*
X462472Y280196D01*
X462278Y280340D01*
X462081Y280480D01*
X461880Y280615D01*
X461676Y280745D01*
X461470Y280870D01*
X461260Y280990D01*
X461047Y281105D01*
X460832Y281214D01*
X460614Y281319D01*
X460394Y281418D01*
X460171Y281512D01*
X459946Y281600D01*
X459719Y281683D01*
X459490Y281761D01*
X459259Y281832D01*
X459027Y281899D01*
X458793Y281959D01*
X458558Y282014D01*
X458321Y282064D01*
X458084Y282107D01*
X457845Y282145D01*
X457605Y282177D01*
X457365Y282203D01*
X457124Y282224D01*
X456883Y282238D01*
X456642Y282247D01*
X456400Y282250D01*
X356400Y282250D01*
X356158Y282247D01*
X355917Y282238D01*
X355676Y282224D01*
X355435Y282203D01*
X355195Y282177D01*
X354955Y282145D01*
X354716Y282107D01*
X354479Y282064D01*
X354242Y282014D01*
X354007Y281959D01*
X353773Y281899D01*
X353541Y281832D01*
X353310Y281761D01*
X353081Y281683D01*
X352854Y281600D01*
X352629Y281512D01*
X352406Y281418D01*
X352186Y281319D01*
X351968Y281214D01*
X351753Y281105D01*
X351540Y280990D01*
X351330Y280870D01*
X351124Y280745D01*
X350920Y280615D01*
X350719Y280480D01*
X350522Y280340D01*
X350328Y280196D01*
X350138Y280047D01*
X349952Y279893D01*
X349769Y279735D01*
X349590Y279573D01*
X349415Y279406D01*
X349244Y279235D01*
X349077Y279060D01*
X348915Y278881D01*
X348757Y278698D01*
X348603Y278512D01*
X348454Y278322D01*
X348310Y278128D01*
X348170Y277931D01*
X348035Y277730D01*
X347905Y277526D01*
X347780Y277320D01*
X347660Y277110D01*
X347545Y276897D01*
X347436Y276682D01*
X347331Y276464D01*
X347232Y276244D01*
X347138Y276021D01*
X347050Y275796D01*
X346967Y275569D01*
X346889Y275340D01*
X346818Y275109D01*
X346751Y274877D01*
X346691Y274643D01*
X346636Y274408D01*
X346586Y274171D01*
X346543Y273934D01*
X346505Y273695D01*
X346473Y273455D01*
X346447Y273215D01*
X346426Y272974D01*
X346412Y272733D01*
X346403Y272492D01*
X346400Y272250D01*
X346400Y172250D02*
X346403Y172008D01*
X346412Y171767D01*
X346426Y171526D01*
X346447Y171285D01*
X346473Y171045D01*
X346505Y170805D01*
X346543Y170566D01*
X346586Y170329D01*
X346636Y170092D01*
X346691Y169857D01*
X346751Y169623D01*
X346818Y169391D01*
X346889Y169160D01*
X346967Y168931D01*
X347050Y168704D01*
X347138Y168479D01*
X347232Y168256D01*
X347331Y168036D01*
X347436Y167818D01*
X347545Y167603D01*
X347660Y167390D01*
X347780Y167180D01*
X347905Y166974D01*
X348035Y166770D01*
X348170Y166569D01*
X348310Y166372D01*
X348454Y166178D01*
X348603Y165988D01*
X348757Y165802D01*
X348915Y165619D01*
X349077Y165440D01*
X349244Y165265D01*
X349415Y165094D01*
X349590Y164927D01*
X349769Y164765D01*
X349952Y164607D01*
X350138Y164453D01*
X350328Y164304D01*
X350522Y164160D01*
X350719Y164020D01*
X350920Y163885D01*
X351124Y163755D01*
X351330Y163630D01*
X351540Y163510D01*
X351753Y163395D01*
X351968Y163286D01*
X352186Y163181D01*
X352406Y163082D01*
X352629Y162988D01*
X352854Y162900D01*
X353081Y162817D01*
X353310Y162739D01*
X353541Y162668D01*
X353773Y162601D01*
X354007Y162541D01*
X354242Y162486D01*
X354479Y162436D01*
X354716Y162393D01*
X354955Y162355D01*
X355195Y162323D01*
X355435Y162297D01*
X355676Y162276D01*
X355917Y162262D01*
X356158Y162253D01*
X356400Y162250D01*
X456400Y162250D01*
X456642Y162253D01*
X456883Y162262D01*
X457124Y162276D01*
X457365Y162297D01*
X457605Y162323D01*
X457845Y162355D01*
X458084Y162393D01*
X458321Y162436D01*
X458558Y162486D01*
X458793Y162541D01*
X459027Y162601D01*
X459259Y162668D01*
X459490Y162739D01*
X459719Y162817D01*
X459946Y162900D01*
X460171Y162988D01*
X460394Y163082D01*
X460614Y163181D01*
X460832Y163286D01*
X461047Y163395D01*
X461260Y163510D01*
X461470Y163630D01*
X461676Y163755D01*
X461880Y163885D01*
X462081Y164020D01*
X462278Y164160D01*
X462472Y164304D01*
X462662Y164453D01*
X462848Y164607D01*
X463031Y164765D01*
X463210Y164927D01*
X463385Y165094D01*
X463556Y165265D01*
X463723Y165440D01*
X463885Y165619D01*
X464043Y165802D01*
X464197Y165988D01*
X464346Y166178D01*
X464490Y166372D01*
X464630Y166569D01*
X464765Y166770D01*
X464895Y166974D01*
X465020Y167180D01*
X465140Y167390D01*
X465255Y167603D01*
X465364Y167818D01*
X465469Y168036D01*
X465568Y168256D01*
X465662Y168479D01*
X465750Y168704D01*
X465833Y168931D01*
X465911Y169160D01*
X465982Y169391D01*
X466049Y169623D01*
X466109Y169857D01*
X466164Y170092D01*
X466214Y170329D01*
X466257Y170566D01*
X466295Y170805D01*
X466327Y171045D01*
X466353Y171285D01*
X466374Y171526D01*
X466388Y171767D01*
X466397Y172008D01*
X466400Y172250D01*
X371045Y222250D02*
X371056Y223118D01*
X371088Y223985D01*
X371141Y224851D01*
X371215Y225715D01*
X371311Y226578D01*
X371428Y227438D01*
X371566Y228294D01*
X371724Y229147D01*
X371904Y229996D01*
X372105Y230841D01*
X372326Y231680D01*
X372567Y232513D01*
X372829Y233340D01*
X373112Y234161D01*
X373414Y234974D01*
X373736Y235780D01*
X374078Y236577D01*
X374439Y237366D01*
X374820Y238146D01*
X375220Y238916D01*
X375638Y239676D01*
X376075Y240426D01*
X376530Y241165D01*
X377003Y241892D01*
X377494Y242608D01*
X378003Y243311D01*
X378528Y244002D01*
X379070Y244679D01*
X379629Y245343D01*
X380204Y245993D01*
X380794Y246629D01*
X381400Y247250D01*
X382021Y247856D01*
X382657Y248446D01*
X383307Y249021D01*
X383971Y249580D01*
X384648Y250122D01*
X385339Y250647D01*
X386042Y251156D01*
X386758Y251647D01*
X387485Y252120D01*
X388224Y252575D01*
X388974Y253012D01*
X389734Y253430D01*
X390504Y253830D01*
X391284Y254211D01*
X392073Y254572D01*
X392870Y254914D01*
X393676Y255236D01*
X394489Y255538D01*
X395310Y255821D01*
X396137Y256083D01*
X396970Y256324D01*
X397809Y256545D01*
X398654Y256746D01*
X399503Y256926D01*
X400356Y257084D01*
X401212Y257222D01*
X402072Y257339D01*
X402935Y257435D01*
X403799Y257509D01*
X404665Y257562D01*
X405532Y257594D01*
X406400Y257605D01*
X407268Y257594D01*
X408135Y257562D01*
X409001Y257509D01*
X409865Y257435D01*
X410728Y257339D01*
X411588Y257222D01*
X412444Y257084D01*
X413297Y256926D01*
X414146Y256746D01*
X414991Y256545D01*
X415830Y256324D01*
X416663Y256083D01*
X417490Y255821D01*
X418311Y255538D01*
X419124Y255236D01*
X419930Y254914D01*
X420727Y254572D01*
X421516Y254211D01*
X422296Y253830D01*
X423066Y253430D01*
X423826Y253012D01*
X424576Y252575D01*
X425315Y252120D01*
X426042Y251647D01*
X426758Y251156D01*
X427461Y250647D01*
X428152Y250122D01*
X428829Y249580D01*
X429493Y249021D01*
X430143Y248446D01*
X430779Y247856D01*
X431400Y247250D01*
X432006Y246629D01*
X432596Y245993D01*
X433171Y245343D01*
X433730Y244679D01*
X434272Y244002D01*
X434797Y243311D01*
X435306Y242608D01*
X435797Y241892D01*
X436270Y241165D01*
X436725Y240426D01*
X437162Y239676D01*
X437580Y238916D01*
X437980Y238146D01*
X438361Y237366D01*
X438722Y236577D01*
X439064Y235780D01*
X439386Y234974D01*
X439688Y234161D01*
X439971Y233340D01*
X440233Y232513D01*
X440474Y231680D01*
X440695Y230841D01*
X440896Y229996D01*
X441076Y229147D01*
X441234Y228294D01*
X441372Y227438D01*
X441489Y226578D01*
X441585Y225715D01*
X441659Y224851D01*
X441712Y223985D01*
X441744Y223118D01*
X441755Y222250D01*
X441744Y221382D01*
X441712Y220515D01*
X441659Y219649D01*
X441585Y218785D01*
X441489Y217922D01*
X441372Y217062D01*
X441234Y216206D01*
X441076Y215353D01*
X440896Y214504D01*
X440695Y213659D01*
X440474Y212820D01*
X440233Y211987D01*
X439971Y211160D01*
X439688Y210339D01*
X439386Y209526D01*
X439064Y208720D01*
X438722Y207923D01*
X438361Y207134D01*
X437980Y206354D01*
X437580Y205584D01*
X437162Y204824D01*
X436725Y204074D01*
X436270Y203335D01*
X435797Y202608D01*
X435306Y201892D01*
X434797Y201189D01*
X434272Y200498D01*
X433730Y199821D01*
X433171Y199157D01*
X432596Y198507D01*
X432006Y197871D01*
X431400Y197250D01*
X430779Y196644D01*
X430143Y196054D01*
X429493Y195479D01*
X428829Y194920D01*
X428152Y194378D01*
X427461Y193853D01*
X426758Y193344D01*
X426042Y192853D01*
X425315Y192380D01*
X424576Y191925D01*
X423826Y191488D01*
X423066Y191070D01*
X422296Y190670D01*
X421516Y190289D01*
X420727Y189928D01*
X419930Y189586D01*
X419124Y189264D01*
X418311Y188962D01*
X417490Y188679D01*
X416663Y188417D01*
X415830Y188176D01*
X414991Y187955D01*
X414146Y187754D01*
X413297Y187574D01*
X412444Y187416D01*
X411588Y187278D01*
X410728Y187161D01*
X409865Y187065D01*
X409001Y186991D01*
X408135Y186938D01*
X407268Y186906D01*
X406400Y186895D01*
X405532Y186906D01*
X404665Y186938D01*
X403799Y186991D01*
X402935Y187065D01*
X402072Y187161D01*
X401212Y187278D01*
X400356Y187416D01*
X399503Y187574D01*
X398654Y187754D01*
X397809Y187955D01*
X396970Y188176D01*
X396137Y188417D01*
X395310Y188679D01*
X394489Y188962D01*
X393676Y189264D01*
X392870Y189586D01*
X392073Y189928D01*
X391284Y190289D01*
X390504Y190670D01*
X389734Y191070D01*
X388974Y191488D01*
X388224Y191925D01*
X387485Y192380D01*
X386758Y192853D01*
X386042Y193344D01*
X385339Y193853D01*
X384648Y194378D01*
X383971Y194920D01*
X383307Y195479D01*
X382657Y196054D01*
X382021Y196644D01*
X381400Y197250D01*
X380794Y197871D01*
X380204Y198507D01*
X379629Y199157D01*
X379070Y199821D01*
X378528Y200498D01*
X378003Y201189D01*
X377494Y201892D01*
X377003Y202608D01*
X376530Y203335D01*
X376075Y204074D01*
X375638Y204824D01*
X375220Y205584D01*
X374820Y206354D01*
X374439Y207134D01*
X374078Y207923D01*
X373736Y208720D01*
X373414Y209526D01*
X373112Y210339D01*
X372829Y211160D01*
X372567Y211987D01*
X372326Y212820D01*
X372105Y213659D01*
X371904Y214504D01*
X371724Y215353D01*
X371566Y216206D01*
X371428Y217062D01*
X371311Y217922D01*
X371215Y218785D01*
X371141Y219649D01*
X371088Y220515D01*
X371056Y221382D01*
X371045Y222250D01*
X386400Y202250D02*
X426400Y202250D01*
X426400Y242250D01*
X386400Y242250D01*
X386400Y202250D01*
X346400Y184750D02*
X346400Y172250D01*
X346400Y209750D02*
X346400Y234750D01*
X346400Y259750D02*
X346400Y272250D01*
X466400Y184750D02*
X466400Y172250D01*
X466400Y209750D02*
X466400Y234750D01*
X466400Y259750D02*
X466400Y272250D01*
D12*
X381635Y149154D02*
X381637Y149055D01*
X381643Y148955D01*
X381652Y148856D01*
X381665Y148758D01*
X381682Y148660D01*
X381703Y148562D01*
X381728Y148466D01*
X381756Y148371D01*
X381788Y148277D01*
X381823Y148184D01*
X381862Y148092D01*
X381905Y148002D01*
X381950Y147914D01*
X382000Y147827D01*
X382052Y147743D01*
X382108Y147660D01*
X382166Y147580D01*
X382228Y147502D01*
X382293Y147427D01*
X382361Y147354D01*
X382431Y147284D01*
X382504Y147216D01*
X382579Y147151D01*
X382657Y147089D01*
X382737Y147031D01*
X382820Y146975D01*
X382904Y146923D01*
X382991Y146873D01*
X383079Y146828D01*
X383169Y146785D01*
X383261Y146746D01*
X383354Y146711D01*
X383448Y146679D01*
X383543Y146651D01*
X383639Y146626D01*
X383737Y146605D01*
X383835Y146588D01*
X383933Y146575D01*
X384032Y146566D01*
X384132Y146560D01*
X384231Y146558D01*
X384375Y146560D01*
X384520Y146566D01*
X384664Y146575D01*
X384807Y146588D01*
X384951Y146605D01*
X385094Y146626D01*
X385236Y146651D01*
X385377Y146679D01*
X385518Y146711D01*
X385658Y146747D01*
X385797Y146786D01*
X385935Y146829D01*
X386071Y146876D01*
X386207Y146926D01*
X386341Y146980D01*
X386473Y147037D01*
X386604Y147098D01*
X386733Y147162D01*
X386861Y147230D01*
X386987Y147301D01*
X387111Y147375D01*
X387232Y147452D01*
X387352Y147533D01*
X387470Y147616D01*
X387585Y147703D01*
X387698Y147793D01*
X387809Y147886D01*
X387917Y147981D01*
X388023Y148080D01*
X388126Y148181D01*
X387801Y155646D02*
X387799Y155745D01*
X387793Y155845D01*
X387784Y155944D01*
X387771Y156042D01*
X387754Y156140D01*
X387733Y156238D01*
X387708Y156334D01*
X387680Y156429D01*
X387648Y156523D01*
X387613Y156616D01*
X387574Y156708D01*
X387531Y156798D01*
X387486Y156886D01*
X387436Y156973D01*
X387384Y157057D01*
X387328Y157140D01*
X387270Y157220D01*
X387208Y157298D01*
X387143Y157373D01*
X387075Y157446D01*
X387005Y157516D01*
X386932Y157584D01*
X386857Y157649D01*
X386779Y157711D01*
X386699Y157769D01*
X386616Y157825D01*
X386532Y157877D01*
X386445Y157927D01*
X386357Y157972D01*
X386267Y158015D01*
X386175Y158054D01*
X386082Y158089D01*
X385988Y158121D01*
X385893Y158149D01*
X385797Y158174D01*
X385699Y158195D01*
X385601Y158212D01*
X385503Y158225D01*
X385404Y158234D01*
X385304Y158240D01*
X385205Y158242D01*
X385069Y158240D01*
X384933Y158234D01*
X384797Y158225D01*
X384661Y158212D01*
X384526Y158194D01*
X384392Y158174D01*
X384258Y158149D01*
X384124Y158121D01*
X383992Y158088D01*
X383861Y158053D01*
X383730Y158013D01*
X383601Y157970D01*
X383473Y157924D01*
X383347Y157873D01*
X383221Y157820D01*
X383098Y157762D01*
X382976Y157702D01*
X382856Y157638D01*
X382737Y157570D01*
X382621Y157500D01*
X382507Y157426D01*
X382394Y157349D01*
X382284Y157268D01*
X386504Y153374D02*
X386590Y153427D01*
X386674Y153484D01*
X386756Y153543D01*
X386836Y153606D01*
X386913Y153672D01*
X386988Y153740D01*
X387060Y153812D01*
X387129Y153886D01*
X387195Y153963D01*
X387258Y154042D01*
X387318Y154124D01*
X387375Y154208D01*
X387429Y154294D01*
X387479Y154382D01*
X387526Y154472D01*
X387570Y154563D01*
X387609Y154657D01*
X387646Y154751D01*
X387678Y154847D01*
X387707Y154945D01*
X387732Y155043D01*
X387753Y155142D01*
X387771Y155242D01*
X387784Y155342D01*
X387794Y155443D01*
X387800Y155545D01*
X387802Y155646D01*
X382933Y151426D02*
X382847Y151373D01*
X382763Y151316D01*
X382681Y151257D01*
X382601Y151194D01*
X382524Y151128D01*
X382449Y151060D01*
X382377Y150988D01*
X382308Y150914D01*
X382242Y150837D01*
X382179Y150758D01*
X382119Y150676D01*
X382062Y150592D01*
X382008Y150506D01*
X381958Y150418D01*
X381911Y150328D01*
X381867Y150237D01*
X381828Y150143D01*
X381791Y150049D01*
X381759Y149953D01*
X381730Y149855D01*
X381705Y149757D01*
X381684Y149658D01*
X381666Y149558D01*
X381653Y149458D01*
X381643Y149357D01*
X381637Y149255D01*
X381635Y149154D01*
X382933Y151426D02*
X386503Y153374D01*
X377500Y158242D02*
X374904Y146558D01*
X372308Y154347D01*
X369711Y146558D01*
X367115Y158242D01*
X362599Y146558D02*
X359354Y146558D01*
X359241Y146560D01*
X359128Y146566D01*
X359015Y146576D01*
X358902Y146590D01*
X358790Y146607D01*
X358679Y146629D01*
X358569Y146654D01*
X358459Y146684D01*
X358351Y146717D01*
X358244Y146754D01*
X358138Y146794D01*
X358034Y146839D01*
X357931Y146887D01*
X357830Y146938D01*
X357731Y146993D01*
X357634Y147051D01*
X357539Y147113D01*
X357446Y147178D01*
X357356Y147246D01*
X357268Y147317D01*
X357182Y147392D01*
X357099Y147469D01*
X357019Y147549D01*
X356942Y147632D01*
X356867Y147718D01*
X356796Y147806D01*
X356728Y147896D01*
X356663Y147989D01*
X356601Y148084D01*
X356543Y148181D01*
X356488Y148280D01*
X356437Y148381D01*
X356389Y148484D01*
X356344Y148588D01*
X356304Y148694D01*
X356267Y148801D01*
X356234Y148909D01*
X356204Y149019D01*
X356179Y149129D01*
X356157Y149240D01*
X356140Y149352D01*
X356126Y149465D01*
X356116Y149578D01*
X356110Y149691D01*
X356108Y149804D01*
X356110Y149917D01*
X356116Y150030D01*
X356126Y150143D01*
X356140Y150256D01*
X356157Y150368D01*
X356179Y150479D01*
X356204Y150589D01*
X356234Y150699D01*
X356267Y150807D01*
X356304Y150914D01*
X356344Y151020D01*
X356389Y151124D01*
X356437Y151227D01*
X356488Y151328D01*
X356543Y151427D01*
X356601Y151524D01*
X356663Y151619D01*
X356728Y151712D01*
X356796Y151802D01*
X356867Y151890D01*
X356942Y151976D01*
X357019Y152059D01*
X357099Y152139D01*
X357182Y152216D01*
X357268Y152291D01*
X357356Y152362D01*
X357446Y152430D01*
X357539Y152495D01*
X357634Y152557D01*
X357731Y152615D01*
X357830Y152670D01*
X357931Y152721D01*
X358034Y152769D01*
X358138Y152814D01*
X358244Y152854D01*
X358351Y152891D01*
X358459Y152924D01*
X358569Y152954D01*
X358679Y152979D01*
X358790Y153001D01*
X358902Y153018D01*
X359015Y153032D01*
X359128Y153042D01*
X359241Y153048D01*
X359354Y153050D01*
X358704Y158242D02*
X362599Y158242D01*
X358704Y158242D02*
X358603Y158240D01*
X358503Y158234D01*
X358403Y158224D01*
X358303Y158211D01*
X358204Y158193D01*
X358105Y158172D01*
X358008Y158147D01*
X357911Y158118D01*
X357816Y158085D01*
X357722Y158049D01*
X357630Y158009D01*
X357539Y157966D01*
X357450Y157919D01*
X357363Y157869D01*
X357277Y157815D01*
X357194Y157758D01*
X357114Y157698D01*
X357035Y157635D01*
X356959Y157568D01*
X356886Y157499D01*
X356816Y157427D01*
X356748Y157353D01*
X356683Y157276D01*
X356622Y157196D01*
X356563Y157114D01*
X356508Y157030D01*
X356456Y156944D01*
X356407Y156856D01*
X356362Y156766D01*
X356320Y156674D01*
X356282Y156581D01*
X356248Y156486D01*
X356217Y156391D01*
X356190Y156294D01*
X356167Y156196D01*
X356147Y156097D01*
X356132Y155997D01*
X356120Y155897D01*
X356112Y155797D01*
X356108Y155696D01*
X356108Y155596D01*
X356112Y155495D01*
X356120Y155395D01*
X356132Y155295D01*
X356147Y155195D01*
X356167Y155096D01*
X356190Y154998D01*
X356217Y154901D01*
X356248Y154806D01*
X356282Y154711D01*
X356320Y154618D01*
X356362Y154526D01*
X356407Y154436D01*
X356456Y154348D01*
X356508Y154262D01*
X356563Y154178D01*
X356622Y154096D01*
X356683Y154016D01*
X356748Y153939D01*
X356816Y153865D01*
X356886Y153793D01*
X356959Y153724D01*
X357035Y153657D01*
X357114Y153594D01*
X357194Y153534D01*
X357277Y153477D01*
X357363Y153423D01*
X357450Y153373D01*
X357539Y153326D01*
X357630Y153283D01*
X357722Y153243D01*
X357816Y153207D01*
X357911Y153174D01*
X358008Y153145D01*
X358105Y153120D01*
X358204Y153099D01*
X358303Y153081D01*
X358403Y153068D01*
X358503Y153058D01*
X358603Y153052D01*
X358704Y153050D01*
X358704Y153049D02*
X361301Y153049D01*
D10*
X139700Y571500D02*
X139700Y584200D01*
X139700Y571500D02*
X146050Y565150D01*
X158750Y565150D02*
X165100Y571500D01*
X146050Y565150D02*
X139700Y558800D01*
X139700Y546100D01*
X146050Y539750D01*
X158750Y539750D02*
X165100Y546100D01*
X165100Y558800D01*
X158750Y565150D01*
X158750Y590550D02*
X146050Y590550D01*
X139700Y584200D01*
X158750Y590550D02*
X165100Y584200D01*
X165100Y571500D01*
X146050Y539750D02*
X139700Y533400D01*
X139700Y520700D01*
X146050Y514350D01*
X158750Y514350D02*
X165100Y520700D01*
X165100Y533400D01*
X158750Y539750D01*
X139700Y508000D02*
X139700Y495300D01*
X146050Y488950D01*
X158750Y488950D01*
X165100Y495300D01*
X146050Y514350D02*
X139700Y508000D01*
X158750Y514350D02*
X165100Y508000D01*
X165100Y495300D01*
D11*
X155575Y594995D02*
X158115Y598170D01*
X146685Y598170D01*
X146685Y594995D02*
X146685Y601345D01*
X158115Y481965D02*
X149225Y479425D01*
X149225Y485775D01*
X151765Y483870D02*
X146685Y483870D01*
X126365Y553720D02*
X126365Y561975D01*
X126365Y553720D02*
X126363Y553609D01*
X126357Y553499D01*
X126348Y553388D01*
X126334Y553278D01*
X126317Y553169D01*
X126296Y553060D01*
X126271Y552952D01*
X126242Y552845D01*
X126210Y552739D01*
X126174Y552634D01*
X126134Y552531D01*
X126091Y552429D01*
X126044Y552328D01*
X125993Y552229D01*
X125940Y552133D01*
X125883Y552038D01*
X125822Y551945D01*
X125759Y551854D01*
X125692Y551765D01*
X125622Y551679D01*
X125549Y551596D01*
X125474Y551514D01*
X125396Y551436D01*
X125314Y551361D01*
X125231Y551288D01*
X125145Y551218D01*
X125056Y551151D01*
X124965Y551088D01*
X124872Y551027D01*
X124777Y550970D01*
X124681Y550917D01*
X124582Y550866D01*
X124481Y550819D01*
X124379Y550776D01*
X124276Y550736D01*
X124171Y550700D01*
X124065Y550668D01*
X123958Y550639D01*
X123850Y550614D01*
X123741Y550593D01*
X123632Y550576D01*
X123522Y550562D01*
X123411Y550553D01*
X123301Y550547D01*
X123190Y550545D01*
X123079Y550547D01*
X122969Y550553D01*
X122858Y550562D01*
X122748Y550576D01*
X122639Y550593D01*
X122530Y550614D01*
X122422Y550639D01*
X122315Y550668D01*
X122209Y550700D01*
X122104Y550736D01*
X122001Y550776D01*
X121899Y550819D01*
X121798Y550866D01*
X121699Y550917D01*
X121603Y550970D01*
X121508Y551027D01*
X121415Y551088D01*
X121324Y551151D01*
X121235Y551218D01*
X121149Y551288D01*
X121066Y551361D01*
X120984Y551436D01*
X120906Y551514D01*
X120831Y551596D01*
X120758Y551679D01*
X120688Y551765D01*
X120621Y551854D01*
X120558Y551945D01*
X120497Y552038D01*
X120440Y552133D01*
X120387Y552229D01*
X120336Y552328D01*
X120289Y552429D01*
X120246Y552531D01*
X120206Y552634D01*
X120170Y552739D01*
X120138Y552845D01*
X120109Y552952D01*
X120084Y553060D01*
X120063Y553169D01*
X120046Y553278D01*
X120032Y553388D01*
X120023Y553499D01*
X120017Y553609D01*
X120015Y553720D01*
X120015Y561975D01*
X112141Y561975D02*
X112141Y550545D01*
X112141Y556260D02*
X113729Y557213D01*
X113729Y557212D02*
X113802Y557259D01*
X113873Y557308D01*
X113942Y557361D01*
X114008Y557417D01*
X114072Y557476D01*
X114133Y557537D01*
X114191Y557601D01*
X114246Y557668D01*
X114298Y557738D01*
X114346Y557809D01*
X114392Y557883D01*
X114434Y557959D01*
X114472Y558037D01*
X114507Y558116D01*
X114538Y558197D01*
X114565Y558279D01*
X114589Y558362D01*
X114609Y558447D01*
X114625Y558532D01*
X114637Y558618D01*
X114645Y558704D01*
X114649Y558790D01*
X114650Y558877D01*
X114646Y558964D01*
X114638Y559050D01*
X114627Y559136D01*
X114611Y559221D01*
X114592Y559305D01*
X114569Y559389D01*
X114542Y559471D01*
X114511Y559552D01*
X114476Y559632D01*
X114439Y559709D01*
X114397Y559785D01*
X114352Y559860D01*
X114304Y559931D01*
X114252Y560001D01*
X114198Y560068D01*
X114140Y560133D01*
X114080Y560195D01*
X114016Y560254D01*
X113950Y560310D01*
X113882Y560364D01*
X113811Y560413D01*
X113738Y560460D01*
X113663Y560503D01*
X113586Y560543D01*
X113508Y560579D01*
X113427Y560612D01*
X113346Y560641D01*
X113263Y560666D01*
X113179Y560688D01*
X113094Y560705D01*
X113093Y560705D02*
X112956Y560728D01*
X112817Y560748D01*
X112679Y560763D01*
X112540Y560775D01*
X112400Y560783D01*
X112261Y560786D01*
X112121Y560787D01*
X111982Y560783D01*
X111843Y560775D01*
X111704Y560764D01*
X111565Y560748D01*
X111427Y560729D01*
X111289Y560706D01*
X111152Y560679D01*
X111016Y560648D01*
X110881Y560614D01*
X110747Y560576D01*
X110613Y560534D01*
X110482Y560488D01*
X110351Y560439D01*
X110222Y560386D01*
X110094Y560330D01*
X109968Y560270D01*
X109844Y560207D01*
X109721Y560140D01*
X109601Y560070D01*
X112141Y556260D02*
X110554Y555308D01*
X110553Y555308D02*
X110480Y555261D01*
X110409Y555212D01*
X110340Y555159D01*
X110274Y555103D01*
X110210Y555044D01*
X110149Y554983D01*
X110091Y554919D01*
X110036Y554852D01*
X109984Y554782D01*
X109936Y554711D01*
X109890Y554637D01*
X109848Y554561D01*
X109810Y554483D01*
X109775Y554404D01*
X109744Y554323D01*
X109717Y554241D01*
X109693Y554158D01*
X109673Y554073D01*
X109657Y553988D01*
X109645Y553902D01*
X109637Y553816D01*
X109633Y553730D01*
X109632Y553643D01*
X109636Y553556D01*
X109644Y553470D01*
X109655Y553384D01*
X109671Y553299D01*
X109690Y553215D01*
X109713Y553131D01*
X109740Y553049D01*
X109771Y552968D01*
X109806Y552888D01*
X109843Y552811D01*
X109885Y552735D01*
X109930Y552660D01*
X109978Y552589D01*
X110030Y552519D01*
X110084Y552452D01*
X110142Y552387D01*
X110202Y552325D01*
X110266Y552266D01*
X110332Y552210D01*
X110400Y552156D01*
X110471Y552107D01*
X110544Y552060D01*
X110619Y552017D01*
X110696Y551977D01*
X110774Y551941D01*
X110855Y551908D01*
X110936Y551879D01*
X111019Y551854D01*
X111103Y551832D01*
X111188Y551815D01*
X111189Y551815D02*
X111326Y551792D01*
X111465Y551772D01*
X111603Y551757D01*
X111742Y551745D01*
X111882Y551737D01*
X112021Y551734D01*
X112161Y551733D01*
X112300Y551737D01*
X112439Y551745D01*
X112578Y551756D01*
X112717Y551772D01*
X112855Y551791D01*
X112993Y551814D01*
X113130Y551841D01*
X113266Y551872D01*
X113401Y551906D01*
X113535Y551944D01*
X113669Y551986D01*
X113800Y552032D01*
X113931Y552081D01*
X114060Y552134D01*
X114188Y552190D01*
X114314Y552250D01*
X114438Y552313D01*
X114561Y552380D01*
X114681Y552450D01*
X104648Y553085D02*
X102108Y561975D01*
X104648Y553085D02*
X98298Y553085D01*
X100203Y555625D02*
X100203Y550545D01*
M02*
