G04 EAGLE Gerber RS-274X export*
G75*
%MOMM*%
%FSLAX34Y34*%
%LPD*%
%INSilkscreen Top*%
%IPPOS*%
%AMOC8*
5,1,8,0,0,1.08239X$1,22.5*%
G01*
%ADD10C,0.152400*%
%ADD11C,0.127000*%
%ADD12C,0.101600*%
%ADD13R,0.508000X0.508000*%
%ADD14C,0.254000*%


D10*
X578612Y98552D02*
X578612Y114808D01*
X585837Y114808D01*
X585837Y107583D02*
X578612Y107583D01*
X591434Y109389D02*
X591434Y98552D01*
X590983Y113905D02*
X590983Y114808D01*
X591886Y114808D01*
X591886Y113905D01*
X590983Y113905D01*
X596424Y109389D02*
X601843Y109389D01*
X598231Y114808D02*
X598231Y101261D01*
X598233Y101160D01*
X598239Y101059D01*
X598248Y100958D01*
X598261Y100857D01*
X598278Y100757D01*
X598299Y100658D01*
X598323Y100560D01*
X598351Y100463D01*
X598383Y100366D01*
X598418Y100271D01*
X598457Y100178D01*
X598499Y100086D01*
X598545Y99995D01*
X598594Y99907D01*
X598646Y99820D01*
X598702Y99735D01*
X598760Y99652D01*
X598822Y99572D01*
X598887Y99494D01*
X598954Y99418D01*
X599024Y99345D01*
X599097Y99275D01*
X599173Y99208D01*
X599251Y99143D01*
X599331Y99081D01*
X599414Y99023D01*
X599499Y98967D01*
X599586Y98915D01*
X599674Y98866D01*
X599765Y98820D01*
X599857Y98778D01*
X599950Y98739D01*
X600045Y98704D01*
X600142Y98672D01*
X600239Y98644D01*
X600337Y98620D01*
X600436Y98599D01*
X600536Y98582D01*
X600637Y98569D01*
X600738Y98560D01*
X600839Y98554D01*
X600940Y98552D01*
X601843Y98552D01*
X608143Y98552D02*
X608143Y109389D01*
X612658Y109389D01*
X612762Y109387D01*
X612865Y109381D01*
X612969Y109371D01*
X613072Y109357D01*
X613174Y109339D01*
X613275Y109318D01*
X613376Y109292D01*
X613475Y109263D01*
X613574Y109230D01*
X613671Y109193D01*
X613766Y109152D01*
X613860Y109108D01*
X613952Y109060D01*
X614042Y109009D01*
X614131Y108954D01*
X614217Y108896D01*
X614300Y108834D01*
X614382Y108770D01*
X614460Y108702D01*
X614536Y108632D01*
X614610Y108559D01*
X614680Y108482D01*
X614748Y108404D01*
X614812Y108322D01*
X614874Y108239D01*
X614932Y108153D01*
X614987Y108064D01*
X615038Y107974D01*
X615086Y107882D01*
X615130Y107788D01*
X615171Y107693D01*
X615208Y107596D01*
X615241Y107497D01*
X615270Y107398D01*
X615296Y107297D01*
X615317Y107196D01*
X615335Y107094D01*
X615349Y106991D01*
X615359Y106887D01*
X615365Y106784D01*
X615367Y106680D01*
X615367Y98552D01*
X624920Y98552D02*
X629435Y98552D01*
X624920Y98552D02*
X624819Y98554D01*
X624718Y98560D01*
X624617Y98569D01*
X624516Y98582D01*
X624416Y98599D01*
X624317Y98620D01*
X624219Y98644D01*
X624122Y98672D01*
X624025Y98704D01*
X623930Y98739D01*
X623837Y98778D01*
X623745Y98820D01*
X623654Y98866D01*
X623566Y98915D01*
X623479Y98967D01*
X623394Y99023D01*
X623311Y99081D01*
X623231Y99143D01*
X623153Y99208D01*
X623077Y99275D01*
X623004Y99345D01*
X622934Y99418D01*
X622867Y99494D01*
X622802Y99572D01*
X622740Y99652D01*
X622682Y99735D01*
X622626Y99820D01*
X622574Y99907D01*
X622525Y99995D01*
X622479Y100086D01*
X622437Y100178D01*
X622398Y100271D01*
X622363Y100366D01*
X622331Y100463D01*
X622303Y100560D01*
X622279Y100658D01*
X622258Y100757D01*
X622241Y100857D01*
X622228Y100958D01*
X622219Y101059D01*
X622213Y101160D01*
X622211Y101261D01*
X622211Y105777D01*
X622213Y105896D01*
X622219Y106016D01*
X622229Y106135D01*
X622243Y106253D01*
X622260Y106372D01*
X622282Y106489D01*
X622307Y106606D01*
X622337Y106721D01*
X622370Y106836D01*
X622407Y106950D01*
X622447Y107062D01*
X622492Y107173D01*
X622540Y107282D01*
X622591Y107390D01*
X622646Y107496D01*
X622705Y107600D01*
X622767Y107702D01*
X622832Y107802D01*
X622901Y107900D01*
X622973Y107996D01*
X623048Y108089D01*
X623125Y108179D01*
X623206Y108267D01*
X623290Y108352D01*
X623377Y108434D01*
X623466Y108514D01*
X623558Y108590D01*
X623652Y108664D01*
X623749Y108734D01*
X623847Y108801D01*
X623948Y108865D01*
X624052Y108925D01*
X624157Y108982D01*
X624264Y109035D01*
X624372Y109085D01*
X624482Y109131D01*
X624594Y109173D01*
X624707Y109212D01*
X624821Y109247D01*
X624936Y109278D01*
X625053Y109306D01*
X625170Y109329D01*
X625287Y109349D01*
X625406Y109365D01*
X625525Y109377D01*
X625644Y109385D01*
X625763Y109389D01*
X625883Y109389D01*
X626002Y109385D01*
X626121Y109377D01*
X626240Y109365D01*
X626359Y109349D01*
X626476Y109329D01*
X626593Y109306D01*
X626710Y109278D01*
X626825Y109247D01*
X626939Y109212D01*
X627052Y109173D01*
X627164Y109131D01*
X627274Y109085D01*
X627382Y109035D01*
X627489Y108982D01*
X627594Y108925D01*
X627698Y108865D01*
X627799Y108801D01*
X627897Y108734D01*
X627994Y108664D01*
X628088Y108590D01*
X628180Y108514D01*
X628269Y108434D01*
X628356Y108352D01*
X628440Y108267D01*
X628521Y108179D01*
X628598Y108089D01*
X628673Y107996D01*
X628745Y107900D01*
X628814Y107802D01*
X628879Y107702D01*
X628941Y107600D01*
X629000Y107496D01*
X629055Y107390D01*
X629106Y107282D01*
X629154Y107173D01*
X629199Y107062D01*
X629239Y106950D01*
X629276Y106836D01*
X629309Y106721D01*
X629339Y106606D01*
X629364Y106489D01*
X629386Y106372D01*
X629403Y106253D01*
X629417Y106135D01*
X629427Y106016D01*
X629433Y105896D01*
X629435Y105777D01*
X629435Y103971D01*
X622211Y103971D01*
X637112Y104874D02*
X641628Y103068D01*
X637112Y104874D02*
X637024Y104911D01*
X636938Y104952D01*
X636853Y104996D01*
X636770Y105044D01*
X636690Y105095D01*
X636611Y105149D01*
X636535Y105207D01*
X636461Y105267D01*
X636389Y105331D01*
X636321Y105397D01*
X636255Y105467D01*
X636192Y105538D01*
X636131Y105613D01*
X636074Y105689D01*
X636021Y105768D01*
X635970Y105849D01*
X635923Y105932D01*
X635879Y106017D01*
X635839Y106104D01*
X635802Y106192D01*
X635769Y106282D01*
X635739Y106373D01*
X635714Y106465D01*
X635692Y106558D01*
X635674Y106652D01*
X635659Y106746D01*
X635649Y106841D01*
X635643Y106937D01*
X635640Y107032D01*
X635641Y107128D01*
X635647Y107223D01*
X635656Y107319D01*
X635669Y107413D01*
X635685Y107507D01*
X635706Y107601D01*
X635731Y107693D01*
X635759Y107784D01*
X635791Y107874D01*
X635826Y107963D01*
X635865Y108050D01*
X635908Y108136D01*
X635954Y108220D01*
X636004Y108301D01*
X636056Y108381D01*
X636112Y108459D01*
X636172Y108534D01*
X636234Y108606D01*
X636299Y108676D01*
X636367Y108744D01*
X636437Y108808D01*
X636510Y108870D01*
X636586Y108928D01*
X636664Y108984D01*
X636744Y109036D01*
X636826Y109085D01*
X636910Y109130D01*
X636996Y109172D01*
X637083Y109211D01*
X637172Y109246D01*
X637263Y109277D01*
X637354Y109304D01*
X637447Y109328D01*
X637540Y109348D01*
X637634Y109364D01*
X637729Y109376D01*
X637824Y109385D01*
X637920Y109389D01*
X638015Y109390D01*
X638262Y109383D01*
X638508Y109371D01*
X638754Y109353D01*
X639000Y109328D01*
X639244Y109298D01*
X639488Y109262D01*
X639731Y109221D01*
X639973Y109173D01*
X640214Y109119D01*
X640453Y109060D01*
X640691Y108995D01*
X640927Y108924D01*
X641162Y108848D01*
X641395Y108766D01*
X641625Y108678D01*
X641853Y108585D01*
X642080Y108487D01*
X641628Y103067D02*
X641716Y103030D01*
X641802Y102989D01*
X641887Y102945D01*
X641970Y102897D01*
X642050Y102846D01*
X642129Y102792D01*
X642205Y102734D01*
X642279Y102674D01*
X642351Y102610D01*
X642419Y102544D01*
X642485Y102474D01*
X642548Y102403D01*
X642609Y102328D01*
X642666Y102252D01*
X642719Y102173D01*
X642770Y102092D01*
X642817Y102009D01*
X642861Y101924D01*
X642901Y101837D01*
X642938Y101749D01*
X642971Y101659D01*
X643001Y101568D01*
X643026Y101476D01*
X643048Y101383D01*
X643066Y101289D01*
X643081Y101195D01*
X643091Y101100D01*
X643097Y101004D01*
X643100Y100909D01*
X643099Y100813D01*
X643093Y100718D01*
X643084Y100622D01*
X643071Y100528D01*
X643055Y100434D01*
X643034Y100340D01*
X643009Y100248D01*
X642981Y100157D01*
X642949Y100067D01*
X642914Y99978D01*
X642875Y99891D01*
X642832Y99805D01*
X642786Y99721D01*
X642736Y99640D01*
X642684Y99560D01*
X642628Y99482D01*
X642568Y99407D01*
X642506Y99335D01*
X642441Y99265D01*
X642373Y99197D01*
X642303Y99133D01*
X642230Y99071D01*
X642154Y99013D01*
X642076Y98957D01*
X641996Y98905D01*
X641914Y98856D01*
X641830Y98811D01*
X641744Y98769D01*
X641657Y98730D01*
X641568Y98695D01*
X641477Y98664D01*
X641386Y98637D01*
X641293Y98613D01*
X641200Y98593D01*
X641106Y98577D01*
X641011Y98565D01*
X640916Y98556D01*
X640820Y98552D01*
X640725Y98551D01*
X640724Y98552D02*
X640362Y98561D01*
X640000Y98579D01*
X639639Y98606D01*
X639279Y98641D01*
X638919Y98684D01*
X638560Y98736D01*
X638203Y98797D01*
X637848Y98866D01*
X637494Y98943D01*
X637142Y99029D01*
X636792Y99123D01*
X636444Y99226D01*
X636099Y99336D01*
X635757Y99455D01*
X650659Y104874D02*
X655175Y103068D01*
X650659Y104874D02*
X650571Y104911D01*
X650485Y104952D01*
X650400Y104996D01*
X650317Y105044D01*
X650237Y105095D01*
X650158Y105149D01*
X650082Y105207D01*
X650008Y105267D01*
X649936Y105331D01*
X649868Y105397D01*
X649802Y105467D01*
X649739Y105538D01*
X649678Y105613D01*
X649621Y105689D01*
X649568Y105768D01*
X649517Y105849D01*
X649470Y105932D01*
X649426Y106017D01*
X649386Y106104D01*
X649349Y106192D01*
X649316Y106282D01*
X649286Y106373D01*
X649261Y106465D01*
X649239Y106558D01*
X649221Y106652D01*
X649206Y106746D01*
X649196Y106841D01*
X649190Y106937D01*
X649187Y107032D01*
X649188Y107128D01*
X649194Y107223D01*
X649203Y107319D01*
X649216Y107413D01*
X649232Y107507D01*
X649253Y107601D01*
X649278Y107693D01*
X649306Y107784D01*
X649338Y107874D01*
X649373Y107963D01*
X649412Y108050D01*
X649455Y108136D01*
X649501Y108220D01*
X649551Y108301D01*
X649603Y108381D01*
X649659Y108459D01*
X649719Y108534D01*
X649781Y108606D01*
X649846Y108676D01*
X649914Y108744D01*
X649984Y108808D01*
X650057Y108870D01*
X650133Y108928D01*
X650211Y108984D01*
X650291Y109036D01*
X650373Y109085D01*
X650457Y109130D01*
X650543Y109172D01*
X650630Y109211D01*
X650719Y109246D01*
X650810Y109277D01*
X650901Y109304D01*
X650994Y109328D01*
X651087Y109348D01*
X651181Y109364D01*
X651276Y109376D01*
X651371Y109385D01*
X651467Y109389D01*
X651562Y109390D01*
X651809Y109383D01*
X652055Y109371D01*
X652301Y109353D01*
X652547Y109328D01*
X652791Y109298D01*
X653035Y109262D01*
X653278Y109221D01*
X653520Y109173D01*
X653761Y109119D01*
X654000Y109060D01*
X654238Y108995D01*
X654474Y108924D01*
X654709Y108848D01*
X654942Y108766D01*
X655172Y108678D01*
X655400Y108585D01*
X655627Y108487D01*
X655175Y103067D02*
X655263Y103030D01*
X655349Y102989D01*
X655434Y102945D01*
X655517Y102897D01*
X655597Y102846D01*
X655676Y102792D01*
X655752Y102734D01*
X655826Y102674D01*
X655898Y102610D01*
X655966Y102544D01*
X656032Y102474D01*
X656095Y102403D01*
X656156Y102328D01*
X656213Y102252D01*
X656266Y102173D01*
X656317Y102092D01*
X656364Y102009D01*
X656408Y101924D01*
X656448Y101837D01*
X656485Y101749D01*
X656518Y101659D01*
X656548Y101568D01*
X656573Y101476D01*
X656595Y101383D01*
X656613Y101289D01*
X656628Y101195D01*
X656638Y101100D01*
X656644Y101004D01*
X656647Y100909D01*
X656646Y100813D01*
X656640Y100718D01*
X656631Y100622D01*
X656618Y100528D01*
X656602Y100434D01*
X656581Y100340D01*
X656556Y100248D01*
X656528Y100157D01*
X656496Y100067D01*
X656461Y99978D01*
X656422Y99891D01*
X656379Y99805D01*
X656333Y99721D01*
X656283Y99640D01*
X656231Y99560D01*
X656175Y99482D01*
X656115Y99407D01*
X656053Y99335D01*
X655988Y99265D01*
X655920Y99197D01*
X655850Y99133D01*
X655777Y99071D01*
X655701Y99013D01*
X655623Y98957D01*
X655543Y98905D01*
X655461Y98856D01*
X655377Y98811D01*
X655291Y98769D01*
X655204Y98730D01*
X655115Y98695D01*
X655024Y98664D01*
X654933Y98637D01*
X654840Y98613D01*
X654747Y98593D01*
X654653Y98577D01*
X654558Y98565D01*
X654463Y98556D01*
X654367Y98552D01*
X654272Y98551D01*
X654272Y98552D02*
X653910Y98561D01*
X653548Y98579D01*
X653187Y98606D01*
X652827Y98641D01*
X652467Y98684D01*
X652108Y98736D01*
X651751Y98797D01*
X651396Y98866D01*
X651042Y98943D01*
X650690Y99029D01*
X650340Y99123D01*
X649992Y99226D01*
X649647Y99336D01*
X649305Y99455D01*
X666464Y98552D02*
X666464Y114808D01*
X661949Y114808D02*
X670980Y114808D01*
X677005Y109389D02*
X677005Y98552D01*
X677005Y109389D02*
X682423Y109389D01*
X682423Y107583D01*
X690428Y104874D02*
X694492Y104874D01*
X690428Y104874D02*
X690316Y104872D01*
X690205Y104866D01*
X690094Y104856D01*
X689983Y104843D01*
X689873Y104825D01*
X689764Y104803D01*
X689655Y104778D01*
X689547Y104749D01*
X689441Y104716D01*
X689335Y104679D01*
X689231Y104639D01*
X689129Y104595D01*
X689028Y104547D01*
X688929Y104496D01*
X688831Y104441D01*
X688736Y104383D01*
X688643Y104322D01*
X688552Y104257D01*
X688463Y104189D01*
X688377Y104118D01*
X688294Y104045D01*
X688213Y103968D01*
X688134Y103888D01*
X688059Y103806D01*
X687987Y103721D01*
X687917Y103634D01*
X687851Y103544D01*
X687788Y103452D01*
X687728Y103357D01*
X687672Y103261D01*
X687619Y103163D01*
X687570Y103063D01*
X687524Y102961D01*
X687482Y102858D01*
X687443Y102753D01*
X687408Y102647D01*
X687377Y102540D01*
X687350Y102432D01*
X687326Y102323D01*
X687307Y102213D01*
X687291Y102103D01*
X687279Y101992D01*
X687271Y101880D01*
X687267Y101769D01*
X687267Y101657D01*
X687271Y101546D01*
X687279Y101434D01*
X687291Y101323D01*
X687307Y101213D01*
X687326Y101103D01*
X687350Y100994D01*
X687377Y100886D01*
X687408Y100779D01*
X687443Y100673D01*
X687482Y100568D01*
X687524Y100465D01*
X687570Y100363D01*
X687619Y100263D01*
X687672Y100165D01*
X687728Y100069D01*
X687788Y99974D01*
X687851Y99882D01*
X687917Y99792D01*
X687987Y99705D01*
X688059Y99620D01*
X688134Y99538D01*
X688213Y99458D01*
X688294Y99381D01*
X688377Y99308D01*
X688463Y99237D01*
X688552Y99169D01*
X688643Y99104D01*
X688736Y99043D01*
X688831Y98985D01*
X688929Y98930D01*
X689028Y98879D01*
X689129Y98831D01*
X689231Y98787D01*
X689335Y98747D01*
X689441Y98710D01*
X689547Y98677D01*
X689655Y98648D01*
X689764Y98623D01*
X689873Y98601D01*
X689983Y98583D01*
X690094Y98570D01*
X690205Y98560D01*
X690316Y98554D01*
X690428Y98552D01*
X694492Y98552D01*
X694492Y106680D01*
X694490Y106781D01*
X694484Y106882D01*
X694475Y106983D01*
X694462Y107084D01*
X694445Y107184D01*
X694424Y107283D01*
X694400Y107381D01*
X694372Y107478D01*
X694340Y107575D01*
X694305Y107670D01*
X694266Y107763D01*
X694224Y107855D01*
X694178Y107946D01*
X694129Y108035D01*
X694077Y108121D01*
X694021Y108206D01*
X693963Y108289D01*
X693901Y108369D01*
X693836Y108447D01*
X693769Y108523D01*
X693699Y108596D01*
X693626Y108666D01*
X693550Y108733D01*
X693472Y108798D01*
X693392Y108860D01*
X693309Y108918D01*
X693224Y108974D01*
X693138Y109026D01*
X693049Y109075D01*
X692958Y109121D01*
X692866Y109163D01*
X692773Y109202D01*
X692678Y109237D01*
X692581Y109269D01*
X692484Y109297D01*
X692386Y109321D01*
X692287Y109342D01*
X692187Y109359D01*
X692086Y109372D01*
X691985Y109381D01*
X691884Y109387D01*
X691783Y109389D01*
X688171Y109389D01*
X704136Y98552D02*
X707748Y98552D01*
X704136Y98552D02*
X704035Y98554D01*
X703934Y98560D01*
X703833Y98569D01*
X703732Y98582D01*
X703632Y98599D01*
X703533Y98620D01*
X703435Y98644D01*
X703338Y98672D01*
X703241Y98704D01*
X703146Y98739D01*
X703053Y98778D01*
X702961Y98820D01*
X702870Y98866D01*
X702782Y98915D01*
X702695Y98967D01*
X702610Y99023D01*
X702527Y99081D01*
X702447Y99143D01*
X702369Y99208D01*
X702293Y99275D01*
X702220Y99345D01*
X702150Y99418D01*
X702083Y99494D01*
X702018Y99572D01*
X701956Y99652D01*
X701898Y99735D01*
X701842Y99820D01*
X701790Y99907D01*
X701741Y99995D01*
X701695Y100086D01*
X701653Y100178D01*
X701614Y100271D01*
X701579Y100366D01*
X701547Y100463D01*
X701519Y100560D01*
X701495Y100658D01*
X701474Y100757D01*
X701457Y100857D01*
X701444Y100958D01*
X701435Y101059D01*
X701429Y101160D01*
X701427Y101261D01*
X701426Y101261D02*
X701426Y106680D01*
X701427Y106680D02*
X701429Y106781D01*
X701435Y106882D01*
X701444Y106983D01*
X701457Y107084D01*
X701474Y107184D01*
X701495Y107283D01*
X701519Y107381D01*
X701547Y107478D01*
X701579Y107575D01*
X701614Y107670D01*
X701653Y107763D01*
X701695Y107855D01*
X701741Y107946D01*
X701790Y108035D01*
X701842Y108121D01*
X701898Y108206D01*
X701956Y108289D01*
X702018Y108369D01*
X702083Y108447D01*
X702150Y108523D01*
X702220Y108596D01*
X702293Y108666D01*
X702369Y108733D01*
X702447Y108798D01*
X702527Y108860D01*
X702610Y108918D01*
X702695Y108974D01*
X702782Y109026D01*
X702870Y109075D01*
X702961Y109121D01*
X703053Y109163D01*
X703146Y109202D01*
X703241Y109237D01*
X703338Y109269D01*
X703435Y109297D01*
X703533Y109321D01*
X703632Y109342D01*
X703732Y109359D01*
X703833Y109372D01*
X703934Y109381D01*
X704035Y109387D01*
X704136Y109389D01*
X707748Y109389D01*
X714083Y114808D02*
X714083Y98552D01*
X714083Y103971D02*
X721307Y109389D01*
X717243Y106228D02*
X721307Y98552D01*
X729649Y98552D02*
X734165Y98552D01*
X729649Y98552D02*
X729548Y98554D01*
X729447Y98560D01*
X729346Y98569D01*
X729245Y98582D01*
X729145Y98599D01*
X729046Y98620D01*
X728948Y98644D01*
X728851Y98672D01*
X728754Y98704D01*
X728659Y98739D01*
X728566Y98778D01*
X728474Y98820D01*
X728383Y98866D01*
X728295Y98915D01*
X728208Y98967D01*
X728123Y99023D01*
X728040Y99081D01*
X727960Y99143D01*
X727882Y99208D01*
X727806Y99275D01*
X727733Y99345D01*
X727663Y99418D01*
X727596Y99494D01*
X727531Y99572D01*
X727469Y99652D01*
X727411Y99735D01*
X727355Y99820D01*
X727303Y99907D01*
X727254Y99995D01*
X727208Y100086D01*
X727166Y100178D01*
X727127Y100271D01*
X727092Y100366D01*
X727060Y100463D01*
X727032Y100560D01*
X727008Y100658D01*
X726987Y100757D01*
X726970Y100857D01*
X726957Y100958D01*
X726948Y101059D01*
X726942Y101160D01*
X726940Y101261D01*
X726940Y105777D01*
X726942Y105896D01*
X726948Y106016D01*
X726958Y106135D01*
X726972Y106253D01*
X726989Y106372D01*
X727011Y106489D01*
X727036Y106606D01*
X727066Y106721D01*
X727099Y106836D01*
X727136Y106950D01*
X727176Y107062D01*
X727221Y107173D01*
X727269Y107282D01*
X727320Y107390D01*
X727375Y107496D01*
X727434Y107600D01*
X727496Y107702D01*
X727561Y107802D01*
X727630Y107900D01*
X727702Y107996D01*
X727777Y108089D01*
X727854Y108179D01*
X727935Y108267D01*
X728019Y108352D01*
X728106Y108434D01*
X728195Y108514D01*
X728287Y108590D01*
X728381Y108664D01*
X728478Y108734D01*
X728576Y108801D01*
X728677Y108865D01*
X728781Y108925D01*
X728886Y108982D01*
X728993Y109035D01*
X729101Y109085D01*
X729211Y109131D01*
X729323Y109173D01*
X729436Y109212D01*
X729550Y109247D01*
X729665Y109278D01*
X729782Y109306D01*
X729899Y109329D01*
X730016Y109349D01*
X730135Y109365D01*
X730254Y109377D01*
X730373Y109385D01*
X730492Y109389D01*
X730612Y109389D01*
X730731Y109385D01*
X730850Y109377D01*
X730969Y109365D01*
X731088Y109349D01*
X731205Y109329D01*
X731322Y109306D01*
X731439Y109278D01*
X731554Y109247D01*
X731668Y109212D01*
X731781Y109173D01*
X731893Y109131D01*
X732003Y109085D01*
X732111Y109035D01*
X732218Y108982D01*
X732323Y108925D01*
X732427Y108865D01*
X732528Y108801D01*
X732626Y108734D01*
X732723Y108664D01*
X732817Y108590D01*
X732909Y108514D01*
X732998Y108434D01*
X733085Y108352D01*
X733169Y108267D01*
X733250Y108179D01*
X733327Y108089D01*
X733402Y107996D01*
X733474Y107900D01*
X733543Y107802D01*
X733608Y107702D01*
X733670Y107600D01*
X733729Y107496D01*
X733784Y107390D01*
X733835Y107282D01*
X733883Y107173D01*
X733928Y107062D01*
X733968Y106950D01*
X734005Y106836D01*
X734038Y106721D01*
X734068Y106606D01*
X734093Y106489D01*
X734115Y106372D01*
X734132Y106253D01*
X734146Y106135D01*
X734156Y106016D01*
X734162Y105896D01*
X734164Y105777D01*
X734165Y105777D02*
X734165Y103971D01*
X726940Y103971D01*
X741093Y98552D02*
X741093Y109389D01*
X746511Y109389D01*
X746511Y107583D01*
X578612Y88138D02*
X578612Y71882D01*
X578612Y88138D02*
X583128Y88138D01*
X583261Y88136D01*
X583393Y88130D01*
X583525Y88120D01*
X583657Y88107D01*
X583789Y88089D01*
X583919Y88068D01*
X584050Y88043D01*
X584179Y88014D01*
X584307Y87981D01*
X584435Y87945D01*
X584561Y87905D01*
X584686Y87861D01*
X584810Y87813D01*
X584932Y87762D01*
X585053Y87707D01*
X585172Y87649D01*
X585290Y87587D01*
X585405Y87522D01*
X585519Y87453D01*
X585630Y87382D01*
X585739Y87306D01*
X585846Y87228D01*
X585951Y87147D01*
X586053Y87062D01*
X586153Y86975D01*
X586250Y86885D01*
X586345Y86792D01*
X586436Y86696D01*
X586525Y86598D01*
X586611Y86497D01*
X586694Y86393D01*
X586774Y86287D01*
X586850Y86179D01*
X586924Y86069D01*
X586994Y85956D01*
X587061Y85842D01*
X587124Y85725D01*
X587184Y85607D01*
X587241Y85487D01*
X587294Y85365D01*
X587343Y85242D01*
X587389Y85118D01*
X587431Y84992D01*
X587469Y84865D01*
X587504Y84737D01*
X587535Y84608D01*
X587562Y84479D01*
X587585Y84348D01*
X587605Y84217D01*
X587620Y84085D01*
X587632Y83953D01*
X587640Y83821D01*
X587644Y83688D01*
X587644Y83556D01*
X587640Y83423D01*
X587632Y83291D01*
X587620Y83159D01*
X587605Y83027D01*
X587585Y82896D01*
X587562Y82765D01*
X587535Y82636D01*
X587504Y82507D01*
X587469Y82379D01*
X587431Y82252D01*
X587389Y82126D01*
X587343Y82002D01*
X587294Y81879D01*
X587241Y81757D01*
X587184Y81637D01*
X587124Y81519D01*
X587061Y81402D01*
X586994Y81288D01*
X586924Y81175D01*
X586850Y81065D01*
X586774Y80957D01*
X586694Y80851D01*
X586611Y80747D01*
X586525Y80646D01*
X586436Y80548D01*
X586345Y80452D01*
X586250Y80359D01*
X586153Y80269D01*
X586053Y80182D01*
X585951Y80097D01*
X585846Y80016D01*
X585739Y79938D01*
X585630Y79862D01*
X585519Y79791D01*
X585405Y79722D01*
X585290Y79657D01*
X585172Y79595D01*
X585053Y79537D01*
X584932Y79482D01*
X584810Y79431D01*
X584686Y79383D01*
X584561Y79339D01*
X584435Y79299D01*
X584307Y79263D01*
X584179Y79230D01*
X584050Y79201D01*
X583919Y79176D01*
X583789Y79155D01*
X583657Y79137D01*
X583525Y79124D01*
X583393Y79114D01*
X583261Y79108D01*
X583128Y79106D01*
X583128Y79107D02*
X578612Y79107D01*
X584031Y79107D02*
X587643Y71882D01*
X596722Y71882D02*
X601238Y71882D01*
X596722Y71882D02*
X596621Y71884D01*
X596520Y71890D01*
X596419Y71899D01*
X596318Y71912D01*
X596218Y71929D01*
X596119Y71950D01*
X596021Y71974D01*
X595924Y72002D01*
X595827Y72034D01*
X595732Y72069D01*
X595639Y72108D01*
X595547Y72150D01*
X595456Y72196D01*
X595368Y72245D01*
X595281Y72297D01*
X595196Y72353D01*
X595113Y72411D01*
X595033Y72473D01*
X594955Y72538D01*
X594879Y72605D01*
X594806Y72675D01*
X594736Y72748D01*
X594669Y72824D01*
X594604Y72902D01*
X594542Y72982D01*
X594484Y73065D01*
X594428Y73150D01*
X594376Y73237D01*
X594327Y73325D01*
X594281Y73416D01*
X594239Y73508D01*
X594200Y73601D01*
X594165Y73696D01*
X594133Y73793D01*
X594105Y73890D01*
X594081Y73988D01*
X594060Y74087D01*
X594043Y74187D01*
X594030Y74288D01*
X594021Y74389D01*
X594015Y74490D01*
X594013Y74591D01*
X594013Y79107D01*
X594015Y79226D01*
X594021Y79346D01*
X594031Y79465D01*
X594045Y79583D01*
X594062Y79702D01*
X594084Y79819D01*
X594109Y79936D01*
X594139Y80051D01*
X594172Y80166D01*
X594209Y80280D01*
X594249Y80392D01*
X594294Y80503D01*
X594342Y80612D01*
X594393Y80720D01*
X594448Y80826D01*
X594507Y80930D01*
X594569Y81032D01*
X594634Y81132D01*
X594703Y81230D01*
X594775Y81326D01*
X594850Y81419D01*
X594927Y81509D01*
X595008Y81597D01*
X595092Y81682D01*
X595179Y81764D01*
X595268Y81844D01*
X595360Y81920D01*
X595454Y81994D01*
X595551Y82064D01*
X595649Y82131D01*
X595750Y82195D01*
X595854Y82255D01*
X595959Y82312D01*
X596066Y82365D01*
X596174Y82415D01*
X596284Y82461D01*
X596396Y82503D01*
X596509Y82542D01*
X596623Y82577D01*
X596738Y82608D01*
X596855Y82636D01*
X596972Y82659D01*
X597089Y82679D01*
X597208Y82695D01*
X597327Y82707D01*
X597446Y82715D01*
X597565Y82719D01*
X597685Y82719D01*
X597804Y82715D01*
X597923Y82707D01*
X598042Y82695D01*
X598161Y82679D01*
X598278Y82659D01*
X598395Y82636D01*
X598512Y82608D01*
X598627Y82577D01*
X598741Y82542D01*
X598854Y82503D01*
X598966Y82461D01*
X599076Y82415D01*
X599184Y82365D01*
X599291Y82312D01*
X599396Y82255D01*
X599500Y82195D01*
X599601Y82131D01*
X599699Y82064D01*
X599796Y81994D01*
X599890Y81920D01*
X599982Y81844D01*
X600071Y81764D01*
X600158Y81682D01*
X600242Y81597D01*
X600323Y81509D01*
X600400Y81419D01*
X600475Y81326D01*
X600547Y81230D01*
X600616Y81132D01*
X600681Y81032D01*
X600743Y80930D01*
X600802Y80826D01*
X600857Y80720D01*
X600908Y80612D01*
X600956Y80503D01*
X601001Y80392D01*
X601041Y80280D01*
X601078Y80166D01*
X601111Y80051D01*
X601141Y79936D01*
X601166Y79819D01*
X601188Y79702D01*
X601205Y79583D01*
X601219Y79465D01*
X601229Y79346D01*
X601235Y79226D01*
X601237Y79107D01*
X601238Y79107D02*
X601238Y77301D01*
X594013Y77301D01*
X607039Y82719D02*
X610651Y71882D01*
X614264Y82719D01*
X620204Y84526D02*
X624719Y88138D01*
X624719Y71882D01*
X620204Y71882D02*
X629235Y71882D01*
X583128Y61468D02*
X583128Y45212D01*
X578612Y61468D02*
X587643Y61468D01*
X597717Y61468D02*
X592298Y45212D01*
X603135Y45212D02*
X597717Y61468D01*
X601781Y49276D02*
X593653Y49276D01*
X609564Y45212D02*
X609564Y61468D01*
X614080Y61468D01*
X614213Y61466D01*
X614345Y61460D01*
X614477Y61450D01*
X614609Y61437D01*
X614741Y61419D01*
X614871Y61398D01*
X615002Y61373D01*
X615131Y61344D01*
X615259Y61311D01*
X615387Y61275D01*
X615513Y61235D01*
X615638Y61191D01*
X615762Y61143D01*
X615884Y61092D01*
X616005Y61037D01*
X616124Y60979D01*
X616242Y60917D01*
X616357Y60852D01*
X616471Y60783D01*
X616582Y60712D01*
X616691Y60636D01*
X616798Y60558D01*
X616903Y60477D01*
X617005Y60392D01*
X617105Y60305D01*
X617202Y60215D01*
X617297Y60122D01*
X617388Y60026D01*
X617477Y59928D01*
X617563Y59827D01*
X617646Y59723D01*
X617726Y59617D01*
X617802Y59509D01*
X617876Y59399D01*
X617946Y59286D01*
X618013Y59172D01*
X618076Y59055D01*
X618136Y58937D01*
X618193Y58817D01*
X618246Y58695D01*
X618295Y58572D01*
X618341Y58448D01*
X618383Y58322D01*
X618421Y58195D01*
X618456Y58067D01*
X618487Y57938D01*
X618514Y57809D01*
X618537Y57678D01*
X618557Y57547D01*
X618572Y57415D01*
X618584Y57283D01*
X618592Y57151D01*
X618596Y57018D01*
X618596Y56886D01*
X618592Y56753D01*
X618584Y56621D01*
X618572Y56489D01*
X618557Y56357D01*
X618537Y56226D01*
X618514Y56095D01*
X618487Y55966D01*
X618456Y55837D01*
X618421Y55709D01*
X618383Y55582D01*
X618341Y55456D01*
X618295Y55332D01*
X618246Y55209D01*
X618193Y55087D01*
X618136Y54967D01*
X618076Y54849D01*
X618013Y54732D01*
X617946Y54618D01*
X617876Y54505D01*
X617802Y54395D01*
X617726Y54287D01*
X617646Y54181D01*
X617563Y54077D01*
X617477Y53976D01*
X617388Y53878D01*
X617297Y53782D01*
X617202Y53689D01*
X617105Y53599D01*
X617005Y53512D01*
X616903Y53427D01*
X616798Y53346D01*
X616691Y53268D01*
X616582Y53192D01*
X616471Y53121D01*
X616357Y53052D01*
X616242Y52987D01*
X616124Y52925D01*
X616005Y52867D01*
X615884Y52812D01*
X615762Y52761D01*
X615638Y52713D01*
X615513Y52669D01*
X615387Y52629D01*
X615259Y52593D01*
X615131Y52560D01*
X615002Y52531D01*
X614871Y52506D01*
X614741Y52485D01*
X614609Y52467D01*
X614477Y52454D01*
X614345Y52444D01*
X614213Y52438D01*
X614080Y52436D01*
X614080Y52437D02*
X609564Y52437D01*
X633351Y45212D02*
X640576Y45212D01*
X633351Y45212D02*
X633351Y61468D01*
X640576Y61468D01*
X638770Y54243D02*
X633351Y54243D01*
X646868Y61468D02*
X646868Y45212D01*
X655900Y45212D02*
X646868Y61468D01*
X655900Y61468D02*
X655900Y45212D01*
X669864Y54243D02*
X672573Y54243D01*
X672573Y45212D01*
X667154Y45212D01*
X667036Y45214D01*
X666918Y45220D01*
X666800Y45229D01*
X666683Y45243D01*
X666566Y45260D01*
X666449Y45281D01*
X666334Y45306D01*
X666219Y45335D01*
X666105Y45368D01*
X665993Y45404D01*
X665882Y45444D01*
X665772Y45487D01*
X665663Y45534D01*
X665556Y45584D01*
X665451Y45639D01*
X665348Y45696D01*
X665247Y45757D01*
X665147Y45821D01*
X665050Y45888D01*
X664955Y45958D01*
X664863Y46032D01*
X664772Y46108D01*
X664685Y46188D01*
X664600Y46270D01*
X664518Y46355D01*
X664438Y46442D01*
X664362Y46533D01*
X664288Y46625D01*
X664218Y46720D01*
X664151Y46817D01*
X664087Y46917D01*
X664026Y47018D01*
X663969Y47121D01*
X663914Y47226D01*
X663864Y47333D01*
X663817Y47442D01*
X663774Y47552D01*
X663734Y47663D01*
X663698Y47775D01*
X663665Y47889D01*
X663636Y48004D01*
X663611Y48119D01*
X663590Y48236D01*
X663573Y48353D01*
X663559Y48470D01*
X663550Y48588D01*
X663544Y48706D01*
X663542Y48824D01*
X663542Y57856D01*
X663544Y57974D01*
X663550Y58092D01*
X663559Y58210D01*
X663573Y58327D01*
X663590Y58444D01*
X663611Y58561D01*
X663636Y58676D01*
X663665Y58791D01*
X663698Y58905D01*
X663734Y59017D01*
X663774Y59128D01*
X663817Y59238D01*
X663864Y59347D01*
X663914Y59454D01*
X663968Y59559D01*
X664026Y59662D01*
X664087Y59763D01*
X664151Y59863D01*
X664218Y59960D01*
X664288Y60055D01*
X664362Y60147D01*
X664438Y60238D01*
X664518Y60325D01*
X664600Y60410D01*
X664685Y60492D01*
X664772Y60572D01*
X664863Y60648D01*
X664955Y60722D01*
X665050Y60792D01*
X665147Y60859D01*
X665247Y60923D01*
X665348Y60984D01*
X665451Y61041D01*
X665556Y61095D01*
X665663Y61146D01*
X665772Y61193D01*
X665882Y61236D01*
X665993Y61276D01*
X666105Y61312D01*
X666219Y61345D01*
X666334Y61374D01*
X666449Y61399D01*
X666566Y61420D01*
X666683Y61437D01*
X666800Y61451D01*
X666918Y61460D01*
X667036Y61466D01*
X667154Y61468D01*
X672573Y61468D01*
X681083Y61468D02*
X681083Y45212D01*
X679277Y45212D02*
X682890Y45212D01*
X682890Y61468D02*
X679277Y61468D01*
X697409Y45212D02*
X701925Y45212D01*
X702058Y45214D01*
X702190Y45220D01*
X702322Y45230D01*
X702454Y45243D01*
X702586Y45261D01*
X702716Y45282D01*
X702847Y45307D01*
X702976Y45336D01*
X703104Y45369D01*
X703232Y45405D01*
X703358Y45445D01*
X703483Y45489D01*
X703607Y45537D01*
X703729Y45588D01*
X703850Y45643D01*
X703969Y45701D01*
X704087Y45763D01*
X704202Y45828D01*
X704316Y45897D01*
X704427Y45968D01*
X704536Y46044D01*
X704643Y46122D01*
X704748Y46203D01*
X704850Y46288D01*
X704950Y46375D01*
X705047Y46465D01*
X705142Y46558D01*
X705233Y46654D01*
X705322Y46752D01*
X705408Y46853D01*
X705491Y46957D01*
X705571Y47063D01*
X705647Y47171D01*
X705721Y47281D01*
X705791Y47394D01*
X705858Y47508D01*
X705921Y47625D01*
X705981Y47743D01*
X706038Y47863D01*
X706091Y47985D01*
X706140Y48108D01*
X706186Y48232D01*
X706228Y48358D01*
X706266Y48485D01*
X706301Y48613D01*
X706332Y48742D01*
X706359Y48871D01*
X706382Y49002D01*
X706402Y49133D01*
X706417Y49265D01*
X706429Y49397D01*
X706437Y49529D01*
X706441Y49662D01*
X706441Y49794D01*
X706437Y49927D01*
X706429Y50059D01*
X706417Y50191D01*
X706402Y50323D01*
X706382Y50454D01*
X706359Y50585D01*
X706332Y50714D01*
X706301Y50843D01*
X706266Y50971D01*
X706228Y51098D01*
X706186Y51224D01*
X706140Y51348D01*
X706091Y51471D01*
X706038Y51593D01*
X705981Y51713D01*
X705921Y51831D01*
X705858Y51948D01*
X705791Y52062D01*
X705721Y52175D01*
X705647Y52285D01*
X705571Y52393D01*
X705491Y52499D01*
X705408Y52603D01*
X705322Y52704D01*
X705233Y52802D01*
X705142Y52898D01*
X705047Y52991D01*
X704950Y53081D01*
X704850Y53168D01*
X704748Y53253D01*
X704643Y53334D01*
X704536Y53412D01*
X704427Y53488D01*
X704316Y53559D01*
X704202Y53628D01*
X704087Y53693D01*
X703969Y53755D01*
X703850Y53813D01*
X703729Y53868D01*
X703607Y53919D01*
X703483Y53967D01*
X703358Y54011D01*
X703232Y54051D01*
X703104Y54087D01*
X702976Y54120D01*
X702847Y54149D01*
X702716Y54174D01*
X702586Y54195D01*
X702454Y54213D01*
X702322Y54226D01*
X702190Y54236D01*
X702058Y54242D01*
X701925Y54244D01*
X702828Y61468D02*
X697409Y61468D01*
X702828Y61468D02*
X702947Y61466D01*
X703067Y61460D01*
X703186Y61450D01*
X703304Y61436D01*
X703423Y61419D01*
X703540Y61397D01*
X703657Y61372D01*
X703772Y61342D01*
X703887Y61309D01*
X704001Y61272D01*
X704113Y61232D01*
X704224Y61187D01*
X704333Y61139D01*
X704441Y61088D01*
X704547Y61033D01*
X704651Y60974D01*
X704753Y60912D01*
X704853Y60847D01*
X704951Y60778D01*
X705047Y60706D01*
X705140Y60631D01*
X705230Y60554D01*
X705318Y60473D01*
X705403Y60389D01*
X705485Y60302D01*
X705565Y60213D01*
X705641Y60121D01*
X705715Y60027D01*
X705785Y59930D01*
X705852Y59832D01*
X705916Y59731D01*
X705976Y59627D01*
X706033Y59522D01*
X706086Y59415D01*
X706136Y59307D01*
X706182Y59197D01*
X706224Y59085D01*
X706263Y58972D01*
X706298Y58858D01*
X706329Y58743D01*
X706357Y58626D01*
X706380Y58509D01*
X706400Y58392D01*
X706416Y58273D01*
X706428Y58154D01*
X706436Y58035D01*
X706440Y57916D01*
X706440Y57796D01*
X706436Y57677D01*
X706428Y57558D01*
X706416Y57439D01*
X706400Y57320D01*
X706380Y57203D01*
X706357Y57086D01*
X706329Y56969D01*
X706298Y56854D01*
X706263Y56740D01*
X706224Y56627D01*
X706182Y56515D01*
X706136Y56405D01*
X706086Y56297D01*
X706033Y56190D01*
X705976Y56085D01*
X705916Y55981D01*
X705852Y55880D01*
X705785Y55782D01*
X705715Y55685D01*
X705641Y55591D01*
X705565Y55499D01*
X705485Y55410D01*
X705403Y55323D01*
X705318Y55239D01*
X705230Y55158D01*
X705140Y55081D01*
X705047Y55006D01*
X704951Y54934D01*
X704853Y54865D01*
X704753Y54800D01*
X704651Y54738D01*
X704547Y54679D01*
X704441Y54624D01*
X704333Y54573D01*
X704224Y54525D01*
X704113Y54480D01*
X704001Y54440D01*
X703887Y54403D01*
X703772Y54370D01*
X703657Y54340D01*
X703540Y54315D01*
X703423Y54293D01*
X703304Y54276D01*
X703186Y54262D01*
X703067Y54252D01*
X702947Y54246D01*
X702828Y54244D01*
X702828Y54243D02*
X699216Y54243D01*
X713041Y53340D02*
X713045Y53660D01*
X713056Y53979D01*
X713075Y54299D01*
X713102Y54617D01*
X713136Y54935D01*
X713178Y55252D01*
X713228Y55568D01*
X713285Y55883D01*
X713349Y56196D01*
X713421Y56508D01*
X713500Y56818D01*
X713587Y57125D01*
X713681Y57431D01*
X713782Y57734D01*
X713891Y58035D01*
X714006Y58333D01*
X714129Y58629D01*
X714259Y58921D01*
X714396Y59210D01*
X714395Y59211D02*
X714434Y59319D01*
X714477Y59426D01*
X714523Y59531D01*
X714574Y59635D01*
X714627Y59737D01*
X714684Y59837D01*
X714745Y59935D01*
X714809Y60030D01*
X714876Y60124D01*
X714947Y60215D01*
X715020Y60304D01*
X715097Y60390D01*
X715176Y60473D01*
X715258Y60554D01*
X715343Y60632D01*
X715431Y60706D01*
X715521Y60778D01*
X715613Y60846D01*
X715708Y60912D01*
X715805Y60974D01*
X715904Y61032D01*
X716006Y61088D01*
X716108Y61139D01*
X716213Y61187D01*
X716319Y61232D01*
X716427Y61273D01*
X716536Y61310D01*
X716646Y61343D01*
X716758Y61372D01*
X716870Y61398D01*
X716983Y61420D01*
X717097Y61437D01*
X717211Y61451D01*
X717326Y61461D01*
X717441Y61467D01*
X717556Y61469D01*
X717556Y61468D02*
X717671Y61466D01*
X717786Y61460D01*
X717901Y61450D01*
X718015Y61436D01*
X718129Y61419D01*
X718242Y61397D01*
X718354Y61371D01*
X718466Y61342D01*
X718576Y61309D01*
X718685Y61272D01*
X718793Y61231D01*
X718899Y61186D01*
X719004Y61138D01*
X719106Y61087D01*
X719207Y61031D01*
X719307Y60973D01*
X719404Y60911D01*
X719498Y60846D01*
X719591Y60777D01*
X719681Y60705D01*
X719769Y60631D01*
X719854Y60553D01*
X719936Y60472D01*
X720015Y60389D01*
X720092Y60303D01*
X720165Y60214D01*
X720236Y60123D01*
X720303Y60029D01*
X720367Y59934D01*
X720428Y59836D01*
X720485Y59736D01*
X720538Y59634D01*
X720589Y59530D01*
X720635Y59425D01*
X720678Y59318D01*
X720717Y59210D01*
X720716Y59210D02*
X720853Y58921D01*
X720983Y58629D01*
X721106Y58333D01*
X721221Y58035D01*
X721330Y57734D01*
X721431Y57431D01*
X721525Y57125D01*
X721612Y56818D01*
X721691Y56508D01*
X721763Y56196D01*
X721827Y55883D01*
X721884Y55568D01*
X721934Y55252D01*
X721976Y54935D01*
X722010Y54617D01*
X722037Y54299D01*
X722056Y53979D01*
X722067Y53660D01*
X722071Y53340D01*
X713041Y53340D02*
X713045Y53020D01*
X713056Y52701D01*
X713075Y52381D01*
X713102Y52063D01*
X713136Y51745D01*
X713178Y51428D01*
X713228Y51112D01*
X713285Y50797D01*
X713349Y50484D01*
X713421Y50172D01*
X713500Y49862D01*
X713587Y49555D01*
X713681Y49249D01*
X713782Y48946D01*
X713891Y48645D01*
X714006Y48347D01*
X714129Y48051D01*
X714259Y47759D01*
X714396Y47470D01*
X714395Y47470D02*
X714434Y47362D01*
X714477Y47255D01*
X714523Y47150D01*
X714574Y47046D01*
X714627Y46944D01*
X714684Y46844D01*
X714745Y46746D01*
X714809Y46651D01*
X714876Y46557D01*
X714947Y46466D01*
X715020Y46377D01*
X715097Y46291D01*
X715176Y46208D01*
X715258Y46127D01*
X715343Y46049D01*
X715431Y45975D01*
X715521Y45903D01*
X715614Y45834D01*
X715708Y45769D01*
X715805Y45707D01*
X715905Y45649D01*
X716006Y45593D01*
X716108Y45542D01*
X716213Y45494D01*
X716319Y45449D01*
X716427Y45408D01*
X716536Y45371D01*
X716646Y45338D01*
X716758Y45309D01*
X716870Y45283D01*
X716983Y45261D01*
X717097Y45244D01*
X717211Y45230D01*
X717326Y45220D01*
X717441Y45214D01*
X717556Y45212D01*
X720716Y47470D02*
X720853Y47759D01*
X720983Y48051D01*
X721106Y48347D01*
X721221Y48645D01*
X721330Y48946D01*
X721431Y49249D01*
X721525Y49555D01*
X721612Y49862D01*
X721691Y50172D01*
X721763Y50484D01*
X721827Y50797D01*
X721884Y51112D01*
X721934Y51428D01*
X721976Y51745D01*
X722010Y52063D01*
X722037Y52381D01*
X722056Y52701D01*
X722067Y53020D01*
X722071Y53340D01*
X720717Y47470D02*
X720678Y47362D01*
X720635Y47255D01*
X720589Y47150D01*
X720538Y47046D01*
X720485Y46944D01*
X720428Y46844D01*
X720367Y46746D01*
X720303Y46651D01*
X720236Y46557D01*
X720165Y46466D01*
X720092Y46377D01*
X720015Y46291D01*
X719936Y46208D01*
X719854Y46127D01*
X719769Y46049D01*
X719681Y45975D01*
X719591Y45903D01*
X719498Y45834D01*
X719404Y45769D01*
X719307Y45707D01*
X719207Y45649D01*
X719106Y45593D01*
X719003Y45542D01*
X718899Y45494D01*
X718793Y45449D01*
X718685Y45408D01*
X718576Y45371D01*
X718466Y45338D01*
X718354Y45309D01*
X718242Y45283D01*
X718129Y45261D01*
X718015Y45244D01*
X717901Y45230D01*
X717786Y45220D01*
X717671Y45214D01*
X717556Y45212D01*
X713944Y48824D02*
X721169Y57856D01*
X728672Y57856D02*
X733187Y61468D01*
X733187Y45212D01*
X728672Y45212D02*
X737703Y45212D01*
X558631Y419862D02*
X558749Y419864D01*
X558867Y419870D01*
X558985Y419879D01*
X559102Y419893D01*
X559219Y419910D01*
X559336Y419931D01*
X559451Y419956D01*
X559566Y419985D01*
X559680Y420018D01*
X559792Y420054D01*
X559903Y420094D01*
X560013Y420137D01*
X560122Y420184D01*
X560229Y420234D01*
X560334Y420289D01*
X560437Y420346D01*
X560538Y420407D01*
X560638Y420471D01*
X560735Y420538D01*
X560830Y420608D01*
X560922Y420682D01*
X561013Y420758D01*
X561100Y420838D01*
X561185Y420920D01*
X561267Y421005D01*
X561347Y421092D01*
X561423Y421183D01*
X561497Y421275D01*
X561567Y421370D01*
X561634Y421467D01*
X561698Y421567D01*
X561759Y421668D01*
X561816Y421771D01*
X561871Y421876D01*
X561921Y421983D01*
X561968Y422092D01*
X562011Y422202D01*
X562051Y422313D01*
X562087Y422425D01*
X562120Y422539D01*
X562149Y422654D01*
X562174Y422769D01*
X562195Y422886D01*
X562212Y423003D01*
X562226Y423120D01*
X562235Y423238D01*
X562241Y423356D01*
X562243Y423474D01*
X558631Y419862D02*
X558448Y419864D01*
X558266Y419871D01*
X558084Y419882D01*
X557902Y419897D01*
X557720Y419917D01*
X557539Y419940D01*
X557359Y419969D01*
X557179Y420001D01*
X557000Y420038D01*
X556823Y420079D01*
X556646Y420125D01*
X556470Y420174D01*
X556296Y420228D01*
X556122Y420286D01*
X555951Y420348D01*
X555781Y420414D01*
X555612Y420485D01*
X555445Y420559D01*
X555280Y420637D01*
X555117Y420719D01*
X554956Y420805D01*
X554797Y420895D01*
X554640Y420989D01*
X554486Y421086D01*
X554334Y421187D01*
X554184Y421292D01*
X554037Y421400D01*
X553893Y421511D01*
X553751Y421626D01*
X553612Y421745D01*
X553476Y421867D01*
X553343Y421992D01*
X553213Y422120D01*
X553664Y432506D02*
X553666Y432624D01*
X553672Y432742D01*
X553681Y432860D01*
X553695Y432977D01*
X553712Y433094D01*
X553733Y433211D01*
X553758Y433326D01*
X553787Y433441D01*
X553820Y433555D01*
X553856Y433667D01*
X553896Y433778D01*
X553939Y433888D01*
X553986Y433997D01*
X554036Y434104D01*
X554091Y434209D01*
X554148Y434312D01*
X554209Y434413D01*
X554273Y434513D01*
X554340Y434610D01*
X554410Y434705D01*
X554484Y434797D01*
X554560Y434888D01*
X554640Y434975D01*
X554722Y435060D01*
X554807Y435142D01*
X554894Y435222D01*
X554985Y435298D01*
X555077Y435372D01*
X555172Y435442D01*
X555269Y435509D01*
X555369Y435573D01*
X555470Y435634D01*
X555573Y435692D01*
X555678Y435746D01*
X555785Y435796D01*
X555894Y435843D01*
X556004Y435887D01*
X556115Y435926D01*
X556228Y435962D01*
X556341Y435995D01*
X556456Y436024D01*
X556571Y436049D01*
X556688Y436070D01*
X556805Y436087D01*
X556922Y436101D01*
X557040Y436110D01*
X557158Y436116D01*
X557276Y436118D01*
X557437Y436116D01*
X557599Y436110D01*
X557760Y436101D01*
X557921Y436087D01*
X558081Y436070D01*
X558241Y436049D01*
X558401Y436024D01*
X558560Y435995D01*
X558718Y435963D01*
X558875Y435927D01*
X559031Y435887D01*
X559187Y435843D01*
X559341Y435795D01*
X559494Y435744D01*
X559646Y435690D01*
X559797Y435631D01*
X559946Y435570D01*
X560093Y435504D01*
X560239Y435435D01*
X560384Y435363D01*
X560526Y435287D01*
X560667Y435208D01*
X560806Y435126D01*
X560942Y435040D01*
X561077Y434951D01*
X561210Y434859D01*
X561340Y434763D01*
X555469Y429345D02*
X555368Y429407D01*
X555268Y429472D01*
X555171Y429541D01*
X555076Y429613D01*
X554983Y429687D01*
X554893Y429765D01*
X554805Y429846D01*
X554720Y429929D01*
X554638Y430015D01*
X554559Y430104D01*
X554482Y430195D01*
X554409Y430289D01*
X554338Y430385D01*
X554271Y430483D01*
X554207Y430583D01*
X554146Y430686D01*
X554089Y430790D01*
X554035Y430896D01*
X553985Y431004D01*
X553938Y431113D01*
X553894Y431224D01*
X553854Y431336D01*
X553818Y431450D01*
X553786Y431564D01*
X553757Y431680D01*
X553732Y431796D01*
X553711Y431913D01*
X553694Y432031D01*
X553680Y432149D01*
X553671Y432268D01*
X553665Y432387D01*
X553663Y432506D01*
X560437Y426635D02*
X560538Y426573D01*
X560638Y426508D01*
X560735Y426439D01*
X560830Y426367D01*
X560923Y426293D01*
X561013Y426215D01*
X561101Y426134D01*
X561186Y426051D01*
X561268Y425965D01*
X561347Y425876D01*
X561424Y425785D01*
X561497Y425691D01*
X561568Y425595D01*
X561635Y425497D01*
X561699Y425397D01*
X561760Y425294D01*
X561817Y425190D01*
X561871Y425084D01*
X561921Y424976D01*
X561968Y424867D01*
X562012Y424756D01*
X562052Y424644D01*
X562088Y424530D01*
X562120Y424416D01*
X562149Y424300D01*
X562174Y424184D01*
X562195Y424067D01*
X562212Y423949D01*
X562226Y423831D01*
X562235Y423712D01*
X562241Y423593D01*
X562243Y423474D01*
X560437Y426635D02*
X555470Y429345D01*
X568873Y419862D02*
X576098Y419862D01*
X568873Y419862D02*
X568873Y436118D01*
X576098Y436118D01*
X574292Y428893D02*
X568873Y428893D01*
X582390Y436118D02*
X582390Y419862D01*
X591421Y419862D02*
X582390Y436118D01*
X591421Y436118D02*
X591421Y419862D01*
X603440Y419862D02*
X603558Y419864D01*
X603676Y419870D01*
X603794Y419879D01*
X603911Y419893D01*
X604028Y419910D01*
X604145Y419931D01*
X604260Y419956D01*
X604375Y419985D01*
X604489Y420018D01*
X604601Y420054D01*
X604712Y420094D01*
X604822Y420137D01*
X604931Y420184D01*
X605038Y420234D01*
X605143Y420289D01*
X605246Y420346D01*
X605347Y420407D01*
X605447Y420471D01*
X605544Y420538D01*
X605639Y420608D01*
X605731Y420682D01*
X605822Y420758D01*
X605909Y420838D01*
X605994Y420920D01*
X606076Y421005D01*
X606156Y421092D01*
X606232Y421183D01*
X606306Y421275D01*
X606376Y421370D01*
X606443Y421467D01*
X606507Y421567D01*
X606568Y421668D01*
X606625Y421771D01*
X606680Y421876D01*
X606730Y421983D01*
X606777Y422092D01*
X606820Y422202D01*
X606860Y422313D01*
X606896Y422425D01*
X606929Y422539D01*
X606958Y422654D01*
X606983Y422769D01*
X607004Y422886D01*
X607021Y423003D01*
X607035Y423120D01*
X607044Y423238D01*
X607050Y423356D01*
X607052Y423474D01*
X603440Y419862D02*
X603257Y419864D01*
X603075Y419871D01*
X602893Y419882D01*
X602711Y419897D01*
X602529Y419917D01*
X602348Y419940D01*
X602168Y419969D01*
X601988Y420001D01*
X601809Y420038D01*
X601632Y420079D01*
X601455Y420125D01*
X601279Y420174D01*
X601105Y420228D01*
X600931Y420286D01*
X600760Y420348D01*
X600590Y420414D01*
X600421Y420485D01*
X600254Y420559D01*
X600089Y420637D01*
X599926Y420719D01*
X599765Y420805D01*
X599606Y420895D01*
X599449Y420989D01*
X599295Y421086D01*
X599143Y421187D01*
X598993Y421292D01*
X598846Y421400D01*
X598702Y421511D01*
X598560Y421626D01*
X598421Y421745D01*
X598285Y421867D01*
X598152Y421992D01*
X598022Y422120D01*
X598474Y432506D02*
X598476Y432624D01*
X598482Y432742D01*
X598491Y432860D01*
X598505Y432977D01*
X598522Y433094D01*
X598543Y433211D01*
X598568Y433326D01*
X598597Y433441D01*
X598630Y433555D01*
X598666Y433667D01*
X598706Y433778D01*
X598749Y433888D01*
X598796Y433997D01*
X598846Y434104D01*
X598901Y434209D01*
X598958Y434312D01*
X599019Y434413D01*
X599083Y434513D01*
X599150Y434610D01*
X599220Y434705D01*
X599294Y434797D01*
X599370Y434888D01*
X599450Y434975D01*
X599532Y435060D01*
X599617Y435142D01*
X599704Y435222D01*
X599795Y435298D01*
X599887Y435372D01*
X599982Y435442D01*
X600079Y435509D01*
X600179Y435573D01*
X600280Y435634D01*
X600383Y435692D01*
X600488Y435746D01*
X600595Y435796D01*
X600704Y435843D01*
X600814Y435887D01*
X600925Y435926D01*
X601038Y435962D01*
X601151Y435995D01*
X601266Y436024D01*
X601381Y436049D01*
X601498Y436070D01*
X601615Y436087D01*
X601732Y436101D01*
X601850Y436110D01*
X601968Y436116D01*
X602086Y436118D01*
X602247Y436116D01*
X602409Y436110D01*
X602570Y436101D01*
X602731Y436087D01*
X602891Y436070D01*
X603051Y436049D01*
X603211Y436024D01*
X603370Y435995D01*
X603528Y435963D01*
X603685Y435927D01*
X603841Y435887D01*
X603997Y435843D01*
X604151Y435795D01*
X604304Y435744D01*
X604456Y435690D01*
X604607Y435631D01*
X604756Y435570D01*
X604903Y435504D01*
X605049Y435435D01*
X605194Y435363D01*
X605336Y435287D01*
X605477Y435208D01*
X605616Y435126D01*
X605752Y435040D01*
X605887Y434951D01*
X606020Y434859D01*
X606150Y434763D01*
X600279Y429345D02*
X600178Y429407D01*
X600078Y429472D01*
X599981Y429541D01*
X599886Y429613D01*
X599793Y429687D01*
X599703Y429765D01*
X599615Y429846D01*
X599530Y429929D01*
X599448Y430015D01*
X599369Y430104D01*
X599292Y430195D01*
X599219Y430289D01*
X599148Y430385D01*
X599081Y430483D01*
X599017Y430583D01*
X598956Y430686D01*
X598899Y430790D01*
X598845Y430896D01*
X598795Y431004D01*
X598748Y431113D01*
X598704Y431224D01*
X598664Y431336D01*
X598628Y431450D01*
X598596Y431564D01*
X598567Y431680D01*
X598542Y431796D01*
X598521Y431913D01*
X598504Y432031D01*
X598490Y432149D01*
X598481Y432268D01*
X598475Y432387D01*
X598473Y432506D01*
X605247Y426635D02*
X605348Y426573D01*
X605448Y426508D01*
X605545Y426439D01*
X605640Y426367D01*
X605733Y426293D01*
X605823Y426215D01*
X605911Y426134D01*
X605996Y426051D01*
X606078Y425965D01*
X606157Y425876D01*
X606234Y425785D01*
X606307Y425691D01*
X606378Y425595D01*
X606445Y425497D01*
X606509Y425397D01*
X606570Y425294D01*
X606627Y425190D01*
X606681Y425084D01*
X606731Y424976D01*
X606778Y424867D01*
X606822Y424756D01*
X606862Y424644D01*
X606898Y424530D01*
X606930Y424416D01*
X606959Y424300D01*
X606984Y424184D01*
X607005Y424067D01*
X607022Y423949D01*
X607036Y423831D01*
X607045Y423712D01*
X607051Y423593D01*
X607053Y423474D01*
X605246Y426635D02*
X600279Y429345D01*
X613132Y431602D02*
X613132Y424378D01*
X613131Y431602D02*
X613133Y431735D01*
X613139Y431867D01*
X613149Y431999D01*
X613162Y432131D01*
X613180Y432263D01*
X613201Y432393D01*
X613226Y432524D01*
X613255Y432653D01*
X613288Y432781D01*
X613324Y432909D01*
X613364Y433035D01*
X613408Y433160D01*
X613456Y433284D01*
X613507Y433406D01*
X613562Y433527D01*
X613620Y433646D01*
X613682Y433764D01*
X613747Y433879D01*
X613816Y433993D01*
X613887Y434104D01*
X613963Y434213D01*
X614041Y434320D01*
X614122Y434425D01*
X614207Y434527D01*
X614294Y434627D01*
X614384Y434724D01*
X614477Y434819D01*
X614573Y434910D01*
X614671Y434999D01*
X614772Y435085D01*
X614876Y435168D01*
X614982Y435248D01*
X615090Y435324D01*
X615200Y435398D01*
X615313Y435468D01*
X615427Y435535D01*
X615544Y435598D01*
X615662Y435658D01*
X615782Y435715D01*
X615904Y435768D01*
X616027Y435817D01*
X616151Y435863D01*
X616277Y435905D01*
X616404Y435943D01*
X616532Y435978D01*
X616661Y436009D01*
X616790Y436036D01*
X616921Y436059D01*
X617052Y436079D01*
X617184Y436094D01*
X617316Y436106D01*
X617448Y436114D01*
X617581Y436118D01*
X617713Y436118D01*
X617846Y436114D01*
X617978Y436106D01*
X618110Y436094D01*
X618242Y436079D01*
X618373Y436059D01*
X618504Y436036D01*
X618633Y436009D01*
X618762Y435978D01*
X618890Y435943D01*
X619017Y435905D01*
X619143Y435863D01*
X619267Y435817D01*
X619390Y435768D01*
X619512Y435715D01*
X619632Y435658D01*
X619750Y435598D01*
X619867Y435535D01*
X619981Y435468D01*
X620094Y435398D01*
X620204Y435324D01*
X620312Y435248D01*
X620418Y435168D01*
X620522Y435085D01*
X620623Y434999D01*
X620721Y434910D01*
X620817Y434819D01*
X620910Y434724D01*
X621000Y434627D01*
X621087Y434527D01*
X621172Y434425D01*
X621253Y434320D01*
X621331Y434213D01*
X621407Y434104D01*
X621478Y433993D01*
X621547Y433879D01*
X621612Y433764D01*
X621674Y433646D01*
X621732Y433527D01*
X621787Y433406D01*
X621838Y433284D01*
X621886Y433160D01*
X621930Y433035D01*
X621970Y432909D01*
X622006Y432781D01*
X622039Y432653D01*
X622068Y432524D01*
X622093Y432393D01*
X622114Y432263D01*
X622132Y432131D01*
X622145Y431999D01*
X622155Y431867D01*
X622161Y431735D01*
X622163Y431602D01*
X622163Y424378D01*
X622161Y424245D01*
X622155Y424113D01*
X622145Y423981D01*
X622132Y423849D01*
X622114Y423717D01*
X622093Y423587D01*
X622068Y423456D01*
X622039Y423327D01*
X622006Y423199D01*
X621970Y423071D01*
X621930Y422945D01*
X621886Y422820D01*
X621838Y422696D01*
X621787Y422574D01*
X621732Y422453D01*
X621674Y422334D01*
X621612Y422216D01*
X621547Y422101D01*
X621478Y421987D01*
X621407Y421876D01*
X621331Y421767D01*
X621253Y421660D01*
X621172Y421555D01*
X621087Y421453D01*
X621000Y421353D01*
X620910Y421256D01*
X620817Y421161D01*
X620721Y421070D01*
X620623Y420981D01*
X620522Y420895D01*
X620418Y420812D01*
X620312Y420732D01*
X620204Y420656D01*
X620094Y420582D01*
X619981Y420512D01*
X619867Y420445D01*
X619750Y420382D01*
X619632Y420322D01*
X619512Y420265D01*
X619390Y420212D01*
X619267Y420163D01*
X619143Y420117D01*
X619017Y420075D01*
X618890Y420037D01*
X618762Y420002D01*
X618633Y419971D01*
X618504Y419944D01*
X618373Y419921D01*
X618242Y419901D01*
X618110Y419886D01*
X617978Y419874D01*
X617846Y419866D01*
X617713Y419862D01*
X617581Y419862D01*
X617448Y419866D01*
X617316Y419874D01*
X617184Y419886D01*
X617052Y419901D01*
X616921Y419921D01*
X616790Y419944D01*
X616661Y419971D01*
X616532Y420002D01*
X616404Y420037D01*
X616277Y420075D01*
X616151Y420117D01*
X616027Y420163D01*
X615904Y420212D01*
X615782Y420265D01*
X615662Y420322D01*
X615544Y420382D01*
X615427Y420445D01*
X615313Y420512D01*
X615200Y420582D01*
X615090Y420656D01*
X614982Y420732D01*
X614876Y420812D01*
X614772Y420895D01*
X614671Y420981D01*
X614573Y421070D01*
X614477Y421161D01*
X614384Y421256D01*
X614294Y421353D01*
X614207Y421453D01*
X614122Y421555D01*
X614041Y421660D01*
X613963Y421767D01*
X613887Y421876D01*
X613816Y421987D01*
X613747Y422101D01*
X613682Y422216D01*
X613620Y422334D01*
X613562Y422453D01*
X613507Y422574D01*
X613456Y422696D01*
X613408Y422820D01*
X613364Y422945D01*
X613324Y423071D01*
X613288Y423199D01*
X613255Y423327D01*
X613226Y423456D01*
X613201Y423587D01*
X613180Y423717D01*
X613162Y423849D01*
X613149Y423981D01*
X613139Y424113D01*
X613133Y424245D01*
X613131Y424378D01*
X629376Y419862D02*
X629376Y436118D01*
X633891Y436118D01*
X634024Y436116D01*
X634156Y436110D01*
X634288Y436100D01*
X634420Y436087D01*
X634552Y436069D01*
X634682Y436048D01*
X634813Y436023D01*
X634942Y435994D01*
X635070Y435961D01*
X635198Y435925D01*
X635324Y435885D01*
X635449Y435841D01*
X635573Y435793D01*
X635695Y435742D01*
X635816Y435687D01*
X635935Y435629D01*
X636053Y435567D01*
X636168Y435502D01*
X636282Y435433D01*
X636393Y435362D01*
X636502Y435286D01*
X636609Y435208D01*
X636714Y435127D01*
X636816Y435042D01*
X636916Y434955D01*
X637013Y434865D01*
X637108Y434772D01*
X637199Y434676D01*
X637288Y434578D01*
X637374Y434477D01*
X637457Y434373D01*
X637537Y434267D01*
X637613Y434159D01*
X637687Y434049D01*
X637757Y433936D01*
X637824Y433822D01*
X637887Y433705D01*
X637947Y433587D01*
X638004Y433467D01*
X638057Y433345D01*
X638106Y433222D01*
X638152Y433098D01*
X638194Y432972D01*
X638232Y432845D01*
X638267Y432717D01*
X638298Y432588D01*
X638325Y432459D01*
X638348Y432328D01*
X638368Y432197D01*
X638383Y432065D01*
X638395Y431933D01*
X638403Y431801D01*
X638407Y431668D01*
X638407Y431536D01*
X638403Y431403D01*
X638395Y431271D01*
X638383Y431139D01*
X638368Y431007D01*
X638348Y430876D01*
X638325Y430745D01*
X638298Y430616D01*
X638267Y430487D01*
X638232Y430359D01*
X638194Y430232D01*
X638152Y430106D01*
X638106Y429982D01*
X638057Y429859D01*
X638004Y429737D01*
X637947Y429617D01*
X637887Y429499D01*
X637824Y429382D01*
X637757Y429268D01*
X637687Y429155D01*
X637613Y429045D01*
X637537Y428937D01*
X637457Y428831D01*
X637374Y428727D01*
X637288Y428626D01*
X637199Y428528D01*
X637108Y428432D01*
X637013Y428339D01*
X636916Y428249D01*
X636816Y428162D01*
X636714Y428077D01*
X636609Y427996D01*
X636502Y427918D01*
X636393Y427842D01*
X636282Y427771D01*
X636168Y427702D01*
X636053Y427637D01*
X635935Y427575D01*
X635816Y427517D01*
X635695Y427462D01*
X635573Y427411D01*
X635449Y427363D01*
X635324Y427319D01*
X635198Y427279D01*
X635070Y427243D01*
X634942Y427210D01*
X634813Y427181D01*
X634682Y427156D01*
X634552Y427135D01*
X634420Y427117D01*
X634288Y427104D01*
X634156Y427094D01*
X634024Y427088D01*
X633891Y427086D01*
X633891Y427087D02*
X629376Y427087D01*
X634794Y427087D02*
X638407Y419862D01*
X649813Y419862D02*
X649931Y419864D01*
X650049Y419870D01*
X650167Y419879D01*
X650284Y419893D01*
X650401Y419910D01*
X650518Y419931D01*
X650633Y419956D01*
X650748Y419985D01*
X650862Y420018D01*
X650974Y420054D01*
X651085Y420094D01*
X651195Y420137D01*
X651304Y420184D01*
X651411Y420234D01*
X651516Y420289D01*
X651619Y420346D01*
X651720Y420407D01*
X651820Y420471D01*
X651917Y420538D01*
X652012Y420608D01*
X652104Y420682D01*
X652195Y420758D01*
X652282Y420838D01*
X652367Y420920D01*
X652449Y421005D01*
X652529Y421092D01*
X652605Y421183D01*
X652679Y421275D01*
X652749Y421370D01*
X652816Y421467D01*
X652880Y421567D01*
X652941Y421668D01*
X652998Y421771D01*
X653053Y421876D01*
X653103Y421983D01*
X653150Y422092D01*
X653193Y422202D01*
X653233Y422313D01*
X653269Y422425D01*
X653302Y422539D01*
X653331Y422654D01*
X653356Y422769D01*
X653377Y422886D01*
X653394Y423003D01*
X653408Y423120D01*
X653417Y423238D01*
X653423Y423356D01*
X653425Y423474D01*
X649813Y419862D02*
X649630Y419864D01*
X649448Y419871D01*
X649266Y419882D01*
X649084Y419897D01*
X648902Y419917D01*
X648721Y419940D01*
X648541Y419969D01*
X648361Y420001D01*
X648182Y420038D01*
X648005Y420079D01*
X647828Y420125D01*
X647652Y420174D01*
X647478Y420228D01*
X647304Y420286D01*
X647133Y420348D01*
X646963Y420414D01*
X646794Y420485D01*
X646627Y420559D01*
X646462Y420637D01*
X646299Y420719D01*
X646138Y420805D01*
X645979Y420895D01*
X645822Y420989D01*
X645668Y421086D01*
X645516Y421187D01*
X645366Y421292D01*
X645219Y421400D01*
X645075Y421511D01*
X644933Y421626D01*
X644794Y421745D01*
X644658Y421867D01*
X644525Y421992D01*
X644395Y422120D01*
X644846Y432506D02*
X644848Y432624D01*
X644854Y432742D01*
X644863Y432860D01*
X644877Y432977D01*
X644894Y433094D01*
X644915Y433211D01*
X644940Y433326D01*
X644969Y433441D01*
X645002Y433555D01*
X645038Y433667D01*
X645078Y433778D01*
X645121Y433888D01*
X645168Y433997D01*
X645218Y434104D01*
X645273Y434209D01*
X645330Y434312D01*
X645391Y434413D01*
X645455Y434513D01*
X645522Y434610D01*
X645592Y434705D01*
X645666Y434797D01*
X645742Y434888D01*
X645822Y434975D01*
X645904Y435060D01*
X645989Y435142D01*
X646076Y435222D01*
X646167Y435298D01*
X646259Y435372D01*
X646354Y435442D01*
X646451Y435509D01*
X646551Y435573D01*
X646652Y435634D01*
X646755Y435692D01*
X646860Y435746D01*
X646967Y435796D01*
X647076Y435843D01*
X647186Y435887D01*
X647297Y435926D01*
X647410Y435962D01*
X647523Y435995D01*
X647638Y436024D01*
X647753Y436049D01*
X647870Y436070D01*
X647987Y436087D01*
X648104Y436101D01*
X648222Y436110D01*
X648340Y436116D01*
X648458Y436118D01*
X648619Y436116D01*
X648781Y436110D01*
X648942Y436101D01*
X649103Y436087D01*
X649263Y436070D01*
X649423Y436049D01*
X649583Y436024D01*
X649742Y435995D01*
X649900Y435963D01*
X650057Y435927D01*
X650213Y435887D01*
X650369Y435843D01*
X650523Y435795D01*
X650676Y435744D01*
X650828Y435690D01*
X650979Y435631D01*
X651128Y435570D01*
X651275Y435504D01*
X651421Y435435D01*
X651566Y435363D01*
X651708Y435287D01*
X651849Y435208D01*
X651988Y435126D01*
X652124Y435040D01*
X652259Y434951D01*
X652392Y434859D01*
X652522Y434763D01*
X646652Y429345D02*
X646551Y429407D01*
X646451Y429472D01*
X646354Y429541D01*
X646259Y429613D01*
X646166Y429687D01*
X646076Y429765D01*
X645988Y429846D01*
X645903Y429929D01*
X645821Y430015D01*
X645742Y430104D01*
X645665Y430195D01*
X645592Y430289D01*
X645521Y430385D01*
X645454Y430483D01*
X645390Y430583D01*
X645329Y430686D01*
X645272Y430790D01*
X645218Y430896D01*
X645168Y431004D01*
X645121Y431113D01*
X645077Y431224D01*
X645037Y431336D01*
X645001Y431450D01*
X644969Y431564D01*
X644940Y431680D01*
X644915Y431796D01*
X644894Y431913D01*
X644877Y432031D01*
X644863Y432149D01*
X644854Y432268D01*
X644848Y432387D01*
X644846Y432506D01*
X651619Y426635D02*
X651720Y426573D01*
X651820Y426508D01*
X651917Y426439D01*
X652012Y426367D01*
X652105Y426293D01*
X652195Y426215D01*
X652283Y426134D01*
X652368Y426051D01*
X652450Y425965D01*
X652529Y425876D01*
X652606Y425785D01*
X652679Y425691D01*
X652750Y425595D01*
X652817Y425497D01*
X652881Y425397D01*
X652942Y425294D01*
X652999Y425190D01*
X653053Y425084D01*
X653103Y424976D01*
X653150Y424867D01*
X653194Y424756D01*
X653234Y424644D01*
X653270Y424530D01*
X653302Y424416D01*
X653331Y424300D01*
X653356Y424184D01*
X653377Y424067D01*
X653394Y423949D01*
X653408Y423831D01*
X653417Y423712D01*
X653423Y423593D01*
X653425Y423474D01*
X651619Y426635D02*
X646652Y429345D01*
D11*
X233680Y311150D02*
X223520Y311150D01*
D12*
X241808Y305495D02*
X253492Y305495D01*
X241808Y305495D02*
X241808Y308740D01*
X241810Y308853D01*
X241816Y308966D01*
X241826Y309079D01*
X241840Y309192D01*
X241857Y309304D01*
X241879Y309415D01*
X241904Y309525D01*
X241934Y309635D01*
X241967Y309743D01*
X242004Y309850D01*
X242044Y309956D01*
X242089Y310060D01*
X242137Y310163D01*
X242188Y310264D01*
X242243Y310363D01*
X242301Y310460D01*
X242363Y310555D01*
X242428Y310648D01*
X242496Y310738D01*
X242567Y310826D01*
X242642Y310912D01*
X242719Y310995D01*
X242799Y311075D01*
X242882Y311152D01*
X242968Y311227D01*
X243056Y311298D01*
X243146Y311366D01*
X243239Y311431D01*
X243334Y311493D01*
X243431Y311551D01*
X243530Y311606D01*
X243631Y311657D01*
X243734Y311705D01*
X243838Y311750D01*
X243944Y311790D01*
X244051Y311827D01*
X244159Y311860D01*
X244269Y311890D01*
X244379Y311915D01*
X244490Y311937D01*
X244602Y311954D01*
X244715Y311968D01*
X244828Y311978D01*
X244941Y311984D01*
X245054Y311986D01*
X245167Y311984D01*
X245280Y311978D01*
X245393Y311968D01*
X245506Y311954D01*
X245618Y311937D01*
X245729Y311915D01*
X245839Y311890D01*
X245949Y311860D01*
X246057Y311827D01*
X246164Y311790D01*
X246270Y311750D01*
X246374Y311705D01*
X246477Y311657D01*
X246578Y311606D01*
X246677Y311551D01*
X246774Y311493D01*
X246869Y311431D01*
X246962Y311366D01*
X247052Y311298D01*
X247140Y311227D01*
X247226Y311152D01*
X247309Y311075D01*
X247389Y310995D01*
X247466Y310912D01*
X247541Y310826D01*
X247612Y310738D01*
X247680Y310648D01*
X247745Y310555D01*
X247807Y310460D01*
X247865Y310363D01*
X247920Y310264D01*
X247971Y310163D01*
X248019Y310060D01*
X248064Y309956D01*
X248104Y309850D01*
X248141Y309743D01*
X248174Y309635D01*
X248204Y309525D01*
X248229Y309415D01*
X248251Y309304D01*
X248268Y309192D01*
X248282Y309079D01*
X248292Y308966D01*
X248298Y308853D01*
X248300Y308740D01*
X248299Y308740D02*
X248299Y305495D01*
X248299Y309389D02*
X253492Y311986D01*
X244404Y316851D02*
X241808Y320096D01*
X253492Y320096D01*
X253492Y316851D02*
X253492Y323342D01*
D11*
X208280Y311150D02*
X198120Y311150D01*
D12*
X216408Y305495D02*
X228092Y305495D01*
X216408Y305495D02*
X216408Y308740D01*
X216410Y308853D01*
X216416Y308966D01*
X216426Y309079D01*
X216440Y309192D01*
X216457Y309304D01*
X216479Y309415D01*
X216504Y309525D01*
X216534Y309635D01*
X216567Y309743D01*
X216604Y309850D01*
X216644Y309956D01*
X216689Y310060D01*
X216737Y310163D01*
X216788Y310264D01*
X216843Y310363D01*
X216901Y310460D01*
X216963Y310555D01*
X217028Y310648D01*
X217096Y310738D01*
X217167Y310826D01*
X217242Y310912D01*
X217319Y310995D01*
X217399Y311075D01*
X217482Y311152D01*
X217568Y311227D01*
X217656Y311298D01*
X217746Y311366D01*
X217839Y311431D01*
X217934Y311493D01*
X218031Y311551D01*
X218130Y311606D01*
X218231Y311657D01*
X218334Y311705D01*
X218438Y311750D01*
X218544Y311790D01*
X218651Y311827D01*
X218759Y311860D01*
X218869Y311890D01*
X218979Y311915D01*
X219090Y311937D01*
X219202Y311954D01*
X219315Y311968D01*
X219428Y311978D01*
X219541Y311984D01*
X219654Y311986D01*
X219767Y311984D01*
X219880Y311978D01*
X219993Y311968D01*
X220106Y311954D01*
X220218Y311937D01*
X220329Y311915D01*
X220439Y311890D01*
X220549Y311860D01*
X220657Y311827D01*
X220764Y311790D01*
X220870Y311750D01*
X220974Y311705D01*
X221077Y311657D01*
X221178Y311606D01*
X221277Y311551D01*
X221374Y311493D01*
X221469Y311431D01*
X221562Y311366D01*
X221652Y311298D01*
X221740Y311227D01*
X221826Y311152D01*
X221909Y311075D01*
X221989Y310995D01*
X222066Y310912D01*
X222141Y310826D01*
X222212Y310738D01*
X222280Y310648D01*
X222345Y310555D01*
X222407Y310460D01*
X222465Y310363D01*
X222520Y310264D01*
X222571Y310163D01*
X222619Y310060D01*
X222664Y309956D01*
X222704Y309850D01*
X222741Y309743D01*
X222774Y309635D01*
X222804Y309525D01*
X222829Y309415D01*
X222851Y309304D01*
X222868Y309192D01*
X222882Y309079D01*
X222892Y308966D01*
X222898Y308853D01*
X222900Y308740D01*
X222899Y308740D02*
X222899Y305495D01*
X222899Y309389D02*
X228092Y311986D01*
X219329Y323342D02*
X219222Y323340D01*
X219116Y323334D01*
X219010Y323324D01*
X218904Y323311D01*
X218798Y323293D01*
X218694Y323272D01*
X218590Y323247D01*
X218487Y323218D01*
X218386Y323186D01*
X218286Y323149D01*
X218187Y323109D01*
X218089Y323066D01*
X217993Y323019D01*
X217899Y322968D01*
X217807Y322914D01*
X217717Y322857D01*
X217629Y322797D01*
X217544Y322733D01*
X217461Y322666D01*
X217380Y322596D01*
X217302Y322524D01*
X217226Y322448D01*
X217154Y322370D01*
X217084Y322289D01*
X217017Y322206D01*
X216953Y322121D01*
X216893Y322033D01*
X216836Y321943D01*
X216782Y321851D01*
X216731Y321757D01*
X216684Y321661D01*
X216641Y321563D01*
X216601Y321464D01*
X216564Y321364D01*
X216532Y321263D01*
X216503Y321160D01*
X216478Y321056D01*
X216457Y320952D01*
X216439Y320846D01*
X216426Y320740D01*
X216416Y320634D01*
X216410Y320528D01*
X216408Y320421D01*
X216410Y320300D01*
X216416Y320179D01*
X216426Y320059D01*
X216439Y319938D01*
X216457Y319819D01*
X216478Y319699D01*
X216503Y319581D01*
X216532Y319464D01*
X216565Y319347D01*
X216601Y319232D01*
X216642Y319118D01*
X216685Y319005D01*
X216733Y318893D01*
X216784Y318784D01*
X216839Y318676D01*
X216897Y318569D01*
X216958Y318465D01*
X217023Y318363D01*
X217091Y318263D01*
X217162Y318165D01*
X217236Y318069D01*
X217313Y317976D01*
X217394Y317886D01*
X217477Y317798D01*
X217563Y317713D01*
X217652Y317630D01*
X217743Y317551D01*
X217837Y317474D01*
X217933Y317401D01*
X218031Y317331D01*
X218132Y317264D01*
X218235Y317200D01*
X218340Y317140D01*
X218447Y317082D01*
X218555Y317029D01*
X218665Y316979D01*
X218777Y316933D01*
X218890Y316890D01*
X219005Y316851D01*
X221601Y322368D02*
X221523Y322447D01*
X221443Y322523D01*
X221360Y322596D01*
X221274Y322666D01*
X221187Y322733D01*
X221096Y322797D01*
X221004Y322857D01*
X220910Y322915D01*
X220813Y322969D01*
X220715Y323019D01*
X220615Y323066D01*
X220514Y323110D01*
X220411Y323150D01*
X220306Y323186D01*
X220201Y323218D01*
X220094Y323247D01*
X219987Y323272D01*
X219878Y323294D01*
X219769Y323311D01*
X219660Y323325D01*
X219550Y323334D01*
X219439Y323340D01*
X219329Y323342D01*
X221601Y322368D02*
X228092Y316851D01*
X228092Y323342D01*
D11*
X793750Y100330D02*
X793750Y90170D01*
D12*
X775208Y114808D02*
X775208Y126492D01*
X778454Y126492D01*
X778567Y126490D01*
X778680Y126484D01*
X778793Y126474D01*
X778906Y126460D01*
X779018Y126443D01*
X779129Y126421D01*
X779239Y126396D01*
X779349Y126366D01*
X779457Y126333D01*
X779564Y126296D01*
X779670Y126256D01*
X779774Y126211D01*
X779877Y126163D01*
X779978Y126112D01*
X780077Y126057D01*
X780174Y125999D01*
X780269Y125937D01*
X780362Y125872D01*
X780452Y125804D01*
X780540Y125733D01*
X780626Y125658D01*
X780709Y125581D01*
X780789Y125501D01*
X780866Y125418D01*
X780941Y125332D01*
X781012Y125244D01*
X781080Y125154D01*
X781145Y125061D01*
X781207Y124966D01*
X781265Y124869D01*
X781320Y124770D01*
X781371Y124669D01*
X781419Y124566D01*
X781464Y124462D01*
X781504Y124356D01*
X781541Y124249D01*
X781574Y124141D01*
X781604Y124031D01*
X781629Y123921D01*
X781651Y123810D01*
X781668Y123698D01*
X781682Y123585D01*
X781692Y123472D01*
X781698Y123359D01*
X781700Y123246D01*
X781698Y123133D01*
X781692Y123020D01*
X781682Y122907D01*
X781668Y122794D01*
X781651Y122682D01*
X781629Y122571D01*
X781604Y122461D01*
X781574Y122351D01*
X781541Y122243D01*
X781504Y122136D01*
X781464Y122030D01*
X781419Y121926D01*
X781371Y121823D01*
X781320Y121722D01*
X781265Y121623D01*
X781207Y121526D01*
X781145Y121431D01*
X781080Y121338D01*
X781012Y121248D01*
X780941Y121160D01*
X780866Y121074D01*
X780789Y120991D01*
X780709Y120911D01*
X780626Y120834D01*
X780540Y120759D01*
X780452Y120688D01*
X780362Y120620D01*
X780269Y120555D01*
X780174Y120493D01*
X780077Y120435D01*
X779978Y120380D01*
X779877Y120329D01*
X779774Y120281D01*
X779670Y120236D01*
X779564Y120196D01*
X779457Y120159D01*
X779349Y120126D01*
X779239Y120096D01*
X779129Y120071D01*
X779018Y120049D01*
X778906Y120032D01*
X778793Y120018D01*
X778680Y120008D01*
X778567Y120002D01*
X778454Y120000D01*
X778454Y120001D02*
X775208Y120001D01*
X779103Y120001D02*
X781699Y114808D01*
X786564Y121299D02*
X790459Y121299D01*
X790558Y121297D01*
X790658Y121291D01*
X790757Y121282D01*
X790855Y121269D01*
X790953Y121252D01*
X791051Y121231D01*
X791147Y121206D01*
X791242Y121178D01*
X791336Y121146D01*
X791429Y121111D01*
X791521Y121072D01*
X791611Y121029D01*
X791699Y120984D01*
X791786Y120934D01*
X791870Y120882D01*
X791953Y120826D01*
X792033Y120768D01*
X792111Y120706D01*
X792186Y120641D01*
X792259Y120573D01*
X792329Y120503D01*
X792397Y120430D01*
X792462Y120355D01*
X792524Y120277D01*
X792582Y120197D01*
X792638Y120114D01*
X792690Y120030D01*
X792740Y119943D01*
X792785Y119855D01*
X792828Y119765D01*
X792867Y119673D01*
X792902Y119580D01*
X792934Y119486D01*
X792962Y119391D01*
X792987Y119295D01*
X793008Y119197D01*
X793025Y119099D01*
X793038Y119001D01*
X793047Y118902D01*
X793053Y118802D01*
X793055Y118703D01*
X793055Y118054D01*
X793056Y118054D02*
X793054Y117941D01*
X793048Y117828D01*
X793038Y117715D01*
X793024Y117602D01*
X793007Y117490D01*
X792985Y117379D01*
X792960Y117269D01*
X792930Y117159D01*
X792897Y117051D01*
X792860Y116944D01*
X792820Y116838D01*
X792775Y116734D01*
X792727Y116631D01*
X792676Y116530D01*
X792621Y116431D01*
X792563Y116334D01*
X792501Y116239D01*
X792436Y116146D01*
X792368Y116056D01*
X792297Y115968D01*
X792222Y115882D01*
X792145Y115799D01*
X792065Y115719D01*
X791982Y115642D01*
X791896Y115567D01*
X791808Y115496D01*
X791718Y115428D01*
X791625Y115363D01*
X791530Y115301D01*
X791433Y115243D01*
X791334Y115188D01*
X791233Y115137D01*
X791130Y115089D01*
X791026Y115044D01*
X790920Y115004D01*
X790813Y114967D01*
X790705Y114934D01*
X790595Y114904D01*
X790485Y114879D01*
X790374Y114857D01*
X790262Y114840D01*
X790149Y114826D01*
X790036Y114816D01*
X789923Y114810D01*
X789810Y114808D01*
X789697Y114810D01*
X789584Y114816D01*
X789471Y114826D01*
X789358Y114840D01*
X789246Y114857D01*
X789135Y114879D01*
X789025Y114904D01*
X788915Y114934D01*
X788807Y114967D01*
X788700Y115004D01*
X788594Y115044D01*
X788490Y115089D01*
X788387Y115137D01*
X788286Y115188D01*
X788187Y115243D01*
X788090Y115301D01*
X787995Y115363D01*
X787902Y115428D01*
X787812Y115496D01*
X787724Y115567D01*
X787638Y115642D01*
X787555Y115719D01*
X787475Y115799D01*
X787398Y115882D01*
X787323Y115968D01*
X787252Y116056D01*
X787184Y116146D01*
X787119Y116239D01*
X787057Y116334D01*
X786999Y116431D01*
X786944Y116530D01*
X786893Y116631D01*
X786845Y116734D01*
X786800Y116838D01*
X786760Y116944D01*
X786723Y117051D01*
X786690Y117159D01*
X786660Y117269D01*
X786635Y117379D01*
X786613Y117490D01*
X786596Y117602D01*
X786582Y117715D01*
X786572Y117828D01*
X786566Y117941D01*
X786564Y118054D01*
X786564Y121299D01*
X786566Y121442D01*
X786572Y121585D01*
X786582Y121728D01*
X786596Y121870D01*
X786613Y122012D01*
X786635Y122154D01*
X786660Y122295D01*
X786690Y122435D01*
X786723Y122574D01*
X786760Y122712D01*
X786801Y122849D01*
X786845Y122985D01*
X786894Y123120D01*
X786946Y123253D01*
X787001Y123385D01*
X787061Y123515D01*
X787124Y123644D01*
X787190Y123771D01*
X787260Y123895D01*
X787333Y124018D01*
X787410Y124139D01*
X787490Y124258D01*
X787573Y124374D01*
X787659Y124489D01*
X787748Y124600D01*
X787841Y124710D01*
X787936Y124816D01*
X788035Y124920D01*
X788136Y125021D01*
X788240Y125120D01*
X788346Y125215D01*
X788456Y125308D01*
X788567Y125397D01*
X788682Y125483D01*
X788798Y125566D01*
X788917Y125646D01*
X789038Y125723D01*
X789160Y125796D01*
X789285Y125866D01*
X789412Y125932D01*
X789541Y125995D01*
X789671Y126055D01*
X789803Y126110D01*
X789936Y126162D01*
X790071Y126211D01*
X790207Y126255D01*
X790344Y126296D01*
X790482Y126333D01*
X790621Y126366D01*
X790761Y126396D01*
X790902Y126421D01*
X791044Y126443D01*
X791186Y126460D01*
X791328Y126474D01*
X791471Y126484D01*
X791614Y126490D01*
X791757Y126492D01*
D13*
X97200Y105150D03*
X97200Y130550D03*
X122600Y130550D03*
X122600Y105150D03*
X148000Y130550D03*
X148000Y105150D03*
X173400Y130550D03*
X198800Y130550D03*
X224200Y130550D03*
X173400Y105150D03*
X198800Y105150D03*
X224200Y105150D03*
X249600Y130550D03*
X249600Y105150D03*
X275000Y130550D03*
X275000Y105150D03*
X300400Y130550D03*
X300400Y105150D03*
X325800Y130550D03*
X325800Y105150D03*
X351200Y130550D03*
X351200Y105150D03*
X376600Y130550D03*
X376600Y105150D03*
X402000Y130550D03*
X402000Y105150D03*
X427400Y130550D03*
X427400Y105150D03*
X452800Y130550D03*
X452800Y105150D03*
X478200Y130550D03*
X478200Y105150D03*
X503600Y130550D03*
X503600Y105150D03*
X529000Y130550D03*
X529000Y105150D03*
X97200Y359150D03*
X97200Y384550D03*
X122600Y384550D03*
X122600Y359150D03*
X148000Y384550D03*
X148000Y359150D03*
X173400Y384550D03*
X198800Y384550D03*
X224200Y384550D03*
X173400Y359150D03*
X198800Y359150D03*
X224200Y359150D03*
X249600Y384550D03*
X249600Y359150D03*
X275000Y384550D03*
X275000Y359150D03*
X300400Y384550D03*
X300400Y359150D03*
X325800Y384550D03*
X325800Y359150D03*
X351200Y384550D03*
X351200Y359150D03*
X376600Y384550D03*
X376600Y359150D03*
X402000Y384550D03*
X402000Y359150D03*
X427400Y384550D03*
X427400Y359150D03*
X452800Y384550D03*
X452800Y359150D03*
X478200Y384550D03*
X478200Y359150D03*
X503600Y384550D03*
X503600Y359150D03*
X529000Y384550D03*
X529000Y359150D03*
D14*
X488100Y419850D02*
X138100Y419850D01*
X135684Y419821D01*
X133269Y419733D01*
X130857Y419587D01*
X128449Y419383D01*
X126046Y419121D01*
X123651Y418801D01*
X121264Y418423D01*
X118887Y417987D01*
X116522Y417494D01*
X114168Y416944D01*
X111829Y416338D01*
X109505Y415675D01*
X107198Y414956D01*
X104909Y414181D01*
X102640Y413352D01*
X100391Y412467D01*
X98164Y411529D01*
X95960Y410537D01*
X93781Y409493D01*
X91628Y408396D01*
X89502Y407247D01*
X87404Y406047D01*
X85336Y404797D01*
X83299Y403497D01*
X81294Y402148D01*
X79321Y400752D01*
X77384Y399308D01*
X75481Y397817D01*
X73616Y396282D01*
X71788Y394701D01*
X69998Y393077D01*
X68249Y391410D01*
X66540Y389701D01*
X64873Y387952D01*
X63249Y386162D01*
X61668Y384334D01*
X60133Y382469D01*
X58642Y380566D01*
X57198Y378629D01*
X55802Y376656D01*
X54453Y374651D01*
X53153Y372614D01*
X51903Y370546D01*
X50703Y368448D01*
X49554Y366322D01*
X48457Y364169D01*
X47413Y361990D01*
X46421Y359786D01*
X45483Y357559D01*
X44598Y355310D01*
X43769Y353041D01*
X42994Y350752D01*
X42275Y348445D01*
X41612Y346121D01*
X41006Y343782D01*
X40456Y341428D01*
X39963Y339063D01*
X39527Y336686D01*
X39149Y334299D01*
X38829Y331904D01*
X38567Y329501D01*
X38363Y327093D01*
X38217Y324681D01*
X38129Y322266D01*
X38100Y319850D01*
X38100Y169850D01*
X38129Y167434D01*
X38217Y165019D01*
X38363Y162607D01*
X38567Y160199D01*
X38829Y157796D01*
X39149Y155401D01*
X39527Y153014D01*
X39963Y150637D01*
X40456Y148272D01*
X41006Y145918D01*
X41612Y143579D01*
X42275Y141255D01*
X42994Y138948D01*
X43769Y136659D01*
X44598Y134390D01*
X45483Y132141D01*
X46421Y129914D01*
X47413Y127710D01*
X48457Y125531D01*
X49554Y123378D01*
X50703Y121252D01*
X51903Y119154D01*
X53153Y117086D01*
X54453Y115049D01*
X55802Y113044D01*
X57198Y111071D01*
X58642Y109134D01*
X60133Y107231D01*
X61668Y105366D01*
X63249Y103538D01*
X64873Y101748D01*
X66540Y99999D01*
X68249Y98290D01*
X69998Y96623D01*
X71788Y94999D01*
X73616Y93418D01*
X75481Y91883D01*
X77384Y90392D01*
X79321Y88948D01*
X81294Y87552D01*
X83299Y86203D01*
X85336Y84903D01*
X87404Y83653D01*
X89502Y82453D01*
X91628Y81304D01*
X93781Y80207D01*
X95960Y79163D01*
X98164Y78171D01*
X100391Y77233D01*
X102640Y76348D01*
X104909Y75519D01*
X107198Y74744D01*
X109505Y74025D01*
X111829Y73362D01*
X114168Y72756D01*
X116522Y72206D01*
X118887Y71713D01*
X121264Y71277D01*
X123651Y70899D01*
X126046Y70579D01*
X128449Y70317D01*
X130857Y70113D01*
X133269Y69967D01*
X135684Y69879D01*
X138100Y69850D01*
X488100Y69850D01*
X490516Y69879D01*
X492931Y69967D01*
X495343Y70113D01*
X497751Y70317D01*
X500154Y70579D01*
X502549Y70899D01*
X504936Y71277D01*
X507313Y71713D01*
X509678Y72206D01*
X512032Y72756D01*
X514371Y73362D01*
X516695Y74025D01*
X519002Y74744D01*
X521291Y75519D01*
X523560Y76348D01*
X525809Y77233D01*
X528036Y78171D01*
X530240Y79163D01*
X532419Y80207D01*
X534572Y81304D01*
X536698Y82453D01*
X538796Y83653D01*
X540864Y84903D01*
X542901Y86203D01*
X544906Y87552D01*
X546879Y88948D01*
X548816Y90392D01*
X550719Y91883D01*
X552584Y93418D01*
X554412Y94999D01*
X556202Y96623D01*
X557951Y98290D01*
X559660Y99999D01*
X561327Y101748D01*
X562951Y103538D01*
X564532Y105366D01*
X566067Y107231D01*
X567558Y109134D01*
X569002Y111071D01*
X570398Y113044D01*
X571747Y115049D01*
X573047Y117086D01*
X574297Y119154D01*
X575497Y121252D01*
X576646Y123378D01*
X577743Y125531D01*
X578787Y127710D01*
X579779Y129914D01*
X580717Y132141D01*
X581602Y134390D01*
X582431Y136659D01*
X583206Y138948D01*
X583925Y141255D01*
X584588Y143579D01*
X585194Y145918D01*
X585744Y148272D01*
X586237Y150637D01*
X586673Y153014D01*
X587051Y155401D01*
X587371Y157796D01*
X587633Y160199D01*
X587837Y162607D01*
X587983Y165019D01*
X588071Y167434D01*
X588100Y169850D01*
X588100Y319850D01*
X588071Y322266D01*
X587983Y324681D01*
X587837Y327093D01*
X587633Y329501D01*
X587371Y331904D01*
X587051Y334299D01*
X586673Y336686D01*
X586237Y339063D01*
X585744Y341428D01*
X585194Y343782D01*
X584588Y346121D01*
X583925Y348445D01*
X583206Y350752D01*
X582431Y353041D01*
X581602Y355310D01*
X580717Y357559D01*
X579779Y359786D01*
X578787Y361990D01*
X577743Y364169D01*
X576646Y366322D01*
X575497Y368448D01*
X574297Y370546D01*
X573047Y372614D01*
X571747Y374651D01*
X570398Y376656D01*
X569002Y378629D01*
X567558Y380566D01*
X566067Y382469D01*
X564532Y384334D01*
X562951Y386162D01*
X561327Y387952D01*
X559660Y389701D01*
X557951Y391410D01*
X556202Y393077D01*
X554412Y394701D01*
X552584Y396282D01*
X550719Y397817D01*
X548816Y399308D01*
X546879Y400752D01*
X544906Y402148D01*
X542901Y403497D01*
X540864Y404797D01*
X538796Y406047D01*
X536698Y407247D01*
X534572Y408396D01*
X532419Y409493D01*
X530240Y410537D01*
X528036Y411529D01*
X525809Y412467D01*
X523560Y413352D01*
X521291Y414181D01*
X519002Y414956D01*
X516695Y415675D01*
X514371Y416338D01*
X512032Y416944D01*
X509678Y417494D01*
X507313Y417987D01*
X504936Y418423D01*
X502549Y418801D01*
X500154Y419121D01*
X497751Y419383D01*
X495343Y419587D01*
X492931Y419733D01*
X490516Y419821D01*
X488100Y419850D01*
D10*
X242419Y255778D02*
X242419Y239522D01*
X242419Y255778D02*
X246935Y255778D01*
X247068Y255776D01*
X247200Y255770D01*
X247332Y255760D01*
X247464Y255747D01*
X247596Y255729D01*
X247726Y255708D01*
X247857Y255683D01*
X247986Y255654D01*
X248114Y255621D01*
X248242Y255585D01*
X248368Y255545D01*
X248493Y255501D01*
X248617Y255453D01*
X248739Y255402D01*
X248860Y255347D01*
X248979Y255289D01*
X249097Y255227D01*
X249212Y255162D01*
X249326Y255093D01*
X249437Y255022D01*
X249546Y254946D01*
X249653Y254868D01*
X249758Y254787D01*
X249860Y254702D01*
X249960Y254615D01*
X250057Y254525D01*
X250152Y254432D01*
X250243Y254336D01*
X250332Y254238D01*
X250418Y254137D01*
X250501Y254033D01*
X250581Y253927D01*
X250657Y253819D01*
X250731Y253709D01*
X250801Y253596D01*
X250868Y253482D01*
X250931Y253365D01*
X250991Y253247D01*
X251048Y253127D01*
X251101Y253005D01*
X251150Y252882D01*
X251196Y252758D01*
X251238Y252632D01*
X251276Y252505D01*
X251311Y252377D01*
X251342Y252248D01*
X251369Y252119D01*
X251392Y251988D01*
X251412Y251857D01*
X251427Y251725D01*
X251439Y251593D01*
X251447Y251461D01*
X251451Y251328D01*
X251451Y251196D01*
X251447Y251063D01*
X251439Y250931D01*
X251427Y250799D01*
X251412Y250667D01*
X251392Y250536D01*
X251369Y250405D01*
X251342Y250276D01*
X251311Y250147D01*
X251276Y250019D01*
X251238Y249892D01*
X251196Y249766D01*
X251150Y249642D01*
X251101Y249519D01*
X251048Y249397D01*
X250991Y249277D01*
X250931Y249159D01*
X250868Y249042D01*
X250801Y248928D01*
X250731Y248815D01*
X250657Y248705D01*
X250581Y248597D01*
X250501Y248491D01*
X250418Y248387D01*
X250332Y248286D01*
X250243Y248188D01*
X250152Y248092D01*
X250057Y247999D01*
X249960Y247909D01*
X249860Y247822D01*
X249758Y247737D01*
X249653Y247656D01*
X249546Y247578D01*
X249437Y247502D01*
X249326Y247431D01*
X249212Y247362D01*
X249097Y247297D01*
X248979Y247235D01*
X248860Y247177D01*
X248739Y247122D01*
X248617Y247071D01*
X248493Y247023D01*
X248368Y246979D01*
X248242Y246939D01*
X248114Y246903D01*
X247986Y246870D01*
X247857Y246841D01*
X247726Y246816D01*
X247596Y246795D01*
X247464Y246777D01*
X247332Y246764D01*
X247200Y246754D01*
X247068Y246748D01*
X246935Y246746D01*
X246935Y246747D02*
X242419Y246747D01*
X257180Y246747D02*
X257180Y243134D01*
X257180Y246747D02*
X257182Y246866D01*
X257188Y246986D01*
X257198Y247105D01*
X257212Y247223D01*
X257229Y247342D01*
X257251Y247459D01*
X257276Y247576D01*
X257306Y247691D01*
X257339Y247806D01*
X257376Y247920D01*
X257416Y248032D01*
X257461Y248143D01*
X257509Y248252D01*
X257560Y248360D01*
X257615Y248466D01*
X257674Y248570D01*
X257736Y248672D01*
X257801Y248772D01*
X257870Y248870D01*
X257942Y248966D01*
X258017Y249059D01*
X258094Y249149D01*
X258175Y249237D01*
X258259Y249322D01*
X258346Y249404D01*
X258435Y249484D01*
X258527Y249560D01*
X258621Y249634D01*
X258718Y249704D01*
X258816Y249771D01*
X258917Y249835D01*
X259021Y249895D01*
X259126Y249952D01*
X259233Y250005D01*
X259341Y250055D01*
X259451Y250101D01*
X259563Y250143D01*
X259676Y250182D01*
X259790Y250217D01*
X259905Y250248D01*
X260022Y250276D01*
X260139Y250299D01*
X260256Y250319D01*
X260375Y250335D01*
X260494Y250347D01*
X260613Y250355D01*
X260732Y250359D01*
X260852Y250359D01*
X260971Y250355D01*
X261090Y250347D01*
X261209Y250335D01*
X261328Y250319D01*
X261445Y250299D01*
X261562Y250276D01*
X261679Y250248D01*
X261794Y250217D01*
X261908Y250182D01*
X262021Y250143D01*
X262133Y250101D01*
X262243Y250055D01*
X262351Y250005D01*
X262458Y249952D01*
X262563Y249895D01*
X262667Y249835D01*
X262768Y249771D01*
X262866Y249704D01*
X262963Y249634D01*
X263057Y249560D01*
X263149Y249484D01*
X263238Y249404D01*
X263325Y249322D01*
X263409Y249237D01*
X263490Y249149D01*
X263567Y249059D01*
X263642Y248966D01*
X263714Y248870D01*
X263783Y248772D01*
X263848Y248672D01*
X263910Y248570D01*
X263969Y248466D01*
X264024Y248360D01*
X264075Y248252D01*
X264123Y248143D01*
X264168Y248032D01*
X264208Y247920D01*
X264245Y247806D01*
X264278Y247691D01*
X264308Y247576D01*
X264333Y247459D01*
X264355Y247342D01*
X264372Y247223D01*
X264386Y247105D01*
X264396Y246986D01*
X264402Y246866D01*
X264404Y246747D01*
X264405Y246747D02*
X264405Y243134D01*
X264404Y243134D02*
X264402Y243015D01*
X264396Y242895D01*
X264386Y242776D01*
X264372Y242658D01*
X264355Y242539D01*
X264333Y242422D01*
X264308Y242305D01*
X264278Y242190D01*
X264245Y242075D01*
X264208Y241961D01*
X264168Y241849D01*
X264123Y241738D01*
X264075Y241629D01*
X264024Y241521D01*
X263969Y241415D01*
X263910Y241311D01*
X263848Y241209D01*
X263783Y241109D01*
X263714Y241011D01*
X263642Y240915D01*
X263567Y240822D01*
X263490Y240732D01*
X263409Y240644D01*
X263325Y240559D01*
X263238Y240477D01*
X263149Y240397D01*
X263057Y240321D01*
X262963Y240247D01*
X262866Y240177D01*
X262768Y240110D01*
X262667Y240046D01*
X262563Y239986D01*
X262458Y239929D01*
X262351Y239876D01*
X262243Y239826D01*
X262133Y239780D01*
X262021Y239738D01*
X261908Y239699D01*
X261794Y239664D01*
X261679Y239633D01*
X261562Y239605D01*
X261445Y239582D01*
X261328Y239562D01*
X261209Y239546D01*
X261090Y239534D01*
X260971Y239526D01*
X260852Y239522D01*
X260732Y239522D01*
X260613Y239526D01*
X260494Y239534D01*
X260375Y239546D01*
X260256Y239562D01*
X260139Y239582D01*
X260022Y239605D01*
X259905Y239633D01*
X259790Y239664D01*
X259676Y239699D01*
X259563Y239738D01*
X259451Y239780D01*
X259341Y239826D01*
X259233Y239876D01*
X259126Y239929D01*
X259021Y239986D01*
X258917Y240046D01*
X258816Y240110D01*
X258718Y240177D01*
X258621Y240247D01*
X258527Y240321D01*
X258435Y240397D01*
X258346Y240477D01*
X258259Y240559D01*
X258175Y240644D01*
X258094Y240732D01*
X258017Y240822D01*
X257942Y240915D01*
X257870Y241011D01*
X257801Y241109D01*
X257736Y241209D01*
X257674Y241311D01*
X257615Y241415D01*
X257560Y241521D01*
X257509Y241629D01*
X257461Y241738D01*
X257416Y241849D01*
X257376Y241961D01*
X257339Y242075D01*
X257306Y242190D01*
X257276Y242305D01*
X257251Y242422D01*
X257229Y242539D01*
X257212Y242658D01*
X257198Y242776D01*
X257188Y242895D01*
X257182Y243015D01*
X257180Y243134D01*
X273454Y239522D02*
X277066Y239522D01*
X273454Y239522D02*
X273353Y239524D01*
X273252Y239530D01*
X273151Y239539D01*
X273050Y239552D01*
X272950Y239569D01*
X272851Y239590D01*
X272753Y239614D01*
X272656Y239642D01*
X272559Y239674D01*
X272464Y239709D01*
X272371Y239748D01*
X272279Y239790D01*
X272188Y239836D01*
X272100Y239885D01*
X272013Y239937D01*
X271928Y239993D01*
X271845Y240051D01*
X271765Y240113D01*
X271687Y240178D01*
X271611Y240245D01*
X271538Y240315D01*
X271468Y240388D01*
X271401Y240464D01*
X271336Y240542D01*
X271274Y240622D01*
X271216Y240705D01*
X271160Y240790D01*
X271108Y240877D01*
X271059Y240965D01*
X271013Y241056D01*
X270971Y241148D01*
X270932Y241241D01*
X270897Y241336D01*
X270865Y241433D01*
X270837Y241530D01*
X270813Y241628D01*
X270792Y241727D01*
X270775Y241827D01*
X270762Y241928D01*
X270753Y242029D01*
X270747Y242130D01*
X270745Y242231D01*
X270744Y242231D02*
X270744Y247650D01*
X270745Y247650D02*
X270747Y247751D01*
X270753Y247852D01*
X270762Y247953D01*
X270775Y248054D01*
X270792Y248154D01*
X270813Y248253D01*
X270837Y248351D01*
X270865Y248448D01*
X270897Y248545D01*
X270932Y248640D01*
X270971Y248733D01*
X271013Y248825D01*
X271059Y248916D01*
X271108Y249005D01*
X271160Y249091D01*
X271216Y249176D01*
X271274Y249259D01*
X271336Y249339D01*
X271401Y249417D01*
X271468Y249493D01*
X271538Y249566D01*
X271611Y249636D01*
X271687Y249703D01*
X271765Y249768D01*
X271845Y249830D01*
X271928Y249888D01*
X272013Y249944D01*
X272100Y249996D01*
X272188Y250045D01*
X272279Y250091D01*
X272371Y250133D01*
X272464Y250172D01*
X272559Y250207D01*
X272656Y250239D01*
X272753Y250267D01*
X272851Y250291D01*
X272950Y250312D01*
X273050Y250329D01*
X273151Y250342D01*
X273252Y250351D01*
X273353Y250357D01*
X273454Y250359D01*
X277066Y250359D01*
X283401Y255778D02*
X283401Y239522D01*
X283401Y244941D02*
X290625Y250359D01*
X286561Y247198D02*
X290625Y239522D01*
X298967Y239522D02*
X303483Y239522D01*
X298967Y239522D02*
X298866Y239524D01*
X298765Y239530D01*
X298664Y239539D01*
X298563Y239552D01*
X298463Y239569D01*
X298364Y239590D01*
X298266Y239614D01*
X298169Y239642D01*
X298072Y239674D01*
X297977Y239709D01*
X297884Y239748D01*
X297792Y239790D01*
X297701Y239836D01*
X297613Y239885D01*
X297526Y239937D01*
X297441Y239993D01*
X297358Y240051D01*
X297278Y240113D01*
X297200Y240178D01*
X297124Y240245D01*
X297051Y240315D01*
X296981Y240388D01*
X296914Y240464D01*
X296849Y240542D01*
X296787Y240622D01*
X296729Y240705D01*
X296673Y240790D01*
X296621Y240877D01*
X296572Y240965D01*
X296526Y241056D01*
X296484Y241148D01*
X296445Y241241D01*
X296410Y241336D01*
X296378Y241433D01*
X296350Y241530D01*
X296326Y241628D01*
X296305Y241727D01*
X296288Y241827D01*
X296275Y241928D01*
X296266Y242029D01*
X296260Y242130D01*
X296258Y242231D01*
X296258Y246747D01*
X296260Y246866D01*
X296266Y246986D01*
X296276Y247105D01*
X296290Y247223D01*
X296307Y247342D01*
X296329Y247459D01*
X296354Y247576D01*
X296384Y247691D01*
X296417Y247806D01*
X296454Y247920D01*
X296494Y248032D01*
X296539Y248143D01*
X296587Y248252D01*
X296638Y248360D01*
X296693Y248466D01*
X296752Y248570D01*
X296814Y248672D01*
X296879Y248772D01*
X296948Y248870D01*
X297020Y248966D01*
X297095Y249059D01*
X297172Y249149D01*
X297253Y249237D01*
X297337Y249322D01*
X297424Y249404D01*
X297513Y249484D01*
X297605Y249560D01*
X297699Y249634D01*
X297796Y249704D01*
X297894Y249771D01*
X297995Y249835D01*
X298099Y249895D01*
X298204Y249952D01*
X298311Y250005D01*
X298419Y250055D01*
X298529Y250101D01*
X298641Y250143D01*
X298754Y250182D01*
X298868Y250217D01*
X298983Y250248D01*
X299100Y250276D01*
X299217Y250299D01*
X299334Y250319D01*
X299453Y250335D01*
X299572Y250347D01*
X299691Y250355D01*
X299810Y250359D01*
X299930Y250359D01*
X300049Y250355D01*
X300168Y250347D01*
X300287Y250335D01*
X300406Y250319D01*
X300523Y250299D01*
X300640Y250276D01*
X300757Y250248D01*
X300872Y250217D01*
X300986Y250182D01*
X301099Y250143D01*
X301211Y250101D01*
X301321Y250055D01*
X301429Y250005D01*
X301536Y249952D01*
X301641Y249895D01*
X301745Y249835D01*
X301846Y249771D01*
X301944Y249704D01*
X302041Y249634D01*
X302135Y249560D01*
X302227Y249484D01*
X302316Y249404D01*
X302403Y249322D01*
X302487Y249237D01*
X302568Y249149D01*
X302645Y249059D01*
X302720Y248966D01*
X302792Y248870D01*
X302861Y248772D01*
X302926Y248672D01*
X302988Y248570D01*
X303047Y248466D01*
X303102Y248360D01*
X303153Y248252D01*
X303201Y248143D01*
X303246Y248032D01*
X303286Y247920D01*
X303323Y247806D01*
X303356Y247691D01*
X303386Y247576D01*
X303411Y247459D01*
X303433Y247342D01*
X303450Y247223D01*
X303464Y247105D01*
X303474Y246986D01*
X303480Y246866D01*
X303482Y246747D01*
X303483Y246747D02*
X303483Y244941D01*
X296258Y244941D01*
X308508Y250359D02*
X313926Y250359D01*
X310314Y255778D02*
X310314Y242231D01*
X310316Y242130D01*
X310322Y242029D01*
X310331Y241928D01*
X310344Y241827D01*
X310361Y241727D01*
X310382Y241628D01*
X310406Y241530D01*
X310434Y241433D01*
X310466Y241336D01*
X310501Y241241D01*
X310540Y241148D01*
X310582Y241056D01*
X310628Y240965D01*
X310677Y240877D01*
X310729Y240790D01*
X310785Y240705D01*
X310843Y240622D01*
X310905Y240542D01*
X310970Y240464D01*
X311037Y240388D01*
X311107Y240315D01*
X311180Y240245D01*
X311256Y240178D01*
X311334Y240113D01*
X311414Y240051D01*
X311497Y239993D01*
X311582Y239937D01*
X311669Y239885D01*
X311757Y239836D01*
X311848Y239790D01*
X311940Y239748D01*
X312033Y239709D01*
X312128Y239674D01*
X312225Y239642D01*
X312322Y239614D01*
X312420Y239590D01*
X312519Y239569D01*
X312619Y239552D01*
X312720Y239539D01*
X312821Y239530D01*
X312922Y239524D01*
X313023Y239522D01*
X313926Y239522D01*
X320576Y248553D02*
X325091Y248553D01*
X325091Y248554D02*
X325224Y248552D01*
X325356Y248546D01*
X325488Y248536D01*
X325620Y248523D01*
X325752Y248505D01*
X325882Y248484D01*
X326013Y248459D01*
X326142Y248430D01*
X326270Y248397D01*
X326398Y248361D01*
X326524Y248321D01*
X326649Y248277D01*
X326773Y248229D01*
X326895Y248178D01*
X327016Y248123D01*
X327135Y248065D01*
X327253Y248003D01*
X327368Y247938D01*
X327482Y247869D01*
X327593Y247798D01*
X327702Y247722D01*
X327809Y247644D01*
X327914Y247563D01*
X328016Y247478D01*
X328116Y247391D01*
X328213Y247301D01*
X328308Y247208D01*
X328399Y247112D01*
X328488Y247014D01*
X328574Y246913D01*
X328657Y246809D01*
X328737Y246703D01*
X328813Y246595D01*
X328887Y246485D01*
X328957Y246372D01*
X329024Y246258D01*
X329087Y246141D01*
X329147Y246023D01*
X329204Y245903D01*
X329257Y245781D01*
X329306Y245658D01*
X329352Y245534D01*
X329394Y245408D01*
X329432Y245281D01*
X329467Y245153D01*
X329498Y245024D01*
X329525Y244895D01*
X329548Y244764D01*
X329568Y244633D01*
X329583Y244501D01*
X329595Y244369D01*
X329603Y244237D01*
X329607Y244104D01*
X329607Y243972D01*
X329603Y243839D01*
X329595Y243707D01*
X329583Y243575D01*
X329568Y243443D01*
X329548Y243312D01*
X329525Y243181D01*
X329498Y243052D01*
X329467Y242923D01*
X329432Y242795D01*
X329394Y242668D01*
X329352Y242542D01*
X329306Y242418D01*
X329257Y242295D01*
X329204Y242173D01*
X329147Y242053D01*
X329087Y241935D01*
X329024Y241818D01*
X328957Y241704D01*
X328887Y241591D01*
X328813Y241481D01*
X328737Y241373D01*
X328657Y241267D01*
X328574Y241163D01*
X328488Y241062D01*
X328399Y240964D01*
X328308Y240868D01*
X328213Y240775D01*
X328116Y240685D01*
X328016Y240598D01*
X327914Y240513D01*
X327809Y240432D01*
X327702Y240354D01*
X327593Y240278D01*
X327482Y240207D01*
X327368Y240138D01*
X327253Y240073D01*
X327135Y240011D01*
X327016Y239953D01*
X326895Y239898D01*
X326773Y239847D01*
X326649Y239799D01*
X326524Y239755D01*
X326398Y239715D01*
X326270Y239679D01*
X326142Y239646D01*
X326013Y239617D01*
X325882Y239592D01*
X325752Y239571D01*
X325620Y239553D01*
X325488Y239540D01*
X325356Y239530D01*
X325224Y239524D01*
X325091Y239522D01*
X320576Y239522D01*
X320576Y255778D01*
X325091Y255778D01*
X325210Y255776D01*
X325330Y255770D01*
X325449Y255760D01*
X325567Y255746D01*
X325686Y255729D01*
X325803Y255707D01*
X325920Y255682D01*
X326035Y255652D01*
X326150Y255619D01*
X326264Y255582D01*
X326376Y255542D01*
X326487Y255497D01*
X326596Y255449D01*
X326704Y255398D01*
X326810Y255343D01*
X326914Y255284D01*
X327016Y255222D01*
X327116Y255157D01*
X327214Y255088D01*
X327310Y255016D01*
X327403Y254941D01*
X327493Y254864D01*
X327581Y254783D01*
X327666Y254699D01*
X327748Y254612D01*
X327828Y254523D01*
X327904Y254431D01*
X327978Y254337D01*
X328048Y254240D01*
X328115Y254142D01*
X328179Y254041D01*
X328239Y253937D01*
X328296Y253832D01*
X328349Y253725D01*
X328399Y253617D01*
X328445Y253507D01*
X328487Y253395D01*
X328526Y253282D01*
X328561Y253168D01*
X328592Y253053D01*
X328620Y252936D01*
X328643Y252819D01*
X328663Y252702D01*
X328679Y252583D01*
X328691Y252464D01*
X328699Y252345D01*
X328703Y252226D01*
X328703Y252106D01*
X328699Y251987D01*
X328691Y251868D01*
X328679Y251749D01*
X328663Y251630D01*
X328643Y251513D01*
X328620Y251396D01*
X328592Y251279D01*
X328561Y251164D01*
X328526Y251050D01*
X328487Y250937D01*
X328445Y250825D01*
X328399Y250715D01*
X328349Y250607D01*
X328296Y250500D01*
X328239Y250395D01*
X328179Y250291D01*
X328115Y250190D01*
X328048Y250092D01*
X327978Y249995D01*
X327904Y249901D01*
X327828Y249809D01*
X327748Y249720D01*
X327666Y249633D01*
X327581Y249549D01*
X327493Y249468D01*
X327403Y249391D01*
X327310Y249316D01*
X327214Y249244D01*
X327116Y249175D01*
X327016Y249110D01*
X326914Y249048D01*
X326810Y248989D01*
X326704Y248934D01*
X326596Y248883D01*
X326487Y248835D01*
X326376Y248790D01*
X326264Y248750D01*
X326150Y248713D01*
X326035Y248680D01*
X325920Y248650D01*
X325803Y248625D01*
X325686Y248603D01*
X325567Y248586D01*
X325449Y248572D01*
X325330Y248562D01*
X325210Y248556D01*
X325091Y248554D01*
X338045Y239522D02*
X342561Y239522D01*
X338045Y239522D02*
X337944Y239524D01*
X337843Y239530D01*
X337742Y239539D01*
X337641Y239552D01*
X337541Y239569D01*
X337442Y239590D01*
X337344Y239614D01*
X337247Y239642D01*
X337150Y239674D01*
X337055Y239709D01*
X336962Y239748D01*
X336870Y239790D01*
X336779Y239836D01*
X336691Y239885D01*
X336604Y239937D01*
X336519Y239993D01*
X336436Y240051D01*
X336356Y240113D01*
X336278Y240178D01*
X336202Y240245D01*
X336129Y240315D01*
X336059Y240388D01*
X335992Y240464D01*
X335927Y240542D01*
X335865Y240622D01*
X335807Y240705D01*
X335751Y240790D01*
X335699Y240877D01*
X335650Y240965D01*
X335604Y241056D01*
X335562Y241148D01*
X335523Y241241D01*
X335488Y241336D01*
X335456Y241433D01*
X335428Y241530D01*
X335404Y241628D01*
X335383Y241727D01*
X335366Y241827D01*
X335353Y241928D01*
X335344Y242029D01*
X335338Y242130D01*
X335336Y242231D01*
X335336Y246747D01*
X335338Y246866D01*
X335344Y246986D01*
X335354Y247105D01*
X335368Y247223D01*
X335385Y247342D01*
X335407Y247459D01*
X335432Y247576D01*
X335462Y247691D01*
X335495Y247806D01*
X335532Y247920D01*
X335572Y248032D01*
X335617Y248143D01*
X335665Y248252D01*
X335716Y248360D01*
X335771Y248466D01*
X335830Y248570D01*
X335892Y248672D01*
X335957Y248772D01*
X336026Y248870D01*
X336098Y248966D01*
X336173Y249059D01*
X336250Y249149D01*
X336331Y249237D01*
X336415Y249322D01*
X336502Y249404D01*
X336591Y249484D01*
X336683Y249560D01*
X336777Y249634D01*
X336874Y249704D01*
X336972Y249771D01*
X337073Y249835D01*
X337177Y249895D01*
X337282Y249952D01*
X337389Y250005D01*
X337497Y250055D01*
X337607Y250101D01*
X337719Y250143D01*
X337832Y250182D01*
X337946Y250217D01*
X338061Y250248D01*
X338178Y250276D01*
X338295Y250299D01*
X338412Y250319D01*
X338531Y250335D01*
X338650Y250347D01*
X338769Y250355D01*
X338888Y250359D01*
X339008Y250359D01*
X339127Y250355D01*
X339246Y250347D01*
X339365Y250335D01*
X339484Y250319D01*
X339601Y250299D01*
X339718Y250276D01*
X339835Y250248D01*
X339950Y250217D01*
X340064Y250182D01*
X340177Y250143D01*
X340289Y250101D01*
X340399Y250055D01*
X340507Y250005D01*
X340614Y249952D01*
X340719Y249895D01*
X340823Y249835D01*
X340924Y249771D01*
X341022Y249704D01*
X341119Y249634D01*
X341213Y249560D01*
X341305Y249484D01*
X341394Y249404D01*
X341481Y249322D01*
X341565Y249237D01*
X341646Y249149D01*
X341723Y249059D01*
X341798Y248966D01*
X341870Y248870D01*
X341939Y248772D01*
X342004Y248672D01*
X342066Y248570D01*
X342125Y248466D01*
X342180Y248360D01*
X342231Y248252D01*
X342279Y248143D01*
X342324Y248032D01*
X342364Y247920D01*
X342401Y247806D01*
X342434Y247691D01*
X342464Y247576D01*
X342489Y247459D01*
X342511Y247342D01*
X342528Y247223D01*
X342542Y247105D01*
X342552Y246986D01*
X342558Y246866D01*
X342560Y246747D01*
X342561Y246747D02*
X342561Y244941D01*
X335336Y244941D01*
X351970Y245844D02*
X356034Y245844D01*
X351970Y245844D02*
X351858Y245842D01*
X351747Y245836D01*
X351636Y245826D01*
X351525Y245813D01*
X351415Y245795D01*
X351306Y245773D01*
X351197Y245748D01*
X351089Y245719D01*
X350983Y245686D01*
X350877Y245649D01*
X350773Y245609D01*
X350671Y245565D01*
X350570Y245517D01*
X350471Y245466D01*
X350373Y245411D01*
X350278Y245353D01*
X350185Y245292D01*
X350094Y245227D01*
X350005Y245159D01*
X349919Y245088D01*
X349836Y245015D01*
X349755Y244938D01*
X349676Y244858D01*
X349601Y244776D01*
X349529Y244691D01*
X349459Y244604D01*
X349393Y244514D01*
X349330Y244422D01*
X349270Y244327D01*
X349214Y244231D01*
X349161Y244133D01*
X349112Y244033D01*
X349066Y243931D01*
X349024Y243828D01*
X348985Y243723D01*
X348950Y243617D01*
X348919Y243510D01*
X348892Y243402D01*
X348868Y243293D01*
X348849Y243183D01*
X348833Y243073D01*
X348821Y242962D01*
X348813Y242850D01*
X348809Y242739D01*
X348809Y242627D01*
X348813Y242516D01*
X348821Y242404D01*
X348833Y242293D01*
X348849Y242183D01*
X348868Y242073D01*
X348892Y241964D01*
X348919Y241856D01*
X348950Y241749D01*
X348985Y241643D01*
X349024Y241538D01*
X349066Y241435D01*
X349112Y241333D01*
X349161Y241233D01*
X349214Y241135D01*
X349270Y241039D01*
X349330Y240944D01*
X349393Y240852D01*
X349459Y240762D01*
X349529Y240675D01*
X349601Y240590D01*
X349676Y240508D01*
X349755Y240428D01*
X349836Y240351D01*
X349919Y240278D01*
X350005Y240207D01*
X350094Y240139D01*
X350185Y240074D01*
X350278Y240013D01*
X350373Y239955D01*
X350471Y239900D01*
X350570Y239849D01*
X350671Y239801D01*
X350773Y239757D01*
X350877Y239717D01*
X350983Y239680D01*
X351089Y239647D01*
X351197Y239618D01*
X351306Y239593D01*
X351415Y239571D01*
X351525Y239553D01*
X351636Y239540D01*
X351747Y239530D01*
X351858Y239524D01*
X351970Y239522D01*
X356034Y239522D01*
X356034Y247650D01*
X356032Y247751D01*
X356026Y247852D01*
X356017Y247953D01*
X356004Y248054D01*
X355987Y248154D01*
X355966Y248253D01*
X355942Y248351D01*
X355914Y248448D01*
X355882Y248545D01*
X355847Y248640D01*
X355808Y248733D01*
X355766Y248825D01*
X355720Y248916D01*
X355671Y249005D01*
X355619Y249091D01*
X355563Y249176D01*
X355505Y249259D01*
X355443Y249339D01*
X355378Y249417D01*
X355311Y249493D01*
X355241Y249566D01*
X355168Y249636D01*
X355092Y249703D01*
X355014Y249768D01*
X354934Y249830D01*
X354851Y249888D01*
X354766Y249944D01*
X354680Y249996D01*
X354591Y250045D01*
X354500Y250091D01*
X354408Y250133D01*
X354315Y250172D01*
X354220Y250207D01*
X354123Y250239D01*
X354026Y250267D01*
X353928Y250291D01*
X353829Y250312D01*
X353729Y250329D01*
X353628Y250342D01*
X353527Y250351D01*
X353426Y250357D01*
X353325Y250359D01*
X349713Y250359D01*
X365587Y239522D02*
X370103Y239522D01*
X365587Y239522D02*
X365486Y239524D01*
X365385Y239530D01*
X365284Y239539D01*
X365183Y239552D01*
X365083Y239569D01*
X364984Y239590D01*
X364886Y239614D01*
X364789Y239642D01*
X364692Y239674D01*
X364597Y239709D01*
X364504Y239748D01*
X364412Y239790D01*
X364321Y239836D01*
X364233Y239885D01*
X364146Y239937D01*
X364061Y239993D01*
X363978Y240051D01*
X363898Y240113D01*
X363820Y240178D01*
X363744Y240245D01*
X363671Y240315D01*
X363601Y240388D01*
X363534Y240464D01*
X363469Y240542D01*
X363407Y240622D01*
X363349Y240705D01*
X363293Y240790D01*
X363241Y240877D01*
X363192Y240965D01*
X363146Y241056D01*
X363104Y241148D01*
X363065Y241241D01*
X363030Y241336D01*
X362998Y241433D01*
X362970Y241530D01*
X362946Y241628D01*
X362925Y241727D01*
X362908Y241827D01*
X362895Y241928D01*
X362886Y242029D01*
X362880Y242130D01*
X362878Y242231D01*
X362878Y247650D01*
X362880Y247751D01*
X362886Y247852D01*
X362895Y247953D01*
X362908Y248054D01*
X362925Y248154D01*
X362946Y248253D01*
X362970Y248351D01*
X362998Y248448D01*
X363030Y248545D01*
X363065Y248640D01*
X363104Y248733D01*
X363146Y248825D01*
X363192Y248916D01*
X363241Y249005D01*
X363293Y249091D01*
X363349Y249176D01*
X363407Y249259D01*
X363469Y249339D01*
X363534Y249417D01*
X363601Y249493D01*
X363671Y249566D01*
X363744Y249636D01*
X363820Y249703D01*
X363898Y249768D01*
X363978Y249830D01*
X364061Y249888D01*
X364146Y249944D01*
X364233Y249996D01*
X364321Y250045D01*
X364412Y250091D01*
X364504Y250133D01*
X364597Y250172D01*
X364692Y250207D01*
X364789Y250239D01*
X364886Y250267D01*
X364984Y250291D01*
X365083Y250312D01*
X365183Y250329D01*
X365284Y250342D01*
X365385Y250351D01*
X365486Y250357D01*
X365587Y250359D01*
X370103Y250359D01*
X370103Y236813D01*
X370102Y236813D02*
X370100Y236709D01*
X370094Y236606D01*
X370084Y236502D01*
X370070Y236399D01*
X370052Y236297D01*
X370031Y236196D01*
X370005Y236095D01*
X369976Y235996D01*
X369943Y235897D01*
X369906Y235800D01*
X369865Y235705D01*
X369821Y235611D01*
X369773Y235519D01*
X369722Y235429D01*
X369667Y235340D01*
X369609Y235254D01*
X369547Y235171D01*
X369483Y235089D01*
X369415Y235011D01*
X369345Y234935D01*
X369272Y234861D01*
X369195Y234791D01*
X369117Y234723D01*
X369035Y234659D01*
X368952Y234597D01*
X368866Y234539D01*
X368777Y234484D01*
X368687Y234433D01*
X368595Y234385D01*
X368501Y234341D01*
X368406Y234300D01*
X368309Y234263D01*
X368210Y234230D01*
X368111Y234201D01*
X368010Y234175D01*
X367909Y234154D01*
X367807Y234136D01*
X367704Y234122D01*
X367600Y234112D01*
X367497Y234106D01*
X367393Y234104D01*
X367393Y234103D02*
X363781Y234103D01*
X377256Y242231D02*
X377256Y255778D01*
X377256Y242231D02*
X377258Y242130D01*
X377264Y242029D01*
X377273Y241928D01*
X377286Y241827D01*
X377303Y241727D01*
X377324Y241628D01*
X377348Y241530D01*
X377376Y241433D01*
X377408Y241336D01*
X377443Y241241D01*
X377482Y241148D01*
X377524Y241056D01*
X377570Y240965D01*
X377619Y240877D01*
X377671Y240790D01*
X377727Y240705D01*
X377785Y240622D01*
X377847Y240542D01*
X377912Y240464D01*
X377979Y240388D01*
X378049Y240315D01*
X378122Y240245D01*
X378198Y240178D01*
X378276Y240113D01*
X378356Y240051D01*
X378439Y239993D01*
X378524Y239937D01*
X378611Y239885D01*
X378699Y239836D01*
X378790Y239790D01*
X378882Y239748D01*
X378975Y239709D01*
X379070Y239674D01*
X379167Y239642D01*
X379264Y239614D01*
X379362Y239590D01*
X379461Y239569D01*
X379561Y239552D01*
X379662Y239539D01*
X379763Y239530D01*
X379864Y239524D01*
X379965Y239522D01*
X388065Y239522D02*
X392581Y239522D01*
X388065Y239522D02*
X387964Y239524D01*
X387863Y239530D01*
X387762Y239539D01*
X387661Y239552D01*
X387561Y239569D01*
X387462Y239590D01*
X387364Y239614D01*
X387267Y239642D01*
X387170Y239674D01*
X387075Y239709D01*
X386982Y239748D01*
X386890Y239790D01*
X386799Y239836D01*
X386711Y239885D01*
X386624Y239937D01*
X386539Y239993D01*
X386456Y240051D01*
X386376Y240113D01*
X386298Y240178D01*
X386222Y240245D01*
X386149Y240315D01*
X386079Y240388D01*
X386012Y240464D01*
X385947Y240542D01*
X385885Y240622D01*
X385827Y240705D01*
X385771Y240790D01*
X385719Y240877D01*
X385670Y240965D01*
X385624Y241056D01*
X385582Y241148D01*
X385543Y241241D01*
X385508Y241336D01*
X385476Y241433D01*
X385448Y241530D01*
X385424Y241628D01*
X385403Y241727D01*
X385386Y241827D01*
X385373Y241928D01*
X385364Y242029D01*
X385358Y242130D01*
X385356Y242231D01*
X385356Y246747D01*
X385358Y246866D01*
X385364Y246986D01*
X385374Y247105D01*
X385388Y247223D01*
X385405Y247342D01*
X385427Y247459D01*
X385452Y247576D01*
X385482Y247691D01*
X385515Y247806D01*
X385552Y247920D01*
X385592Y248032D01*
X385637Y248143D01*
X385685Y248252D01*
X385736Y248360D01*
X385791Y248466D01*
X385850Y248570D01*
X385912Y248672D01*
X385977Y248772D01*
X386046Y248870D01*
X386118Y248966D01*
X386193Y249059D01*
X386270Y249149D01*
X386351Y249237D01*
X386435Y249322D01*
X386522Y249404D01*
X386611Y249484D01*
X386703Y249560D01*
X386797Y249634D01*
X386894Y249704D01*
X386992Y249771D01*
X387093Y249835D01*
X387197Y249895D01*
X387302Y249952D01*
X387409Y250005D01*
X387517Y250055D01*
X387627Y250101D01*
X387739Y250143D01*
X387852Y250182D01*
X387966Y250217D01*
X388081Y250248D01*
X388198Y250276D01*
X388315Y250299D01*
X388432Y250319D01*
X388551Y250335D01*
X388670Y250347D01*
X388789Y250355D01*
X388908Y250359D01*
X389028Y250359D01*
X389147Y250355D01*
X389266Y250347D01*
X389385Y250335D01*
X389504Y250319D01*
X389621Y250299D01*
X389738Y250276D01*
X389855Y250248D01*
X389970Y250217D01*
X390084Y250182D01*
X390197Y250143D01*
X390309Y250101D01*
X390419Y250055D01*
X390527Y250005D01*
X390634Y249952D01*
X390739Y249895D01*
X390843Y249835D01*
X390944Y249771D01*
X391042Y249704D01*
X391139Y249634D01*
X391233Y249560D01*
X391325Y249484D01*
X391414Y249404D01*
X391501Y249322D01*
X391585Y249237D01*
X391666Y249149D01*
X391743Y249059D01*
X391818Y248966D01*
X391890Y248870D01*
X391959Y248772D01*
X392024Y248672D01*
X392086Y248570D01*
X392145Y248466D01*
X392200Y248360D01*
X392251Y248252D01*
X392299Y248143D01*
X392344Y248032D01*
X392384Y247920D01*
X392421Y247806D01*
X392454Y247691D01*
X392484Y247576D01*
X392509Y247459D01*
X392531Y247342D01*
X392548Y247223D01*
X392562Y247105D01*
X392572Y246986D01*
X392578Y246866D01*
X392580Y246747D01*
X392581Y246747D02*
X392581Y244941D01*
X385356Y244941D01*
X67112Y227398D02*
X55372Y227398D01*
X67112Y227397D02*
X67245Y227399D01*
X67377Y227405D01*
X67509Y227415D01*
X67641Y227428D01*
X67773Y227446D01*
X67903Y227467D01*
X68034Y227492D01*
X68163Y227521D01*
X68291Y227554D01*
X68419Y227590D01*
X68545Y227630D01*
X68670Y227674D01*
X68794Y227722D01*
X68916Y227773D01*
X69037Y227828D01*
X69156Y227886D01*
X69274Y227948D01*
X69389Y228013D01*
X69503Y228082D01*
X69614Y228153D01*
X69723Y228229D01*
X69830Y228307D01*
X69935Y228388D01*
X70037Y228473D01*
X70137Y228560D01*
X70234Y228650D01*
X70329Y228743D01*
X70420Y228839D01*
X70509Y228937D01*
X70595Y229038D01*
X70678Y229142D01*
X70758Y229248D01*
X70834Y229356D01*
X70908Y229466D01*
X70978Y229579D01*
X71045Y229693D01*
X71108Y229810D01*
X71168Y229928D01*
X71225Y230048D01*
X71278Y230170D01*
X71327Y230293D01*
X71373Y230417D01*
X71415Y230543D01*
X71453Y230670D01*
X71488Y230798D01*
X71519Y230927D01*
X71546Y231056D01*
X71569Y231187D01*
X71589Y231318D01*
X71604Y231450D01*
X71616Y231582D01*
X71624Y231714D01*
X71628Y231847D01*
X71628Y231979D01*
X71624Y232112D01*
X71616Y232244D01*
X71604Y232376D01*
X71589Y232508D01*
X71569Y232639D01*
X71546Y232770D01*
X71519Y232899D01*
X71488Y233028D01*
X71453Y233156D01*
X71415Y233283D01*
X71373Y233409D01*
X71327Y233533D01*
X71278Y233656D01*
X71225Y233778D01*
X71168Y233898D01*
X71108Y234016D01*
X71045Y234133D01*
X70978Y234247D01*
X70908Y234360D01*
X70834Y234470D01*
X70758Y234578D01*
X70678Y234684D01*
X70595Y234788D01*
X70509Y234889D01*
X70420Y234987D01*
X70329Y235083D01*
X70234Y235176D01*
X70137Y235266D01*
X70037Y235353D01*
X69935Y235438D01*
X69830Y235519D01*
X69723Y235597D01*
X69614Y235673D01*
X69503Y235744D01*
X69389Y235813D01*
X69274Y235878D01*
X69156Y235940D01*
X69037Y235998D01*
X68916Y236053D01*
X68794Y236104D01*
X68670Y236152D01*
X68545Y236196D01*
X68419Y236236D01*
X68291Y236272D01*
X68163Y236305D01*
X68034Y236334D01*
X67903Y236359D01*
X67773Y236380D01*
X67641Y236398D01*
X67509Y236411D01*
X67377Y236421D01*
X67245Y236427D01*
X67112Y236429D01*
X55372Y236429D01*
X68016Y252060D02*
X68134Y252058D01*
X68252Y252052D01*
X68370Y252043D01*
X68487Y252029D01*
X68604Y252012D01*
X68721Y251991D01*
X68836Y251966D01*
X68951Y251937D01*
X69065Y251904D01*
X69177Y251868D01*
X69288Y251828D01*
X69398Y251785D01*
X69507Y251738D01*
X69614Y251688D01*
X69719Y251633D01*
X69822Y251576D01*
X69923Y251515D01*
X70023Y251451D01*
X70120Y251384D01*
X70215Y251314D01*
X70307Y251240D01*
X70398Y251164D01*
X70485Y251084D01*
X70570Y251002D01*
X70652Y250917D01*
X70732Y250830D01*
X70808Y250739D01*
X70882Y250647D01*
X70952Y250552D01*
X71019Y250455D01*
X71083Y250355D01*
X71144Y250254D01*
X71201Y250151D01*
X71256Y250046D01*
X71306Y249939D01*
X71353Y249830D01*
X71396Y249720D01*
X71436Y249609D01*
X71472Y249497D01*
X71505Y249383D01*
X71534Y249268D01*
X71559Y249153D01*
X71580Y249036D01*
X71597Y248919D01*
X71611Y248802D01*
X71620Y248684D01*
X71626Y248566D01*
X71628Y248448D01*
X71626Y248265D01*
X71619Y248083D01*
X71608Y247901D01*
X71593Y247719D01*
X71573Y247537D01*
X71550Y247356D01*
X71521Y247176D01*
X71489Y246996D01*
X71452Y246817D01*
X71411Y246640D01*
X71365Y246463D01*
X71316Y246287D01*
X71262Y246113D01*
X71204Y245939D01*
X71142Y245768D01*
X71076Y245598D01*
X71005Y245429D01*
X70931Y245262D01*
X70853Y245097D01*
X70771Y244934D01*
X70685Y244773D01*
X70595Y244614D01*
X70501Y244457D01*
X70404Y244303D01*
X70303Y244151D01*
X70198Y244001D01*
X70090Y243854D01*
X69979Y243710D01*
X69864Y243568D01*
X69745Y243429D01*
X69623Y243293D01*
X69498Y243160D01*
X69370Y243030D01*
X58984Y243481D02*
X58866Y243483D01*
X58748Y243489D01*
X58630Y243498D01*
X58513Y243512D01*
X58396Y243529D01*
X58279Y243550D01*
X58164Y243575D01*
X58049Y243604D01*
X57935Y243637D01*
X57823Y243673D01*
X57712Y243713D01*
X57602Y243756D01*
X57493Y243803D01*
X57386Y243853D01*
X57281Y243908D01*
X57178Y243965D01*
X57077Y244026D01*
X56977Y244090D01*
X56880Y244157D01*
X56785Y244227D01*
X56693Y244301D01*
X56602Y244377D01*
X56515Y244457D01*
X56430Y244539D01*
X56348Y244624D01*
X56268Y244711D01*
X56192Y244802D01*
X56118Y244894D01*
X56048Y244989D01*
X55981Y245086D01*
X55917Y245186D01*
X55856Y245287D01*
X55799Y245390D01*
X55744Y245495D01*
X55694Y245602D01*
X55647Y245711D01*
X55604Y245821D01*
X55564Y245932D01*
X55528Y246044D01*
X55495Y246158D01*
X55466Y246273D01*
X55441Y246388D01*
X55420Y246505D01*
X55403Y246622D01*
X55389Y246739D01*
X55380Y246857D01*
X55374Y246975D01*
X55372Y247093D01*
X55374Y247254D01*
X55380Y247416D01*
X55389Y247577D01*
X55403Y247738D01*
X55420Y247898D01*
X55441Y248058D01*
X55466Y248218D01*
X55495Y248377D01*
X55527Y248535D01*
X55563Y248692D01*
X55603Y248848D01*
X55647Y249004D01*
X55695Y249158D01*
X55746Y249311D01*
X55800Y249463D01*
X55859Y249614D01*
X55920Y249763D01*
X55986Y249910D01*
X56055Y250056D01*
X56127Y250201D01*
X56203Y250343D01*
X56282Y250484D01*
X56364Y250623D01*
X56450Y250759D01*
X56539Y250894D01*
X56631Y251027D01*
X56727Y251157D01*
X62145Y245286D02*
X62083Y245185D01*
X62018Y245085D01*
X61949Y244988D01*
X61877Y244893D01*
X61803Y244800D01*
X61725Y244710D01*
X61644Y244622D01*
X61561Y244537D01*
X61475Y244455D01*
X61386Y244376D01*
X61295Y244299D01*
X61201Y244226D01*
X61105Y244155D01*
X61007Y244088D01*
X60907Y244024D01*
X60804Y243963D01*
X60700Y243906D01*
X60594Y243852D01*
X60486Y243802D01*
X60377Y243755D01*
X60266Y243711D01*
X60154Y243671D01*
X60040Y243635D01*
X59926Y243603D01*
X59810Y243574D01*
X59694Y243549D01*
X59577Y243528D01*
X59459Y243511D01*
X59341Y243497D01*
X59222Y243488D01*
X59103Y243482D01*
X58984Y243480D01*
X64855Y250254D02*
X64917Y250355D01*
X64982Y250455D01*
X65051Y250552D01*
X65123Y250647D01*
X65197Y250740D01*
X65275Y250830D01*
X65356Y250918D01*
X65439Y251003D01*
X65525Y251085D01*
X65614Y251164D01*
X65705Y251241D01*
X65799Y251314D01*
X65895Y251385D01*
X65993Y251452D01*
X66093Y251516D01*
X66196Y251577D01*
X66300Y251634D01*
X66406Y251688D01*
X66514Y251738D01*
X66623Y251785D01*
X66734Y251829D01*
X66846Y251869D01*
X66960Y251905D01*
X67074Y251937D01*
X67190Y251966D01*
X67306Y251991D01*
X67423Y252012D01*
X67541Y252029D01*
X67659Y252043D01*
X67778Y252052D01*
X67897Y252058D01*
X68016Y252060D01*
X64855Y250254D02*
X62145Y245287D01*
X62597Y258871D02*
X62597Y263387D01*
X62596Y263387D02*
X62598Y263520D01*
X62604Y263652D01*
X62614Y263784D01*
X62627Y263916D01*
X62645Y264048D01*
X62666Y264178D01*
X62691Y264309D01*
X62720Y264438D01*
X62753Y264566D01*
X62789Y264694D01*
X62829Y264820D01*
X62873Y264945D01*
X62921Y265069D01*
X62972Y265191D01*
X63027Y265312D01*
X63085Y265431D01*
X63147Y265549D01*
X63212Y265664D01*
X63281Y265778D01*
X63352Y265889D01*
X63428Y265998D01*
X63506Y266105D01*
X63587Y266210D01*
X63672Y266312D01*
X63759Y266412D01*
X63849Y266509D01*
X63942Y266604D01*
X64038Y266695D01*
X64136Y266784D01*
X64237Y266870D01*
X64341Y266953D01*
X64447Y267033D01*
X64555Y267109D01*
X64665Y267183D01*
X64778Y267253D01*
X64892Y267320D01*
X65009Y267383D01*
X65127Y267443D01*
X65247Y267500D01*
X65369Y267553D01*
X65492Y267602D01*
X65616Y267648D01*
X65742Y267690D01*
X65869Y267728D01*
X65997Y267763D01*
X66126Y267794D01*
X66255Y267821D01*
X66386Y267844D01*
X66517Y267864D01*
X66649Y267879D01*
X66781Y267891D01*
X66913Y267899D01*
X67046Y267903D01*
X67178Y267903D01*
X67311Y267899D01*
X67443Y267891D01*
X67575Y267879D01*
X67707Y267864D01*
X67838Y267844D01*
X67969Y267821D01*
X68098Y267794D01*
X68227Y267763D01*
X68355Y267728D01*
X68482Y267690D01*
X68608Y267648D01*
X68732Y267602D01*
X68855Y267553D01*
X68977Y267500D01*
X69097Y267443D01*
X69215Y267383D01*
X69332Y267320D01*
X69446Y267253D01*
X69559Y267183D01*
X69669Y267109D01*
X69777Y267033D01*
X69883Y266953D01*
X69987Y266870D01*
X70088Y266784D01*
X70186Y266695D01*
X70282Y266604D01*
X70375Y266509D01*
X70465Y266412D01*
X70552Y266312D01*
X70637Y266210D01*
X70718Y266105D01*
X70796Y265998D01*
X70872Y265889D01*
X70943Y265778D01*
X71012Y265664D01*
X71077Y265549D01*
X71139Y265431D01*
X71197Y265312D01*
X71252Y265191D01*
X71303Y265069D01*
X71351Y264945D01*
X71395Y264820D01*
X71435Y264694D01*
X71471Y264566D01*
X71504Y264438D01*
X71533Y264309D01*
X71558Y264178D01*
X71579Y264048D01*
X71597Y263916D01*
X71610Y263784D01*
X71620Y263652D01*
X71626Y263520D01*
X71628Y263387D01*
X71628Y258871D01*
X55372Y258871D01*
X55372Y263387D01*
X55374Y263506D01*
X55380Y263626D01*
X55390Y263745D01*
X55404Y263863D01*
X55421Y263982D01*
X55443Y264099D01*
X55468Y264216D01*
X55498Y264331D01*
X55531Y264446D01*
X55568Y264560D01*
X55608Y264672D01*
X55653Y264783D01*
X55701Y264892D01*
X55752Y265000D01*
X55807Y265106D01*
X55866Y265210D01*
X55928Y265312D01*
X55993Y265412D01*
X56062Y265510D01*
X56134Y265606D01*
X56209Y265699D01*
X56286Y265789D01*
X56367Y265877D01*
X56451Y265962D01*
X56538Y266044D01*
X56627Y266124D01*
X56719Y266200D01*
X56813Y266274D01*
X56910Y266344D01*
X57008Y266411D01*
X57109Y266475D01*
X57213Y266535D01*
X57318Y266592D01*
X57425Y266645D01*
X57533Y266695D01*
X57643Y266741D01*
X57755Y266783D01*
X57868Y266822D01*
X57982Y266857D01*
X58097Y266888D01*
X58214Y266916D01*
X58331Y266939D01*
X58448Y266959D01*
X58567Y266975D01*
X58686Y266987D01*
X58805Y266995D01*
X58924Y266999D01*
X59044Y266999D01*
X59163Y266995D01*
X59282Y266987D01*
X59401Y266975D01*
X59520Y266959D01*
X59637Y266939D01*
X59754Y266916D01*
X59871Y266888D01*
X59986Y266857D01*
X60100Y266822D01*
X60213Y266783D01*
X60325Y266741D01*
X60435Y266695D01*
X60543Y266645D01*
X60650Y266592D01*
X60755Y266535D01*
X60859Y266475D01*
X60960Y266411D01*
X61058Y266344D01*
X61155Y266274D01*
X61249Y266200D01*
X61341Y266124D01*
X61430Y266044D01*
X61517Y265962D01*
X61601Y265877D01*
X61682Y265789D01*
X61759Y265699D01*
X61834Y265606D01*
X61906Y265510D01*
X61975Y265412D01*
X62040Y265312D01*
X62102Y265210D01*
X62161Y265106D01*
X62216Y265000D01*
X62267Y264892D01*
X62315Y264783D01*
X62360Y264672D01*
X62400Y264560D01*
X62437Y264446D01*
X62470Y264331D01*
X62500Y264216D01*
X62525Y264099D01*
X62547Y263982D01*
X62564Y263863D01*
X62578Y263745D01*
X62588Y263626D01*
X62594Y263506D01*
X62596Y263387D01*
X568791Y205168D02*
X579628Y205168D01*
X568791Y205168D02*
X568791Y213296D01*
X568793Y213397D01*
X568799Y213498D01*
X568808Y213599D01*
X568821Y213700D01*
X568838Y213800D01*
X568859Y213899D01*
X568883Y213997D01*
X568911Y214094D01*
X568943Y214191D01*
X568978Y214286D01*
X569017Y214379D01*
X569059Y214471D01*
X569105Y214562D01*
X569154Y214651D01*
X569206Y214737D01*
X569262Y214822D01*
X569320Y214905D01*
X569382Y214985D01*
X569447Y215063D01*
X569514Y215139D01*
X569584Y215212D01*
X569657Y215282D01*
X569733Y215349D01*
X569811Y215414D01*
X569891Y215476D01*
X569974Y215534D01*
X570059Y215590D01*
X570146Y215642D01*
X570234Y215691D01*
X570325Y215737D01*
X570417Y215779D01*
X570510Y215818D01*
X570605Y215853D01*
X570702Y215885D01*
X570799Y215913D01*
X570897Y215937D01*
X570996Y215958D01*
X571096Y215975D01*
X571197Y215988D01*
X571298Y215997D01*
X571399Y216003D01*
X571500Y216005D01*
X579628Y216005D01*
X579628Y210587D02*
X568791Y210587D01*
X568791Y223092D02*
X579628Y223092D01*
X564275Y222640D02*
X563372Y222640D01*
X563372Y223543D01*
X564275Y223543D01*
X564275Y222640D01*
X579628Y232106D02*
X579628Y235718D01*
X579628Y232106D02*
X579626Y232005D01*
X579620Y231904D01*
X579611Y231803D01*
X579598Y231702D01*
X579581Y231602D01*
X579560Y231503D01*
X579536Y231405D01*
X579508Y231308D01*
X579476Y231211D01*
X579441Y231116D01*
X579402Y231023D01*
X579360Y230931D01*
X579314Y230840D01*
X579265Y230751D01*
X579213Y230665D01*
X579157Y230580D01*
X579099Y230497D01*
X579037Y230417D01*
X578972Y230339D01*
X578905Y230263D01*
X578835Y230190D01*
X578762Y230120D01*
X578686Y230053D01*
X578608Y229988D01*
X578528Y229926D01*
X578445Y229868D01*
X578360Y229812D01*
X578274Y229760D01*
X578185Y229711D01*
X578094Y229665D01*
X578002Y229623D01*
X577909Y229584D01*
X577814Y229549D01*
X577717Y229517D01*
X577620Y229489D01*
X577522Y229465D01*
X577423Y229444D01*
X577323Y229427D01*
X577222Y229414D01*
X577121Y229405D01*
X577020Y229399D01*
X576919Y229397D01*
X571500Y229397D01*
X571399Y229399D01*
X571298Y229405D01*
X571197Y229414D01*
X571096Y229427D01*
X570996Y229444D01*
X570897Y229465D01*
X570799Y229489D01*
X570702Y229517D01*
X570605Y229549D01*
X570510Y229584D01*
X570417Y229623D01*
X570325Y229665D01*
X570234Y229711D01*
X570146Y229760D01*
X570059Y229812D01*
X569974Y229868D01*
X569891Y229926D01*
X569811Y229988D01*
X569733Y230053D01*
X569657Y230120D01*
X569584Y230190D01*
X569514Y230263D01*
X569447Y230339D01*
X569382Y230417D01*
X569320Y230497D01*
X569262Y230580D01*
X569206Y230665D01*
X569154Y230752D01*
X569105Y230840D01*
X569059Y230931D01*
X569017Y231023D01*
X568978Y231116D01*
X568943Y231211D01*
X568911Y231308D01*
X568883Y231405D01*
X568859Y231503D01*
X568838Y231602D01*
X568821Y231702D01*
X568808Y231803D01*
X568799Y231904D01*
X568793Y232005D01*
X568791Y232106D01*
X568791Y235718D01*
X568791Y241969D02*
X579628Y241969D01*
X568791Y241969D02*
X568791Y247387D01*
X570597Y247387D01*
X572403Y252305D02*
X576016Y252305D01*
X572403Y252305D02*
X572284Y252307D01*
X572164Y252313D01*
X572045Y252323D01*
X571927Y252337D01*
X571808Y252354D01*
X571691Y252376D01*
X571574Y252401D01*
X571459Y252431D01*
X571344Y252464D01*
X571230Y252501D01*
X571118Y252541D01*
X571007Y252586D01*
X570898Y252634D01*
X570790Y252685D01*
X570684Y252740D01*
X570580Y252799D01*
X570478Y252861D01*
X570378Y252926D01*
X570280Y252995D01*
X570184Y253067D01*
X570091Y253142D01*
X570001Y253219D01*
X569913Y253300D01*
X569828Y253384D01*
X569746Y253471D01*
X569666Y253560D01*
X569590Y253652D01*
X569516Y253746D01*
X569446Y253843D01*
X569379Y253941D01*
X569315Y254042D01*
X569255Y254146D01*
X569198Y254251D01*
X569145Y254358D01*
X569095Y254466D01*
X569049Y254576D01*
X569007Y254688D01*
X568968Y254801D01*
X568933Y254915D01*
X568902Y255030D01*
X568874Y255147D01*
X568851Y255264D01*
X568831Y255381D01*
X568815Y255500D01*
X568803Y255619D01*
X568795Y255738D01*
X568791Y255857D01*
X568791Y255977D01*
X568795Y256096D01*
X568803Y256215D01*
X568815Y256334D01*
X568831Y256453D01*
X568851Y256570D01*
X568874Y256687D01*
X568902Y256804D01*
X568933Y256919D01*
X568968Y257033D01*
X569007Y257146D01*
X569049Y257258D01*
X569095Y257368D01*
X569145Y257476D01*
X569198Y257583D01*
X569255Y257688D01*
X569315Y257792D01*
X569379Y257893D01*
X569446Y257991D01*
X569516Y258088D01*
X569590Y258182D01*
X569666Y258274D01*
X569746Y258363D01*
X569828Y258450D01*
X569913Y258534D01*
X570001Y258615D01*
X570091Y258692D01*
X570184Y258767D01*
X570280Y258839D01*
X570378Y258908D01*
X570478Y258973D01*
X570580Y259035D01*
X570684Y259094D01*
X570790Y259149D01*
X570898Y259200D01*
X571007Y259248D01*
X571118Y259293D01*
X571230Y259333D01*
X571344Y259370D01*
X571459Y259403D01*
X571574Y259433D01*
X571691Y259458D01*
X571808Y259480D01*
X571927Y259497D01*
X572045Y259511D01*
X572164Y259521D01*
X572284Y259527D01*
X572403Y259529D01*
X572403Y259530D02*
X576016Y259530D01*
X576016Y259529D02*
X576135Y259527D01*
X576255Y259521D01*
X576374Y259511D01*
X576492Y259497D01*
X576611Y259480D01*
X576728Y259458D01*
X576845Y259433D01*
X576960Y259403D01*
X577075Y259370D01*
X577189Y259333D01*
X577301Y259293D01*
X577412Y259248D01*
X577521Y259200D01*
X577629Y259149D01*
X577735Y259094D01*
X577839Y259035D01*
X577941Y258973D01*
X578041Y258908D01*
X578139Y258839D01*
X578235Y258767D01*
X578328Y258692D01*
X578418Y258615D01*
X578506Y258534D01*
X578591Y258450D01*
X578673Y258363D01*
X578753Y258274D01*
X578829Y258182D01*
X578903Y258088D01*
X578973Y257991D01*
X579040Y257893D01*
X579104Y257792D01*
X579164Y257688D01*
X579221Y257583D01*
X579274Y257476D01*
X579324Y257368D01*
X579370Y257258D01*
X579412Y257146D01*
X579451Y257033D01*
X579486Y256919D01*
X579517Y256804D01*
X579545Y256687D01*
X579568Y256570D01*
X579588Y256453D01*
X579604Y256334D01*
X579616Y256215D01*
X579624Y256096D01*
X579628Y255977D01*
X579628Y255857D01*
X579624Y255738D01*
X579616Y255619D01*
X579604Y255500D01*
X579588Y255381D01*
X579568Y255264D01*
X579545Y255147D01*
X579517Y255030D01*
X579486Y254915D01*
X579451Y254801D01*
X579412Y254688D01*
X579370Y254576D01*
X579324Y254466D01*
X579274Y254358D01*
X579221Y254251D01*
X579164Y254146D01*
X579104Y254042D01*
X579040Y253941D01*
X578973Y253843D01*
X578903Y253746D01*
X578829Y253652D01*
X578753Y253560D01*
X578673Y253471D01*
X578591Y253384D01*
X578506Y253300D01*
X578418Y253219D01*
X578328Y253142D01*
X578235Y253067D01*
X578139Y252995D01*
X578041Y252926D01*
X577941Y252861D01*
X577839Y252799D01*
X577735Y252740D01*
X577629Y252685D01*
X577521Y252634D01*
X577412Y252586D01*
X577301Y252541D01*
X577189Y252501D01*
X577075Y252464D01*
X576960Y252431D01*
X576845Y252401D01*
X576728Y252376D01*
X576611Y252354D01*
X576492Y252337D01*
X576374Y252323D01*
X576255Y252313D01*
X576135Y252307D01*
X576016Y252305D01*
X579628Y270888D02*
X579626Y271006D01*
X579620Y271124D01*
X579611Y271242D01*
X579597Y271359D01*
X579580Y271476D01*
X579559Y271593D01*
X579534Y271708D01*
X579505Y271823D01*
X579472Y271937D01*
X579436Y272049D01*
X579396Y272160D01*
X579353Y272270D01*
X579306Y272379D01*
X579256Y272486D01*
X579201Y272591D01*
X579144Y272694D01*
X579083Y272795D01*
X579019Y272895D01*
X578952Y272992D01*
X578882Y273087D01*
X578808Y273179D01*
X578732Y273270D01*
X578652Y273357D01*
X578570Y273442D01*
X578485Y273524D01*
X578398Y273604D01*
X578307Y273680D01*
X578215Y273754D01*
X578120Y273824D01*
X578023Y273891D01*
X577923Y273955D01*
X577822Y274016D01*
X577719Y274073D01*
X577614Y274128D01*
X577507Y274178D01*
X577398Y274225D01*
X577288Y274268D01*
X577177Y274308D01*
X577065Y274344D01*
X576951Y274377D01*
X576836Y274406D01*
X576721Y274431D01*
X576604Y274452D01*
X576487Y274469D01*
X576370Y274483D01*
X576252Y274492D01*
X576134Y274498D01*
X576016Y274500D01*
X579628Y270888D02*
X579626Y270705D01*
X579619Y270523D01*
X579608Y270341D01*
X579593Y270159D01*
X579573Y269977D01*
X579550Y269796D01*
X579521Y269616D01*
X579489Y269436D01*
X579452Y269257D01*
X579411Y269080D01*
X579365Y268903D01*
X579316Y268727D01*
X579262Y268553D01*
X579204Y268379D01*
X579142Y268208D01*
X579076Y268038D01*
X579005Y267869D01*
X578931Y267702D01*
X578853Y267537D01*
X578771Y267374D01*
X578685Y267213D01*
X578595Y267054D01*
X578501Y266897D01*
X578404Y266743D01*
X578303Y266591D01*
X578198Y266441D01*
X578090Y266294D01*
X577979Y266150D01*
X577864Y266008D01*
X577745Y265869D01*
X577623Y265733D01*
X577498Y265600D01*
X577370Y265470D01*
X566984Y265922D02*
X566866Y265924D01*
X566748Y265930D01*
X566630Y265939D01*
X566513Y265953D01*
X566396Y265970D01*
X566279Y265991D01*
X566164Y266016D01*
X566049Y266045D01*
X565935Y266078D01*
X565823Y266114D01*
X565712Y266154D01*
X565602Y266197D01*
X565493Y266244D01*
X565386Y266294D01*
X565281Y266349D01*
X565178Y266406D01*
X565077Y266467D01*
X564977Y266531D01*
X564880Y266598D01*
X564785Y266668D01*
X564693Y266742D01*
X564602Y266818D01*
X564515Y266898D01*
X564430Y266980D01*
X564348Y267065D01*
X564268Y267152D01*
X564192Y267243D01*
X564118Y267335D01*
X564048Y267430D01*
X563981Y267527D01*
X563917Y267627D01*
X563856Y267728D01*
X563799Y267831D01*
X563744Y267936D01*
X563694Y268043D01*
X563647Y268152D01*
X563604Y268262D01*
X563564Y268373D01*
X563528Y268485D01*
X563495Y268599D01*
X563466Y268714D01*
X563441Y268829D01*
X563420Y268946D01*
X563403Y269063D01*
X563389Y269180D01*
X563380Y269298D01*
X563374Y269416D01*
X563372Y269534D01*
X563374Y269695D01*
X563380Y269857D01*
X563389Y270018D01*
X563403Y270179D01*
X563420Y270339D01*
X563441Y270499D01*
X563466Y270659D01*
X563495Y270818D01*
X563527Y270976D01*
X563563Y271133D01*
X563603Y271289D01*
X563647Y271445D01*
X563695Y271599D01*
X563746Y271752D01*
X563800Y271904D01*
X563859Y272055D01*
X563920Y272204D01*
X563986Y272351D01*
X564055Y272497D01*
X564127Y272642D01*
X564203Y272784D01*
X564282Y272925D01*
X564364Y273064D01*
X564450Y273200D01*
X564539Y273335D01*
X564631Y273468D01*
X564727Y273598D01*
X570145Y267727D02*
X570083Y267626D01*
X570018Y267526D01*
X569949Y267429D01*
X569877Y267334D01*
X569803Y267241D01*
X569725Y267151D01*
X569644Y267063D01*
X569561Y266978D01*
X569475Y266896D01*
X569386Y266817D01*
X569295Y266740D01*
X569201Y266667D01*
X569105Y266596D01*
X569007Y266529D01*
X568907Y266465D01*
X568804Y266404D01*
X568700Y266347D01*
X568594Y266293D01*
X568486Y266243D01*
X568377Y266196D01*
X568266Y266152D01*
X568154Y266112D01*
X568040Y266076D01*
X567926Y266044D01*
X567810Y266015D01*
X567694Y265990D01*
X567577Y265969D01*
X567459Y265952D01*
X567341Y265938D01*
X567222Y265929D01*
X567103Y265923D01*
X566984Y265921D01*
X572855Y272695D02*
X572917Y272796D01*
X572982Y272896D01*
X573051Y272993D01*
X573123Y273088D01*
X573197Y273181D01*
X573275Y273271D01*
X573356Y273359D01*
X573439Y273444D01*
X573525Y273526D01*
X573614Y273605D01*
X573705Y273682D01*
X573799Y273755D01*
X573895Y273826D01*
X573993Y273893D01*
X574093Y273957D01*
X574196Y274018D01*
X574300Y274075D01*
X574406Y274129D01*
X574514Y274179D01*
X574623Y274226D01*
X574734Y274270D01*
X574846Y274310D01*
X574960Y274346D01*
X575074Y274378D01*
X575190Y274407D01*
X575306Y274432D01*
X575423Y274453D01*
X575541Y274470D01*
X575659Y274484D01*
X575778Y274493D01*
X575897Y274499D01*
X576016Y274501D01*
X572855Y272695D02*
X570145Y267727D01*
X563372Y281101D02*
X579628Y281101D01*
X563372Y281101D02*
X563372Y285617D01*
X563374Y285748D01*
X563380Y285880D01*
X563389Y286011D01*
X563403Y286141D01*
X563420Y286272D01*
X563441Y286401D01*
X563465Y286530D01*
X563494Y286658D01*
X563526Y286786D01*
X563562Y286912D01*
X563601Y287037D01*
X563644Y287162D01*
X563691Y287284D01*
X563741Y287406D01*
X563795Y287526D01*
X563852Y287644D01*
X563913Y287760D01*
X563977Y287875D01*
X564044Y287988D01*
X564115Y288099D01*
X564189Y288207D01*
X564266Y288314D01*
X564346Y288418D01*
X564429Y288520D01*
X564514Y288619D01*
X564603Y288716D01*
X564695Y288810D01*
X564789Y288902D01*
X564886Y288991D01*
X564985Y289076D01*
X565087Y289159D01*
X565191Y289239D01*
X565298Y289316D01*
X565406Y289390D01*
X565517Y289461D01*
X565630Y289528D01*
X565745Y289592D01*
X565861Y289653D01*
X565979Y289710D01*
X566099Y289764D01*
X566221Y289814D01*
X566343Y289861D01*
X566468Y289904D01*
X566593Y289943D01*
X566719Y289979D01*
X566847Y290011D01*
X566975Y290040D01*
X567104Y290064D01*
X567233Y290085D01*
X567364Y290102D01*
X567494Y290116D01*
X567625Y290125D01*
X567757Y290131D01*
X567888Y290133D01*
X567888Y290132D02*
X575112Y290132D01*
X575112Y290133D02*
X575243Y290131D01*
X575375Y290125D01*
X575506Y290116D01*
X575636Y290102D01*
X575767Y290085D01*
X575896Y290064D01*
X576025Y290040D01*
X576153Y290011D01*
X576281Y289979D01*
X576407Y289943D01*
X576532Y289904D01*
X576657Y289861D01*
X576779Y289814D01*
X576901Y289764D01*
X577021Y289710D01*
X577139Y289653D01*
X577255Y289592D01*
X577370Y289528D01*
X577483Y289461D01*
X577594Y289390D01*
X577702Y289316D01*
X577809Y289239D01*
X577913Y289159D01*
X578015Y289076D01*
X578114Y288991D01*
X578211Y288902D01*
X578305Y288810D01*
X578397Y288716D01*
X578486Y288619D01*
X578571Y288520D01*
X578654Y288418D01*
X578734Y288314D01*
X578811Y288207D01*
X578885Y288099D01*
X578956Y287988D01*
X579023Y287875D01*
X579087Y287760D01*
X579148Y287644D01*
X579205Y287526D01*
X579259Y287406D01*
X579309Y287284D01*
X579356Y287162D01*
X579399Y287037D01*
X579438Y286912D01*
X579474Y286786D01*
X579506Y286658D01*
X579535Y286530D01*
X579559Y286401D01*
X579580Y286271D01*
X579597Y286141D01*
X579611Y286011D01*
X579620Y285880D01*
X579626Y285748D01*
X579628Y285617D01*
X579628Y281101D01*
X38862Y403916D02*
X38862Y411988D01*
X38862Y403916D02*
X38864Y403805D01*
X38870Y403695D01*
X38880Y403584D01*
X38894Y403474D01*
X38911Y403365D01*
X38933Y403256D01*
X38958Y403148D01*
X38988Y403042D01*
X39021Y402936D01*
X39058Y402831D01*
X39098Y402728D01*
X39143Y402627D01*
X39190Y402527D01*
X39242Y402428D01*
X39297Y402332D01*
X39355Y402238D01*
X39416Y402146D01*
X39481Y402056D01*
X39549Y401968D01*
X39620Y401883D01*
X39694Y401801D01*
X39771Y401721D01*
X39851Y401644D01*
X39933Y401570D01*
X40018Y401499D01*
X40106Y401431D01*
X40196Y401366D01*
X40288Y401305D01*
X40382Y401247D01*
X40478Y401192D01*
X40577Y401140D01*
X40677Y401093D01*
X40778Y401048D01*
X40881Y401008D01*
X40986Y400971D01*
X41092Y400938D01*
X41198Y400908D01*
X41306Y400883D01*
X41415Y400861D01*
X41524Y400844D01*
X41634Y400830D01*
X41745Y400820D01*
X41855Y400814D01*
X41966Y400812D01*
X42077Y400814D01*
X42187Y400820D01*
X42298Y400830D01*
X42408Y400844D01*
X42517Y400861D01*
X42626Y400883D01*
X42734Y400908D01*
X42840Y400938D01*
X42946Y400971D01*
X43051Y401008D01*
X43154Y401048D01*
X43255Y401093D01*
X43355Y401140D01*
X43454Y401192D01*
X43550Y401247D01*
X43644Y401305D01*
X43736Y401366D01*
X43826Y401431D01*
X43914Y401499D01*
X43999Y401570D01*
X44081Y401644D01*
X44161Y401721D01*
X44238Y401801D01*
X44312Y401883D01*
X44383Y401968D01*
X44451Y402056D01*
X44516Y402146D01*
X44577Y402238D01*
X44635Y402332D01*
X44690Y402428D01*
X44742Y402527D01*
X44789Y402627D01*
X44834Y402728D01*
X44874Y402831D01*
X44911Y402936D01*
X44944Y403042D01*
X44974Y403148D01*
X44999Y403256D01*
X45021Y403365D01*
X45038Y403474D01*
X45052Y403584D01*
X45062Y403695D01*
X45068Y403805D01*
X45070Y403916D01*
X45071Y403916D02*
X45071Y411988D01*
X53015Y411988D02*
X53015Y400812D01*
X53015Y406400D02*
X51463Y407331D01*
X51391Y407377D01*
X51322Y407425D01*
X51254Y407477D01*
X51190Y407531D01*
X51127Y407589D01*
X51068Y407649D01*
X51011Y407712D01*
X50957Y407777D01*
X50907Y407845D01*
X50859Y407915D01*
X50815Y407987D01*
X50774Y408062D01*
X50736Y408137D01*
X50702Y408215D01*
X50672Y408294D01*
X50645Y408374D01*
X50622Y408456D01*
X50602Y408538D01*
X50586Y408622D01*
X50575Y408705D01*
X50567Y408790D01*
X50563Y408874D01*
X50562Y408959D01*
X50566Y409044D01*
X50573Y409128D01*
X50585Y409212D01*
X50600Y409295D01*
X50619Y409378D01*
X50642Y409460D01*
X50668Y409540D01*
X50698Y409619D01*
X50732Y409697D01*
X50769Y409773D01*
X50809Y409848D01*
X50853Y409920D01*
X50901Y409990D01*
X50951Y410058D01*
X51004Y410124D01*
X51061Y410187D01*
X51120Y410248D01*
X51182Y410306D01*
X51246Y410361D01*
X51313Y410413D01*
X51382Y410462D01*
X51454Y410507D01*
X51527Y410550D01*
X51602Y410589D01*
X51679Y410624D01*
X51758Y410656D01*
X51838Y410684D01*
X51919Y410709D01*
X52001Y410730D01*
X52084Y410747D01*
X52084Y410746D02*
X52219Y410769D01*
X52354Y410787D01*
X52489Y410803D01*
X52625Y410814D01*
X52761Y410822D01*
X52898Y410825D01*
X53034Y410826D01*
X53171Y410822D01*
X53307Y410814D01*
X53443Y410803D01*
X53578Y410788D01*
X53713Y410769D01*
X53848Y410747D01*
X53982Y410720D01*
X54115Y410690D01*
X54247Y410657D01*
X54378Y410619D01*
X54508Y410579D01*
X54637Y410534D01*
X54765Y410486D01*
X54891Y410434D01*
X55016Y410379D01*
X55139Y410321D01*
X55261Y410259D01*
X55381Y410194D01*
X55499Y410125D01*
X53015Y406400D02*
X54568Y405469D01*
X54567Y405469D02*
X54639Y405423D01*
X54708Y405375D01*
X54776Y405323D01*
X54840Y405269D01*
X54903Y405211D01*
X54962Y405151D01*
X55019Y405088D01*
X55073Y405023D01*
X55123Y404955D01*
X55171Y404885D01*
X55215Y404813D01*
X55256Y404738D01*
X55294Y404663D01*
X55328Y404585D01*
X55358Y404506D01*
X55385Y404426D01*
X55408Y404344D01*
X55428Y404262D01*
X55444Y404178D01*
X55455Y404095D01*
X55463Y404010D01*
X55467Y403926D01*
X55468Y403841D01*
X55464Y403756D01*
X55457Y403672D01*
X55445Y403588D01*
X55430Y403505D01*
X55411Y403422D01*
X55388Y403340D01*
X55362Y403260D01*
X55332Y403181D01*
X55298Y403103D01*
X55261Y403027D01*
X55221Y402952D01*
X55177Y402880D01*
X55130Y402810D01*
X55079Y402742D01*
X55026Y402676D01*
X54969Y402613D01*
X54910Y402552D01*
X54848Y402494D01*
X54784Y402439D01*
X54717Y402387D01*
X54648Y402338D01*
X54576Y402293D01*
X54503Y402250D01*
X54428Y402212D01*
X54351Y402176D01*
X54272Y402144D01*
X54193Y402116D01*
X54111Y402091D01*
X54029Y402070D01*
X53946Y402053D01*
X53947Y402053D02*
X53813Y402030D01*
X53678Y402012D01*
X53542Y401996D01*
X53406Y401985D01*
X53270Y401977D01*
X53133Y401974D01*
X52997Y401973D01*
X52861Y401977D01*
X52724Y401985D01*
X52588Y401996D01*
X52453Y402011D01*
X52318Y402030D01*
X52183Y402052D01*
X52049Y402079D01*
X51916Y402109D01*
X51784Y402142D01*
X51653Y402180D01*
X51522Y402220D01*
X51393Y402265D01*
X51266Y402313D01*
X51139Y402365D01*
X51015Y402420D01*
X50891Y402478D01*
X50770Y402540D01*
X50650Y402605D01*
X50532Y402674D01*
X60579Y409504D02*
X63683Y411988D01*
X63683Y400812D01*
X60579Y400812D02*
X66788Y400812D01*
X679450Y450850D02*
X692150Y450850D01*
X698500Y444500D01*
X698500Y431800D02*
X692150Y425450D01*
X698500Y444500D02*
X704850Y450850D01*
X717550Y450850D01*
X723900Y444500D01*
X723900Y431800D02*
X717550Y425450D01*
X704850Y425450D01*
X698500Y431800D01*
X673100Y431800D02*
X673100Y444500D01*
X679450Y450850D01*
X673100Y431800D02*
X679450Y425450D01*
X692150Y425450D01*
X723900Y444500D02*
X730250Y450850D01*
X742950Y450850D01*
X749300Y444500D01*
X749300Y431800D02*
X742950Y425450D01*
X730250Y425450D01*
X723900Y431800D01*
X755650Y450850D02*
X768350Y450850D01*
X774700Y444500D01*
X774700Y431800D01*
X768350Y425450D01*
X749300Y444500D02*
X755650Y450850D01*
X749300Y431800D02*
X755650Y425450D01*
X768350Y425450D01*
D11*
X665480Y443865D02*
X662305Y441325D01*
X665480Y443865D02*
X665480Y432435D01*
X662305Y432435D02*
X668655Y432435D01*
X777875Y434975D02*
X780415Y443865D01*
X777875Y434975D02*
X784225Y434975D01*
X782320Y437515D02*
X782320Y432435D01*
X673735Y458470D02*
X673735Y466725D01*
X673735Y458470D02*
X673737Y458359D01*
X673743Y458249D01*
X673752Y458138D01*
X673766Y458028D01*
X673783Y457919D01*
X673804Y457810D01*
X673829Y457702D01*
X673858Y457595D01*
X673890Y457489D01*
X673926Y457384D01*
X673966Y457281D01*
X674009Y457179D01*
X674056Y457078D01*
X674107Y456979D01*
X674160Y456883D01*
X674217Y456788D01*
X674278Y456695D01*
X674341Y456604D01*
X674408Y456515D01*
X674478Y456429D01*
X674551Y456346D01*
X674626Y456264D01*
X674704Y456186D01*
X674786Y456111D01*
X674869Y456038D01*
X674955Y455968D01*
X675044Y455901D01*
X675135Y455838D01*
X675228Y455777D01*
X675323Y455720D01*
X675419Y455667D01*
X675518Y455616D01*
X675619Y455569D01*
X675721Y455526D01*
X675824Y455486D01*
X675929Y455450D01*
X676035Y455418D01*
X676142Y455389D01*
X676250Y455364D01*
X676359Y455343D01*
X676468Y455326D01*
X676578Y455312D01*
X676689Y455303D01*
X676799Y455297D01*
X676910Y455295D01*
X677021Y455297D01*
X677131Y455303D01*
X677242Y455312D01*
X677352Y455326D01*
X677461Y455343D01*
X677570Y455364D01*
X677678Y455389D01*
X677785Y455418D01*
X677891Y455450D01*
X677996Y455486D01*
X678099Y455526D01*
X678201Y455569D01*
X678302Y455616D01*
X678401Y455667D01*
X678498Y455720D01*
X678592Y455777D01*
X678685Y455838D01*
X678776Y455901D01*
X678865Y455968D01*
X678951Y456038D01*
X679034Y456111D01*
X679116Y456186D01*
X679194Y456264D01*
X679269Y456346D01*
X679342Y456429D01*
X679412Y456515D01*
X679479Y456604D01*
X679542Y456695D01*
X679603Y456788D01*
X679660Y456882D01*
X679713Y456979D01*
X679764Y457078D01*
X679811Y457179D01*
X679854Y457281D01*
X679894Y457384D01*
X679930Y457489D01*
X679962Y457595D01*
X679991Y457702D01*
X680016Y457810D01*
X680037Y457919D01*
X680054Y458028D01*
X680068Y458138D01*
X680077Y458249D01*
X680083Y458359D01*
X680085Y458470D01*
X680085Y466725D01*
X687959Y466725D02*
X687959Y455295D01*
X687959Y461010D02*
X686372Y461963D01*
X686371Y461962D02*
X686298Y462009D01*
X686227Y462058D01*
X686158Y462111D01*
X686092Y462167D01*
X686028Y462226D01*
X685967Y462287D01*
X685909Y462351D01*
X685854Y462418D01*
X685802Y462488D01*
X685754Y462559D01*
X685708Y462633D01*
X685666Y462709D01*
X685628Y462787D01*
X685593Y462866D01*
X685562Y462947D01*
X685535Y463029D01*
X685511Y463112D01*
X685491Y463197D01*
X685475Y463282D01*
X685463Y463368D01*
X685455Y463454D01*
X685451Y463540D01*
X685450Y463627D01*
X685454Y463714D01*
X685462Y463800D01*
X685473Y463886D01*
X685489Y463971D01*
X685508Y464055D01*
X685531Y464139D01*
X685558Y464221D01*
X685589Y464302D01*
X685624Y464382D01*
X685661Y464459D01*
X685703Y464535D01*
X685748Y464610D01*
X685796Y464681D01*
X685848Y464751D01*
X685902Y464818D01*
X685960Y464883D01*
X686020Y464945D01*
X686084Y465004D01*
X686150Y465060D01*
X686218Y465114D01*
X686289Y465163D01*
X686362Y465210D01*
X686437Y465253D01*
X686514Y465293D01*
X686592Y465329D01*
X686673Y465362D01*
X686754Y465391D01*
X686837Y465416D01*
X686921Y465438D01*
X687006Y465455D01*
X687007Y465455D02*
X687144Y465478D01*
X687283Y465498D01*
X687421Y465513D01*
X687560Y465525D01*
X687700Y465533D01*
X687839Y465536D01*
X687979Y465537D01*
X688118Y465533D01*
X688257Y465525D01*
X688396Y465514D01*
X688535Y465498D01*
X688673Y465479D01*
X688811Y465456D01*
X688948Y465429D01*
X689084Y465398D01*
X689219Y465364D01*
X689353Y465326D01*
X689487Y465284D01*
X689618Y465238D01*
X689749Y465189D01*
X689878Y465136D01*
X690006Y465080D01*
X690132Y465020D01*
X690256Y464957D01*
X690379Y464890D01*
X690499Y464820D01*
X687959Y461010D02*
X689547Y460058D01*
X689620Y460011D01*
X689691Y459962D01*
X689760Y459909D01*
X689826Y459853D01*
X689890Y459794D01*
X689951Y459733D01*
X690009Y459669D01*
X690064Y459602D01*
X690116Y459532D01*
X690164Y459461D01*
X690210Y459387D01*
X690252Y459311D01*
X690290Y459233D01*
X690325Y459154D01*
X690356Y459073D01*
X690383Y458991D01*
X690407Y458908D01*
X690427Y458823D01*
X690443Y458738D01*
X690455Y458652D01*
X690463Y458566D01*
X690467Y458480D01*
X690468Y458393D01*
X690464Y458306D01*
X690456Y458220D01*
X690445Y458134D01*
X690429Y458049D01*
X690410Y457965D01*
X690387Y457881D01*
X690360Y457799D01*
X690329Y457718D01*
X690294Y457638D01*
X690257Y457561D01*
X690215Y457485D01*
X690170Y457410D01*
X690122Y457339D01*
X690070Y457269D01*
X690016Y457202D01*
X689958Y457137D01*
X689898Y457075D01*
X689834Y457016D01*
X689768Y456960D01*
X689700Y456906D01*
X689629Y456857D01*
X689556Y456810D01*
X689481Y456767D01*
X689404Y456727D01*
X689326Y456691D01*
X689245Y456658D01*
X689164Y456629D01*
X689081Y456604D01*
X688997Y456582D01*
X688912Y456565D01*
X688911Y456565D02*
X688774Y456542D01*
X688635Y456522D01*
X688497Y456507D01*
X688358Y456495D01*
X688218Y456487D01*
X688079Y456484D01*
X687939Y456483D01*
X687800Y456487D01*
X687661Y456495D01*
X687522Y456506D01*
X687383Y456522D01*
X687245Y456541D01*
X687107Y456564D01*
X686970Y456591D01*
X686834Y456622D01*
X686699Y456656D01*
X686565Y456694D01*
X686431Y456736D01*
X686300Y456782D01*
X686169Y456831D01*
X686040Y456884D01*
X685912Y456940D01*
X685786Y457000D01*
X685662Y457063D01*
X685539Y457130D01*
X685419Y457200D01*
X698945Y466726D02*
X699049Y466724D01*
X699154Y466718D01*
X699258Y466709D01*
X699361Y466696D01*
X699464Y466678D01*
X699566Y466658D01*
X699668Y466633D01*
X699768Y466605D01*
X699868Y466573D01*
X699966Y466537D01*
X700063Y466498D01*
X700158Y466456D01*
X700252Y466410D01*
X700344Y466360D01*
X700434Y466308D01*
X700522Y466252D01*
X700608Y466192D01*
X700692Y466130D01*
X700773Y466065D01*
X700852Y465997D01*
X700929Y465925D01*
X701002Y465852D01*
X701074Y465775D01*
X701142Y465696D01*
X701207Y465615D01*
X701269Y465531D01*
X701329Y465445D01*
X701385Y465357D01*
X701437Y465267D01*
X701487Y465175D01*
X701533Y465081D01*
X701575Y464986D01*
X701614Y464889D01*
X701650Y464791D01*
X701682Y464691D01*
X701710Y464591D01*
X701735Y464489D01*
X701755Y464387D01*
X701773Y464284D01*
X701786Y464181D01*
X701795Y464077D01*
X701801Y463972D01*
X701803Y463868D01*
X698945Y466725D02*
X698827Y466723D01*
X698708Y466717D01*
X698590Y466708D01*
X698473Y466695D01*
X698356Y466677D01*
X698239Y466657D01*
X698123Y466632D01*
X698008Y466604D01*
X697895Y466571D01*
X697782Y466536D01*
X697670Y466496D01*
X697560Y466454D01*
X697451Y466407D01*
X697343Y466357D01*
X697238Y466304D01*
X697134Y466247D01*
X697032Y466187D01*
X696932Y466124D01*
X696834Y466057D01*
X696738Y465988D01*
X696645Y465915D01*
X696554Y465839D01*
X696465Y465761D01*
X696379Y465679D01*
X696296Y465595D01*
X696215Y465509D01*
X696138Y465419D01*
X696063Y465328D01*
X695991Y465234D01*
X695922Y465137D01*
X695857Y465039D01*
X695794Y464938D01*
X695735Y464835D01*
X695679Y464731D01*
X695627Y464625D01*
X695578Y464517D01*
X695533Y464408D01*
X695491Y464297D01*
X695453Y464185D01*
X700850Y461646D02*
X700926Y461721D01*
X701001Y461800D01*
X701072Y461881D01*
X701141Y461965D01*
X701206Y462051D01*
X701268Y462139D01*
X701328Y462229D01*
X701384Y462321D01*
X701437Y462416D01*
X701486Y462512D01*
X701532Y462610D01*
X701575Y462709D01*
X701614Y462810D01*
X701649Y462912D01*
X701681Y463015D01*
X701709Y463119D01*
X701734Y463224D01*
X701755Y463331D01*
X701772Y463437D01*
X701785Y463544D01*
X701794Y463652D01*
X701800Y463760D01*
X701802Y463868D01*
X700850Y461645D02*
X695452Y455295D01*
X701802Y455295D01*
D10*
X692150Y400050D02*
X679450Y400050D01*
X692150Y400050D02*
X698500Y393700D01*
X698500Y381000D02*
X692150Y374650D01*
X698500Y393700D02*
X704850Y400050D01*
X717550Y400050D01*
X723900Y393700D01*
X723900Y381000D02*
X717550Y374650D01*
X704850Y374650D01*
X698500Y381000D01*
X673100Y381000D02*
X673100Y393700D01*
X679450Y400050D01*
X673100Y381000D02*
X679450Y374650D01*
X692150Y374650D01*
X723900Y393700D02*
X730250Y400050D01*
X742950Y400050D01*
X749300Y393700D01*
X749300Y381000D02*
X742950Y374650D01*
X730250Y374650D01*
X723900Y381000D01*
X755650Y400050D02*
X768350Y400050D01*
X774700Y393700D01*
X774700Y381000D01*
X768350Y374650D01*
X749300Y393700D02*
X755650Y400050D01*
X749300Y381000D02*
X755650Y374650D01*
X768350Y374650D01*
D11*
X665480Y393065D02*
X662305Y390525D01*
X665480Y393065D02*
X665480Y381635D01*
X662305Y381635D02*
X668655Y381635D01*
X777875Y384175D02*
X780415Y393065D01*
X777875Y384175D02*
X784225Y384175D01*
X782320Y386715D02*
X782320Y381635D01*
X673735Y407670D02*
X673735Y415925D01*
X673735Y407670D02*
X673737Y407559D01*
X673743Y407449D01*
X673752Y407338D01*
X673766Y407228D01*
X673783Y407119D01*
X673804Y407010D01*
X673829Y406902D01*
X673858Y406795D01*
X673890Y406689D01*
X673926Y406584D01*
X673966Y406481D01*
X674009Y406379D01*
X674056Y406278D01*
X674107Y406179D01*
X674160Y406083D01*
X674217Y405988D01*
X674278Y405895D01*
X674341Y405804D01*
X674408Y405715D01*
X674478Y405629D01*
X674551Y405546D01*
X674626Y405464D01*
X674704Y405386D01*
X674786Y405311D01*
X674869Y405238D01*
X674955Y405168D01*
X675044Y405101D01*
X675135Y405038D01*
X675228Y404977D01*
X675323Y404920D01*
X675419Y404867D01*
X675518Y404816D01*
X675619Y404769D01*
X675721Y404726D01*
X675824Y404686D01*
X675929Y404650D01*
X676035Y404618D01*
X676142Y404589D01*
X676250Y404564D01*
X676359Y404543D01*
X676468Y404526D01*
X676578Y404512D01*
X676689Y404503D01*
X676799Y404497D01*
X676910Y404495D01*
X677021Y404497D01*
X677131Y404503D01*
X677242Y404512D01*
X677352Y404526D01*
X677461Y404543D01*
X677570Y404564D01*
X677678Y404589D01*
X677785Y404618D01*
X677891Y404650D01*
X677996Y404686D01*
X678099Y404726D01*
X678201Y404769D01*
X678302Y404816D01*
X678401Y404867D01*
X678498Y404920D01*
X678592Y404977D01*
X678685Y405038D01*
X678776Y405101D01*
X678865Y405168D01*
X678951Y405238D01*
X679034Y405311D01*
X679116Y405386D01*
X679194Y405464D01*
X679269Y405546D01*
X679342Y405629D01*
X679412Y405715D01*
X679479Y405804D01*
X679542Y405895D01*
X679603Y405988D01*
X679660Y406082D01*
X679713Y406179D01*
X679764Y406278D01*
X679811Y406379D01*
X679854Y406481D01*
X679894Y406584D01*
X679930Y406689D01*
X679962Y406795D01*
X679991Y406902D01*
X680016Y407010D01*
X680037Y407119D01*
X680054Y407228D01*
X680068Y407338D01*
X680077Y407449D01*
X680083Y407559D01*
X680085Y407670D01*
X680085Y415925D01*
X687959Y415925D02*
X687959Y404495D01*
X687959Y410210D02*
X686372Y411163D01*
X686371Y411162D02*
X686298Y411209D01*
X686227Y411258D01*
X686158Y411311D01*
X686092Y411367D01*
X686028Y411426D01*
X685967Y411487D01*
X685909Y411551D01*
X685854Y411618D01*
X685802Y411688D01*
X685754Y411759D01*
X685708Y411833D01*
X685666Y411909D01*
X685628Y411987D01*
X685593Y412066D01*
X685562Y412147D01*
X685535Y412229D01*
X685511Y412312D01*
X685491Y412397D01*
X685475Y412482D01*
X685463Y412568D01*
X685455Y412654D01*
X685451Y412740D01*
X685450Y412827D01*
X685454Y412914D01*
X685462Y413000D01*
X685473Y413086D01*
X685489Y413171D01*
X685508Y413255D01*
X685531Y413339D01*
X685558Y413421D01*
X685589Y413502D01*
X685624Y413582D01*
X685661Y413659D01*
X685703Y413735D01*
X685748Y413810D01*
X685796Y413881D01*
X685848Y413951D01*
X685902Y414018D01*
X685960Y414083D01*
X686020Y414145D01*
X686084Y414204D01*
X686150Y414260D01*
X686218Y414314D01*
X686289Y414363D01*
X686362Y414410D01*
X686437Y414453D01*
X686514Y414493D01*
X686592Y414529D01*
X686673Y414562D01*
X686754Y414591D01*
X686837Y414616D01*
X686921Y414638D01*
X687006Y414655D01*
X687007Y414655D02*
X687144Y414678D01*
X687283Y414698D01*
X687421Y414713D01*
X687560Y414725D01*
X687700Y414733D01*
X687839Y414736D01*
X687979Y414737D01*
X688118Y414733D01*
X688257Y414725D01*
X688396Y414714D01*
X688535Y414698D01*
X688673Y414679D01*
X688811Y414656D01*
X688948Y414629D01*
X689084Y414598D01*
X689219Y414564D01*
X689353Y414526D01*
X689487Y414484D01*
X689618Y414438D01*
X689749Y414389D01*
X689878Y414336D01*
X690006Y414280D01*
X690132Y414220D01*
X690256Y414157D01*
X690379Y414090D01*
X690499Y414020D01*
X687959Y410210D02*
X689547Y409258D01*
X689620Y409211D01*
X689691Y409162D01*
X689760Y409109D01*
X689826Y409053D01*
X689890Y408994D01*
X689951Y408933D01*
X690009Y408869D01*
X690064Y408802D01*
X690116Y408732D01*
X690164Y408661D01*
X690210Y408587D01*
X690252Y408511D01*
X690290Y408433D01*
X690325Y408354D01*
X690356Y408273D01*
X690383Y408191D01*
X690407Y408108D01*
X690427Y408023D01*
X690443Y407938D01*
X690455Y407852D01*
X690463Y407766D01*
X690467Y407680D01*
X690468Y407593D01*
X690464Y407506D01*
X690456Y407420D01*
X690445Y407334D01*
X690429Y407249D01*
X690410Y407165D01*
X690387Y407081D01*
X690360Y406999D01*
X690329Y406918D01*
X690294Y406838D01*
X690257Y406761D01*
X690215Y406685D01*
X690170Y406610D01*
X690122Y406539D01*
X690070Y406469D01*
X690016Y406402D01*
X689958Y406337D01*
X689898Y406275D01*
X689834Y406216D01*
X689768Y406160D01*
X689700Y406106D01*
X689629Y406057D01*
X689556Y406010D01*
X689481Y405967D01*
X689404Y405927D01*
X689326Y405891D01*
X689245Y405858D01*
X689164Y405829D01*
X689081Y405804D01*
X688997Y405782D01*
X688912Y405765D01*
X688911Y405765D02*
X688774Y405742D01*
X688635Y405722D01*
X688497Y405707D01*
X688358Y405695D01*
X688218Y405687D01*
X688079Y405684D01*
X687939Y405683D01*
X687800Y405687D01*
X687661Y405695D01*
X687522Y405706D01*
X687383Y405722D01*
X687245Y405741D01*
X687107Y405764D01*
X686970Y405791D01*
X686834Y405822D01*
X686699Y405856D01*
X686565Y405894D01*
X686431Y405936D01*
X686300Y405982D01*
X686169Y406031D01*
X686040Y406084D01*
X685912Y406140D01*
X685786Y406200D01*
X685662Y406263D01*
X685539Y406330D01*
X685419Y406400D01*
X695452Y404495D02*
X698627Y404495D01*
X698738Y404497D01*
X698848Y404503D01*
X698959Y404512D01*
X699069Y404526D01*
X699178Y404543D01*
X699287Y404564D01*
X699395Y404589D01*
X699502Y404618D01*
X699608Y404650D01*
X699713Y404686D01*
X699816Y404726D01*
X699918Y404769D01*
X700019Y404816D01*
X700118Y404867D01*
X700215Y404920D01*
X700309Y404977D01*
X700402Y405038D01*
X700493Y405101D01*
X700582Y405168D01*
X700668Y405238D01*
X700751Y405311D01*
X700833Y405386D01*
X700911Y405464D01*
X700986Y405546D01*
X701059Y405629D01*
X701129Y405715D01*
X701196Y405804D01*
X701259Y405895D01*
X701320Y405988D01*
X701377Y406082D01*
X701430Y406179D01*
X701481Y406278D01*
X701528Y406379D01*
X701571Y406481D01*
X701611Y406584D01*
X701647Y406689D01*
X701679Y406795D01*
X701708Y406902D01*
X701733Y407010D01*
X701754Y407119D01*
X701771Y407228D01*
X701785Y407338D01*
X701794Y407449D01*
X701800Y407559D01*
X701802Y407670D01*
X701800Y407781D01*
X701794Y407891D01*
X701785Y408002D01*
X701771Y408112D01*
X701754Y408221D01*
X701733Y408330D01*
X701708Y408438D01*
X701679Y408545D01*
X701647Y408651D01*
X701611Y408756D01*
X701571Y408859D01*
X701528Y408961D01*
X701481Y409062D01*
X701430Y409161D01*
X701377Y409257D01*
X701320Y409352D01*
X701259Y409445D01*
X701196Y409536D01*
X701129Y409625D01*
X701059Y409711D01*
X700986Y409794D01*
X700911Y409876D01*
X700833Y409954D01*
X700751Y410029D01*
X700668Y410102D01*
X700582Y410172D01*
X700493Y410239D01*
X700402Y410302D01*
X700309Y410363D01*
X700215Y410420D01*
X700118Y410473D01*
X700019Y410524D01*
X699918Y410571D01*
X699816Y410614D01*
X699713Y410654D01*
X699608Y410690D01*
X699502Y410722D01*
X699395Y410751D01*
X699287Y410776D01*
X699178Y410797D01*
X699069Y410814D01*
X698959Y410828D01*
X698848Y410837D01*
X698738Y410843D01*
X698627Y410845D01*
X699262Y415925D02*
X695452Y415925D01*
X699262Y415925D02*
X699362Y415923D01*
X699461Y415917D01*
X699561Y415907D01*
X699659Y415894D01*
X699758Y415876D01*
X699855Y415855D01*
X699951Y415830D01*
X700047Y415801D01*
X700141Y415768D01*
X700234Y415732D01*
X700325Y415692D01*
X700415Y415648D01*
X700503Y415601D01*
X700589Y415551D01*
X700673Y415497D01*
X700755Y415440D01*
X700834Y415380D01*
X700912Y415316D01*
X700986Y415250D01*
X701058Y415181D01*
X701127Y415109D01*
X701193Y415035D01*
X701257Y414957D01*
X701317Y414878D01*
X701374Y414796D01*
X701428Y414712D01*
X701478Y414626D01*
X701525Y414538D01*
X701569Y414448D01*
X701609Y414357D01*
X701645Y414264D01*
X701678Y414170D01*
X701707Y414074D01*
X701732Y413978D01*
X701753Y413881D01*
X701771Y413782D01*
X701784Y413684D01*
X701794Y413584D01*
X701800Y413485D01*
X701802Y413385D01*
X701800Y413285D01*
X701794Y413186D01*
X701784Y413086D01*
X701771Y412988D01*
X701753Y412889D01*
X701732Y412792D01*
X701707Y412696D01*
X701678Y412600D01*
X701645Y412506D01*
X701609Y412413D01*
X701569Y412322D01*
X701525Y412232D01*
X701478Y412144D01*
X701428Y412058D01*
X701374Y411974D01*
X701317Y411892D01*
X701257Y411813D01*
X701193Y411735D01*
X701127Y411661D01*
X701058Y411589D01*
X700986Y411520D01*
X700912Y411454D01*
X700834Y411390D01*
X700755Y411330D01*
X700673Y411273D01*
X700589Y411219D01*
X700503Y411169D01*
X700415Y411122D01*
X700325Y411078D01*
X700234Y411038D01*
X700141Y411002D01*
X700047Y410969D01*
X699951Y410940D01*
X699855Y410915D01*
X699758Y410894D01*
X699659Y410876D01*
X699561Y410863D01*
X699461Y410853D01*
X699362Y410847D01*
X699262Y410845D01*
X696722Y410845D01*
M02*
